<svg version="1.1" id="hands-frame" xmlns="http://www.w3.org/2000/svg" x="0" y="0" viewBox="0 0 485 468.9" style="enable-background:new 0 0 485 468.9" xml:space="preserve"><style>.frame-color{fill:#f4bb8a}.hide_on_white{opacity:1}</style><path id="HandsBackground" d="M101.1 464.8H82.4s-2.8.1-6.3-2.7c0 0-6.7 3.9-18.1 3.9-17 0-29.7-10.3-29.7-10.3-.1-.1-.3-.1-.4-.1h-15c-2.7 0-9.1-1-9.1-10.6v-27.1c0-5.9 4.8-10.7 10.7-10.7h14.4l-.4 2.7c-.3 1.9-.4 4-.4 6.2 0 .3.2.5.2.5.1.1.3.2.5.2.3 0 .5-.2.5-.2.1-.1.2-.3.2-.5-.4-15.7 8.6-19.8 25-27.1l.9-.4c12.7-5.7 12.4-17.4 12.2-24.4-.1-1.6-.1-3 0-3.9l.2-1.3 1.2-.5c.4-.2 1.3-.5 2.7-.5.4 0 .9 0 1.4.1 1.7.3 4.9 1.3 7.2 5 3.8 6.2 2.9 17.9-.3 24.4-2 4.1-2.1 8.1-.4 10.8 1.6 2.5 4.5 3.8 8.5 3.8h61.7c2.8 0 5.1.8 6.6 2.3 1.3 1.3 2 3 2 4.9 0 3.2-2.2 6.4-6.3 6.4h-53c-.4 0-.8.3-.8.8s.3.8.8.8h19.1c4 0 7.3 3.3 7.3 7.3s-3.3 7.3-7.3 7.3h-20c-.4 0-.8.3-.8.8s.3.8.8.8h11.1c5.6 0 7.3 4.3 7.3 8.3s-3.3 7.3-7.3 7.3H98.2l-.2.1c-.2.1-.5.3-.5.7s.2.6.5.7l4.5.2c3.3.6 5.9 3.6 5.9 7.1 0 3.6-3.3 6.9-7.3 6.9 0 0-.1 0-.2.1M472.1 16.7h-16c-.2 0-.3 0-.4-.1-11.1-7.7-37.2-18.1-65.4-9.9l-2.1.7c-.1 0-.2.1-.2.1-4 0-7.3 3.3-7.3 7.3 0 3.5 2.5 6.5 5.9 7.1l.5.2c.2.1.5.3.5.7s-.2.6-.5.7l-.2.1h-7.2c-4 0-7.3 3.3-7.3 7.3s3.3 7.3 7.3 7.3h7.1c.4 0 .8.3.8.8s-.3.8-.8.8h-16c-4 0-7.3 3.3-7.3 7.3s3.3 7.3 7.3 7.3h15.1c.4 0 .8.3.8.8s-.3.8-.8.8h-53c-4.2 0-6.3 3.2-6.3 6.4 0 1.9.7 3.6 2 4.9 1.5 1.5 3.8 2.3 6.6 2.3h61.7c4 0 6.9 1.3 8.5 3.8 1.7 2.8 1.6 6.7-.4 10.8-3.2 6.5-4 18.2-.3 24.4 2.3 3.7 5.5 4.8 7.2 5 .5.1 1 .1 1.4.1 1.3 0 2.3-.3 2.7-.5l1.2-.5.2-1.3c.1-.9.1-2.3 0-3.9-.2-7-.6-18.7 12.2-24.4l.9-.4c16.4-7.3 25.4-11.3 25-27.1 0-.3.1-.5.2-.5s.3-.2.5-.2c.3 0 .4.1.5.2.1.1.2.3.2.5.1 2.2-.1 4.3-.4 6.2l-.4 2.7h14.4c5.9 0 10.7-4.8 10.7-10.7V27.3c0-9.5-6.4-10.6-9.1-10.6z" style="fill:#fff"/><path id="FrameBody" class="frame-color" d="M301.7 64.7c0 1.7-1.3 3-3 3H75.4v260.5c0 1.7-1.3 3-3 3s-3-1.3-3-3V67.7h-27c-1.7 0-3-1.3-3-3s1.3-3 3-3h27v-27c0-1.7 1.3-3 3-3s3 1.3 3 3v27h223.3c1.7 0 3 1.4 3 3zM189.2 412.3h223.3v27c0 1.7 1.3 3 3 3s3-1.3 3-3v-27h27c1.7 0 3-1.3 3-3s-1.3-3-3-3h-27V145.9c0-1.7-1.3-3-3-3s-3 1.3-3 3v260.5H189.2c-1.7 0-3 1.3-3 3s1.3 2.9 3 2.9zm-26.9-2.6c0 4.9-3.5 10.2-10.1 10.2h-25c.8 1.5 1.2 3.2 1.2 5 0 5.8-4.5 10.5-10.2 11 .8 1.5 1.2 3.2 1.2 5.1 0 5.6-4.2 10.2-9.6 10.9.8 1.5 1.3 3.3 1.3 5.1 0 6.1-4.9 11-11 11H82.3c-2.5 0-4.7-.8-6.6-2.2-5.2 2-10.7 3-16.3 3-10.5 0-21.4-3.4-31.5-10.1h-15C5 458.7 0 453.2 0 444.3v-26.1c0-8 6.5-14.5 14.5-14.5h13.6c4-8.6 13-12.6 25-17.9l.9-.4c10.4-4.6 10.1-14 9.9-20.8-.1-3.7-.2-6.3 1.6-8 1.8-1.7 4.8-2.4 8-2 2.4.3 7 1.6 10.2 6.8 4.6 7.6 3.6 20.5-.1 28-1.4 2.9-1.6 5.6-.6 7.2 1.1 1.7 3.5 2 5.3 2H150c4.8 0 7.7 1.8 9.3 3.3 1.9 2.2 3 4.9 3 7.8zM105.2 457c0-2.8-2.3-5-5-5H82.3c-2.8 0-5 2.3-5 5s2.3 5 5 5h17.9c2.8.1 5-2.2 5-5zm8.3-16c0-2.8-2.3-5-5-5H82.3c-2.8 0-5 2.3-5 5s2.3 5 5 5h26.2c2.7 0 5-2.2 5-5zm3.9-21.1H83.2c-2.2 0-4.1 1.4-4.7 3.4-.1.4-.2.8-.2 1.1v.5c0 2.8 2.3 5 5 5h34.2c2.8 0 5-2.3 5-5s-2.3-5-5.1-5zm38.9-10.2c0-1.3-.5-2.4-1.4-3.3-1.1-1.1-2.9-1.7-5.1-1.7H88.2c-6.1 0-9-2.6-10.4-4.8-2.1-3.4-2-8.1.3-13 2.9-6 3.7-16.8.4-22.3-1.8-3-4.3-3.8-5.7-4-1.4-.2-2.4 0-2.9.2-.1.8 0 2.4 0 3.6.2 7.1.6 20.2-13.5 26.5l-.9.4c-16.5 7.4-24.1 10.7-23.7 25 0 1.7-1.3 3-2.9 3.1-1.7 0-3-1.3-3.1-2.9-.1-2.5.1-4.7.4-6.7H14.5c-4.7 0-8.5 3.8-8.5 8.5v26.1c0 3.8 1.2 8.4 6.9 8.4h16.9l.8.5c18.1 12.5 33.5 10.3 41.4 7.6-.4-1.2-.7-2.5-.7-3.8 0-3.2 1.3-6 3.5-8-2.1-2-3.5-4.9-3.5-8 0-.8.1-1.6.3-2.4-3.5 4.5-8 8.3-13.3 10.8-.4.2-.9.3-1.3.3-1.1 0-2.2-.6-2.7-1.7-.7-1.5-.1-3.3 1.4-4 8.4-4 14.4-11.7 16.6-20.5.1-.6.2-1.3.4-1.9.3-1.8.5-3.6.5-5.4 0-2.1-.2-4.2-.6-6.2-.3-1.6.7-3.2 2.3-3.5 1.6-.3 3.2.7 3.5 2.3.4 1.9.6 3.9.7 5.9 1.3-.5 2.6-.8 4.1-.8h69c3.3-.1 4.1-2.7 4.1-4.3zM485 27.3v26.1c0 8-6.5 14.5-14.5 14.5h-13.6c-4 8.6-13 12.6-25 17.9l-.9.4c-10.4 4.6-10.1 14-9.9 20.8.1 3.7.2 6.3-1.6 8-1.4 1.4-3.8 2.1-6.3 2.1-.6 0-1.1 0-1.7-.1-2.4-.3-7-1.6-10.2-6.8-4.6-7.6-3.6-20.5.1-28 1.4-2.9 1.6-5.6.6-7.2-1.1-1.7-3.5-2-5.3-2H335c-4.8 0-7.7-1.8-9.3-3.3-2.1-2-3.2-4.7-3.2-7.6 0-4.9 3.5-10.2 10.1-10.2h28.1c-.8-1.5-1.2-3.2-1.2-5 0-5.8 4.5-10.5 10.2-11-.8-1.5-1.2-3.2-1.2-5.1 0-5.6 4.2-10.2 9.6-10.9-.8-1.5-1.3-3.3-1.3-5.1 0-5.9 4.7-10.7 10.5-11 26.2-8.4 53.6-1.5 69.7 9.3h15.1C480 13 485 18.5 485 27.3zm-6 0c0-6.9-3.7-8.4-6.9-8.4h-16.9l-.8-.5C443.3 10.8 417 .3 388.8 9.5h-.2c-.1 0-.2 0-.3.1h-.4c-2.8 0-5 2.3-5 5s2.3 5 5 5v.4c1 .5 1.8 1.5 1.8 2.7s-.7 2.3-1.8 2.7v.3H379.6c-2.8 0-5 2.3-5 5s2.3 5 5 5h7c1.7 0 3 1.3 3 3s-1.3 3-3 3h-15.9c-2.8 0-5 2.3-5 5s2.3 5 5 5h15.1c1.7 0 3 1.3 3 3s-1.3 3-3 3h-53c-3.2 0-4.1 2.6-4.1 4.2 0 1.3.5 2.4 1.4 3.3 1.1 1.1 2.9 1.7 5.1 1.7h61.7c6.1 0 9 2.6 10.4 4.8 2.1 3.4 2 8.1-.3 13-2.9 6-3.7 16.8-.4 22.3 1.8 3 4.3 3.8 5.7 4 1.4.2 2.4 0 2.9-.2.1-.8 0-2.4 0-3.6-.2-7.1-.6-20.2 13.5-26.5l.9-.4c16.5-7.4 24.1-10.7 23.7-25 0-1.7 1.3-3 2.9-3.1 1.7 0 3 1.3 3.1 2.9.1 2.5-.1 4.7-.4 6.7h11.8c4.7 0 8.5-3.8 8.5-8.5v-26h-.2z"/><path id="WhiteBackground" d="M367.8 94.9H116.1c-7.6 0-13.7 6.2-13.7 13.7v251.7c0 7.6 6.2 13.7 13.7 13.7h251.6c7.6 0 13.7-6.2 13.8-13.7V108.6c0-7.6-6.2-13.7-13.7-13.7z" style="fill:#fff"/><svg id="TextArea" x="165" y="410" width="240" height="65" viewBox="0 0 5.715 17.589" preserveAspectRatio="xMidYMid meet"><svg xmlns="http://www.w3.org/2000/svg"/></svg><path id="Outline" d="M367.7 375H116.1c-8.1 0-14.7-6.6-14.7-14.7V108.6c0-8.1 6.6-14.7 14.7-14.7h251.7c8.1 0 14.7 6.6 14.7 14.7v251.7c-.1 8.1-6.7 14.7-14.8 14.7zM116.1 95.9c-7 0-12.7 5.7-12.7 12.7v251.7c0 7 5.7 12.7 12.7 12.7h251.6c7 0 12.7-5.7 12.8-12.7V108.6c0-7-5.7-12.7-12.7-12.7H116.1z" style="fill:#e6e6e6"/><svg xmlns="http://www.w3.org/2000/svg" xmlns:xlink="http://www.w3.org/1999/xlink" width="267.7" height="267.7" viewBox="0 0 2000 2000" x="108.1" y="100.6" shape-rendering="crispEdges"><path fill="#fff" d="M0 0h2000v2000H0z"/><svg viewBox="0 0 4 4" x="629" y="173" width="57" height="57" shape-rendering="auto"><path d="M4 3.15V.85A.85.85 0 0 0 3.15 0H.85A.85.85 0 0 0 0 .85V4h4Z"/></svg><svg viewBox="0 0 4 4" x="800" y="173" width="57" height="57" shape-rendering="auto"><path d="M3.15 4A.85.85 0 0 0 4 3.15V4Z"/></svg><svg viewBox="0 0 4 4" x="857" y="173" width="57" height="57" shape-rendering="auto"><path d="M.85 0A.85.85 0 0 0 0 .85V4h4V0H.85Z"/></svg><svg viewBox="0 0 4 4" x="914" y="173" width="57" height="57" shape-rendering="auto"><path d="M0 0h4v4H0z"/></svg><svg viewBox="0 0 4 4" x="971" y="173" width="57" height="57" shape-rendering="auto"><path d="M3.15 0A.85.85 0 0 1 4 .85V4H0V0h3.15Z"/></svg><svg viewBox="0 0 4 4" x="1256" y="173" width="57" height="57" shape-rendering="auto"><path d="M4 3.15V.85A.85.85 0 0 0 3.15 0H.85A.85.85 0 0 0 0 .85V4h4Z"/></svg><svg viewBox="0 0 4 4" x="629" y="230" width="57" height="57" shape-rendering="auto"><path d="M0 0h4v4H0z"/></svg><svg viewBox="0 0 4 4" x="686" y="230" width="57" height="57" shape-rendering="auto"><path d="M.85 4A.85.85 0 0 1 0 3.15V4Z"/></svg><svg viewBox="0 0 4 4" x="800" y="230" width="57" height="57" shape-rendering="auto"><path d="M.85 0A.85.85 0 0 0 0 .85V4h4V0H.85Z"/></svg><svg viewBox="0 0 4 4" x="857" y="230" width="57" height="57" shape-rendering="auto"><path d="M4 3.15a.85.85 0 0 1-.85.85H0V0h4v3.15Z"/></svg><svg viewBox="0 0 4 4" x="914" y="230" width="57" height="57" shape-rendering="auto"><path d="M.85 0H0v.85A.85.85 0 0 1 .85 0Z"/></svg><svg viewBox="0 0 4 4" x="914" y="230" width="57" height="57" shape-rendering="auto"><path d="M4 .85V0h-.85A.85.85 0 0 1 4 .85Z"/></svg><svg viewBox="0 0 4 4" x="971" y="230" width="57" height="57" shape-rendering="auto"><path d="M0 3.15A.85.85 0 0 0 .85 4h2.3A.85.85 0 0 0 4 3.15V0H0v3.15Z"/></svg><svg viewBox="0 0 4 4" x="1142" y="230" width="57" height="57" shape-rendering="auto"><rect width="4" height="4" rx=".85"/></svg><svg viewBox="0 0 4 4" x="1256" y="230" width="57" height="57" shape-rendering="auto"><path d="M0 3.15A.85.85 0 0 0 .85 4h2.3A.85.85 0 0 0 4 3.15V0H0v3.15Z"/></svg><svg viewBox="0 0 4 4" x="629" y="287" width="57" height="57" shape-rendering="auto"><path d="M0 3.15A.85.85 0 0 0 .85 4H4V0H0v3.15Z"/></svg><svg viewBox="0 0 4 4" x="686" y="287" width="57" height="57" shape-rendering="auto"><path d="M.85 4h2.3A.85.85 0 0 0 4 3.15V.85A.85.85 0 0 0 3.15 0H0v4Z"/></svg><svg viewBox="0 0 4 4" x="743" y="287" width="57" height="57" shape-rendering="auto"><path d="M3.15 4A.85.85 0 0 0 4 3.15V4Z"/></svg><svg viewBox="0 0 4 4" x="800" y="287" width="57" height="57" shape-rendering="auto"><path d="M0 0h4v4H0z"/></svg><svg viewBox="0 0 4 4" x="857" y="287" width="57" height="57" shape-rendering="auto"><path d="M.85 0H0v.85A.85.85 0 0 1 .85 0Z"/></svg><svg viewBox="0 0 4 4" x="914" y="287" width="57" height="57" shape-rendering="auto"><path d="M4 3.15V.85A.85.85 0 0 0 3.15 0H.85A.85.85 0 0 0 0 .85V4h4Z"/></svg><svg viewBox="0 0 4 4" x="971" y="287" width="57" height="57" shape-rendering="auto"><path d="M.85 4A.85.85 0 0 1 0 3.15V4Z"/></svg><svg viewBox="0 0 4 4" x="1085" y="287" width="57" height="57" shape-rendering="auto"><rect width="4" height="4" rx=".85"/></svg><svg viewBox="0 0 4 4" x="1313" y="287" width="57" height="57" shape-rendering="auto"><path d="M4 3.15V.85A.85.85 0 0 0 3.15 0H.85A.85.85 0 0 0 0 .85V4h4Z"/></svg><svg viewBox="0 0 4 4" x="686" y="344" width="57" height="57" shape-rendering="auto"><path d="M3.15 4A.85.85 0 0 0 4 3.15V4Z"/></svg><svg viewBox="0 0 4 4" x="743" y="344" width="57" height="57" shape-rendering="auto"><path d="M.85 0A.85.85 0 0 0 0 .85V4h4V0H.85Z"/></svg><svg viewBox="0 0 4 4" x="800" y="344" width="57" height="57" shape-rendering="auto"><path d="M4 3.15a.85.85 0 0 1-.85.85H0V0h4v3.15Z"/></svg><svg viewBox="0 0 4 4" x="857" y="344" width="57" height="57" shape-rendering="auto"><path d="M3.15 4A.85.85 0 0 0 4 3.15V4Z"/></svg><svg viewBox="0 0 4 4" x="914" y="344" width="57" height="57" shape-rendering="auto"><path d="M0 0h4v4H0z"/></svg><svg viewBox="0 0 4 4" x="971" y="344" width="57" height="57" shape-rendering="auto"><path d="M0 0h4v4H0z"/></svg><svg viewBox="0 0 4 4" x="1028" y="344" width="57" height="57" shape-rendering="auto"><path d="M.85 4h2.3A.85.85 0 0 0 4 3.15V.85A.85.85 0 0 0 3.15 0H0v4Z"/></svg><svg viewBox="0 0 4 4" x="1142" y="344" width="57" height="57" shape-rendering="auto"><path d="M3.15 0H.85A.85.85 0 0 0 0 .85v2.3A.85.85 0 0 0 .85 4H4V0Z"/></svg><svg viewBox="0 0 4 4" x="1199" y="344" width="57" height="57" shape-rendering="auto"><path d="M3.15 0A.85.85 0 0 1 4 .85V4H0V0h3.15Z"/></svg><svg viewBox="0 0 4 4" x="1313" y="344" width="57" height="57" shape-rendering="auto"><path d="M0 3.15A.85.85 0 0 0 .85 4h2.3A.85.85 0 0 0 4 3.15V0H0v3.15Z"/></svg><svg viewBox="0 0 4 4" x="686" y="401" width="57" height="57" shape-rendering="auto"><path d="M3.15 0H.85A.85.85 0 0 0 0 .85v2.3A.85.85 0 0 0 .85 4H4V0Z"/></svg><svg viewBox="0 0 4 4" x="743" y="401" width="57" height="57" shape-rendering="auto"><path d="M0 0h4v4H0z"/></svg><svg viewBox="0 0 4 4" x="800" y="401" width="57" height="57" shape-rendering="auto"><path d="M.85 0H0v.85A.85.85 0 0 1 .85 0Z"/></svg><svg viewBox="0 0 4 4" x="857" y="401" width="57" height="57" shape-rendering="auto"><path d="M.85 0A.85.85 0 0 0 0 .85V4h4V0H.85Z"/></svg><svg viewBox="0 0 4 4" x="914" y="401" width="57" height="57" shape-rendering="auto"><path d="M0 0h4v4H0z"/></svg><svg viewBox="0 0 4 4" x="971" y="401" width="57" height="57" shape-rendering="auto"><path d="M.85 0H0v.85A.85.85 0 0 1 .85 0Z"/></svg><svg viewBox="0 0 4 4" x="1142" y="401" width="57" height="57" shape-rendering="auto"><path d="M4 .85V0h-.85A.85.85 0 0 1 4 .85Z"/></svg><svg viewBox="0 0 4 4" x="1199" y="401" width="57" height="57" shape-rendering="auto"><path d="M0 0h4v4H0z"/></svg><svg viewBox="0 0 4 4" x="629" y="458" width="57" height="57" shape-rendering="auto"><path d="M4 3.15V.85A.85.85 0 0 0 3.15 0H.85A.85.85 0 0 0 0 .85V4h4Z"/></svg><svg viewBox="0 0 4 4" x="686" y="458" width="57" height="57" shape-rendering="auto"><path d="M4 .85V0h-.85A.85.85 0 0 1 4 .85Z"/></svg><svg viewBox="0 0 4 4" x="743" y="458" width="57" height="57" shape-rendering="auto"><path d="M0 0h4v4H0z"/></svg><svg viewBox="0 0 4 4" x="857" y="458" width="57" height="57" shape-rendering="auto"><path d="M0 0h4v4H0z"/></svg><svg viewBox="0 0 4 4" x="914" y="458" width="57" height="57" shape-rendering="auto"><path d="M4 3.15a.85.85 0 0 1-.85.85H0V0h4v3.15Z"/></svg><svg viewBox="0 0 4 4" x="1028" y="458" width="57" height="57" shape-rendering="auto"><rect width="4" height="4" rx=".85"/></svg><svg viewBox="0 0 4 4" x="1199" y="458" width="57" height="57" shape-rendering="auto"><path d="M0 0h4v4H0z"/></svg><svg viewBox="0 0 4 4" x="1313" y="458" width="57" height="57" shape-rendering="auto"><path d="M4 3.15V.85A.85.85 0 0 0 3.15 0H.85A.85.85 0 0 0 0 .85V4h4Z"/></svg><svg viewBox="0 0 4 4" x="629" y="515" width="57" height="57" shape-rendering="auto"><path d="M0 0h4v4H0z"/></svg><svg viewBox="0 0 4 4" x="686" y="515" width="57" height="57" shape-rendering="auto"><path d="M3.15 4A.85.85 0 0 0 4 3.15V4Z"/></svg><svg viewBox="0 0 4 4" x="686" y="515" width="57" height="57" shape-rendering="auto"><path d="M.85 4A.85.85 0 0 1 0 3.15V4Z"/></svg><svg viewBox="0 0 4 4" x="743" y="515" width="57" height="57" shape-rendering="auto"><path d="M0 0h4v4H0z"/></svg><svg viewBox="0 0 4 4" x="857" y="515" width="57" height="57" shape-rendering="auto"><path d="M0 3.15A.85.85 0 0 0 .85 4h2.3A.85.85 0 0 0 4 3.15V0H0v3.15Z"/></svg><svg viewBox="0 0 4 4" x="914" y="515" width="57" height="57" shape-rendering="auto"><path d="M.85 0H0v.85A.85.85 0 0 1 .85 0Z"/></svg><svg viewBox="0 0 4 4" x="971" y="515" width="57" height="57" shape-rendering="auto"><rect width="4" height="4" rx=".85"/></svg><svg viewBox="0 0 4 4" x="1028" y="515" width="57" height="57" shape-rendering="auto"><path d="M3.15 4A.85.85 0 0 0 4 3.15V4Z"/></svg><svg viewBox="0 0 4 4" x="1085" y="515" width="57" height="57" shape-rendering="auto"><path d="M4 3.15V.85A.85.85 0 0 0 3.15 0H.85A.85.85 0 0 0 0 .85V4h4Z"/></svg><svg viewBox="0 0 4 4" x="1199" y="515" width="57" height="57" shape-rendering="auto"><path d="M0 0h4v4H0z"/></svg><svg viewBox="0 0 4 4" x="1256" y="515" width="57" height="57" shape-rendering="auto"><path d="M3.15 4A.85.85 0 0 0 4 3.15V4Z"/></svg><svg viewBox="0 0 4 4" x="1256" y="515" width="57" height="57" shape-rendering="auto"><path d="M.85 4A.85.85 0 0 1 0 3.15V4Z"/></svg><svg viewBox="0 0 4 4" x="1313" y="515" width="57" height="57" shape-rendering="auto"><path d="M0 0h4v4H0z"/></svg><svg viewBox="0 0 4 4" x="629" y="572" width="57" height="57" shape-rendering="auto"><path d="M0 0h4v4H0z"/></svg><svg viewBox="0 0 4 4" x="686" y="572" width="57" height="57" shape-rendering="auto"><path d="M0 0h4v4H0z"/></svg><svg viewBox="0 0 4 4" x="743" y="572" width="57" height="57" shape-rendering="auto"><path d="M0 0h4v4H0z"/></svg><svg viewBox="0 0 4 4" x="800" y="572" width="57" height="57" shape-rendering="auto"><path d="M.85 4A.85.85 0 0 1 0 3.15V4Z"/></svg><svg viewBox="0 0 4 4" x="914" y="572" width="57" height="57" shape-rendering="auto"><path d="M4 3.15V.85A.85.85 0 0 0 3.15 0H.85A.85.85 0 0 0 0 .85V4h4Z"/></svg><svg viewBox="0 0 4 4" x="1028" y="572" width="57" height="57" shape-rendering="auto"><path d="M3.15 0H.85A.85.85 0 0 0 0 .85v2.3A.85.85 0 0 0 .85 4H4V0Z"/></svg><svg viewBox="0 0 4 4" x="1085" y="572" width="57" height="57" shape-rendering="auto"><path d="M0 0h4v4H0z"/></svg><svg viewBox="0 0 4 4" x="1199" y="572" width="57" height="57" shape-rendering="auto"><path d="M0 0h4v4H0z"/></svg><svg viewBox="0 0 4 4" x="1256" y="572" width="57" height="57" shape-rendering="auto"><path d="M0 0h4v4H0z"/></svg><svg viewBox="0 0 4 4" x="1313" y="572" width="57" height="57" shape-rendering="auto"><path d="M0 0h4v4H0z"/></svg><svg viewBox="0 0 4 4" x="1370" y="572" width="57" height="57" shape-rendering="auto"><path d="M.85 4A.85.85 0 0 1 0 3.15V4Z"/></svg><svg viewBox="0 0 4 4" x="287" y="629" width="57" height="57" shape-rendering="auto"><path d="M.85 0A.85.85 0 0 0 0 .85V4h4V0H.85Z"/></svg><svg viewBox="0 0 4 4" x="344" y="629" width="57" height="57" shape-rendering="auto"><path d="M0 0h4v4H0z"/></svg><svg viewBox="0 0 4 4" x="401" y="629" width="57" height="57" shape-rendering="auto"><path d="M3.15 0A.85.85 0 0 1 4 .85V4H0V0h3.15Z"/></svg><svg viewBox="0 0 4 4" x="458" y="629" width="57" height="57" shape-rendering="auto"><path d="M.85 4A.85.85 0 0 1 0 3.15V4Z"/></svg><svg viewBox="0 0 4 4" x="515" y="629" width="57" height="57" shape-rendering="auto"><rect width="4" height="4" rx=".85"/></svg><svg viewBox="0 0 4 4" x="572" y="629" width="57" height="57" shape-rendering="auto"><path d="M3.15 4A.85.85 0 0 0 4 3.15V4Z"/></svg><svg viewBox="0 0 4 4" x="629" y="629" width="57" height="57" shape-rendering="auto"><path d="M0 0h4v4H0z"/></svg><svg viewBox="0 0 4 4" x="686" y="629" width="57" height="57" shape-rendering="auto"><path d="M.85 0H0v.85A.85.85 0 0 1 .85 0Z"/></svg><svg viewBox="0 0 4 4" x="686" y="629" width="57" height="57" shape-rendering="auto"><path d="M4 .85V0h-.85A.85.85 0 0 1 4 .85Z"/></svg><svg viewBox="0 0 4 4" x="743" y="629" width="57" height="57" shape-rendering="auto"><path d="M0 0h4v4H0z"/></svg><svg viewBox="0 0 4 4" x="800" y="629" width="57" height="57" shape-rendering="auto"><path d="M3.15 0A.85.85 0 0 1 4 .85V4H0V0h3.15Z"/></svg><svg viewBox="0 0 4 4" x="914" y="629" width="57" height="57" shape-rendering="auto"><path d="M0 0h4v4H0z"/></svg><svg viewBox="0 0 4 4" x="971" y="629" width="57" height="57" shape-rendering="auto"><path d="M.85 4A.85.85 0 0 1 0 3.15V4Z"/></svg><svg viewBox="0 0 4 4" x="1028" y="629" width="57" height="57" shape-rendering="auto"><path d="M4 .85V0h-.85A.85.85 0 0 1 4 .85Z"/></svg><svg viewBox="0 0 4 4" x="1085" y="629" width="57" height="57" shape-rendering="auto"><path d="M0 3.15A.85.85 0 0 0 .85 4h2.3A.85.85 0 0 0 4 3.15V0H0v3.15Z"/></svg><svg viewBox="0 0 4 4" x="1142" y="629" width="57" height="57" shape-rendering="auto"><path d="M3.15 4A.85.85 0 0 0 4 3.15V4Z"/></svg><svg viewBox="0 0 4 4" x="1199" y="629" width="57" height="57" shape-rendering="auto"><path d="M0 0h4v4H0z"/></svg><svg viewBox="0 0 4 4" x="1256" y="629" width="57" height="57" shape-rendering="auto"><path d="M.85 0H0v.85A.85.85 0 0 1 .85 0Z"/></svg><svg viewBox="0 0 4 4" x="1256" y="629" width="57" height="57" shape-rendering="auto"><path d="M4 .85V0h-.85A.85.85 0 0 1 4 .85Z"/></svg><svg viewBox="0 0 4 4" x="1313" y="629" width="57" height="57" shape-rendering="auto"><path d="M0 0h4v4H0z"/></svg><svg viewBox="0 0 4 4" x="1370" y="629" width="57" height="57" shape-rendering="auto"><path d="M0 0h4v4H0z"/></svg><svg viewBox="0 0 4 4" x="1427" y="629" width="57" height="57" shape-rendering="auto"><path d="M0 0h4v4H0z"/></svg><svg viewBox="0 0 4 4" x="1484" y="629" width="57" height="57" shape-rendering="auto"><path d="M.85 4h2.3A.85.85 0 0 0 4 3.15V.85A.85.85 0 0 0 3.15 0H0v4Z"/></svg><svg viewBox="0 0 4 4" x="1655" y="629" width="57" height="57" shape-rendering="auto"><path d="M3.15 0H.85A.85.85 0 0 0 0 .85v2.3A.85.85 0 0 0 .85 4H4V0Z"/></svg><svg viewBox="0 0 4 4" x="1712" y="629" width="57" height="57" shape-rendering="auto"><path d="M0 0h4v4H0z"/></svg><svg viewBox="0 0 4 4" x="1769" y="629" width="57" height="57" shape-rendering="auto"><path d="M3.15 0A.85.85 0 0 1 4 .85V4H0V0h3.15Z"/></svg><svg viewBox="0 0 4 4" x="173" y="686" width="57" height="57" shape-rendering="auto"><rect width="4" height="4" rx=".85"/></svg><svg viewBox="0 0 4 4" x="287" y="686" width="57" height="57" shape-rendering="auto"><path d="M0 3.15A.85.85 0 0 0 .85 4H4V0H0v3.15Z"/></svg><svg viewBox="0 0 4 4" x="344" y="686" width="57" height="57" shape-rendering="auto"><path d="M0 0h4v4H0z"/></svg><svg viewBox="0 0 4 4" x="401" y="686" width="57" height="57" shape-rendering="auto"><path d="M0 0h4v4H0z"/></svg><svg viewBox="0 0 4 4" x="458" y="686" width="57" height="57" shape-rendering="auto"><path d="M3.15 0A.85.85 0 0 1 4 .85V4H0V0h3.15Z"/></svg><svg viewBox="0 0 4 4" x="515" y="686" width="57" height="57" shape-rendering="auto"><path d="M3.15 4A.85.85 0 0 0 4 3.15V4Z"/></svg><svg viewBox="0 0 4 4" x="515" y="686" width="57" height="57" shape-rendering="auto"><path d="M.85 4A.85.85 0 0 1 0 3.15V4Z"/></svg><svg viewBox="0 0 4 4" x="572" y="686" width="57" height="57" shape-rendering="auto"><path d="M.85 0A.85.85 0 0 0 0 .85V4h4V0H.85Z"/></svg><svg viewBox="0 0 4 4" x="629" y="686" width="57" height="57" shape-rendering="auto"><path d="M0 0h4v4H0z"/></svg><svg viewBox="0 0 4 4" x="743" y="686" width="57" height="57" shape-rendering="auto"><path d="M0 3.15A.85.85 0 0 0 .85 4H4V0H0v3.15Z"/></svg><svg viewBox="0 0 4 4" x="800" y="686" width="57" height="57" shape-rendering="auto"><path d="M4 3.15a.85.85 0 0 1-.85.85H0V0h4v3.15Z"/></svg><svg viewBox="0 0 4 4" x="914" y="686" width="57" height="57" shape-rendering="auto"><path d="M0 3.15A.85.85 0 0 0 .85 4H4V0H0v3.15Z"/></svg><svg viewBox="0 0 4 4" x="971" y="686" width="57" height="57" shape-rendering="auto"><path d="M0 0h4v4H0z"/></svg><svg viewBox="0 0 4 4" x="1028" y="686" width="57" height="57" shape-rendering="auto"><path d="M.85 4h2.3A.85.85 0 0 0 4 3.15V.85A.85.85 0 0 0 3.15 0H0v4Z"/></svg><svg viewBox="0 0 4 4" x="1142" y="686" width="57" height="57" shape-rendering="auto"><path d="M3.15 0H.85A.85.85 0 0 0 0 .85v2.3A.85.85 0 0 0 .85 4H4V0Z"/></svg><svg viewBox="0 0 4 4" x="1199" y="686" width="57" height="57" shape-rendering="auto"><path d="M4 3.15a.85.85 0 0 1-.85.85H0V0h4v3.15Z"/></svg><svg viewBox="0 0 4 4" x="1313" y="686" width="57" height="57" shape-rendering="auto"><path d="M0 3.15A.85.85 0 0 0 .85 4H4V0H0v3.15Z"/></svg><svg viewBox="0 0 4 4" x="1370" y="686" width="57" height="57" shape-rendering="auto"><path d="M0 0h4v4H0z"/></svg><svg viewBox="0 0 4 4" x="1427" y="686" width="57" height="57" shape-rendering="auto"><path d="M4 3.15a.85.85 0 0 1-.85.85H0V0h4v3.15Z"/></svg><svg viewBox="0 0 4 4" x="1484" y="686" width="57" height="57" shape-rendering="auto"><path d="M.85 0H0v.85A.85.85 0 0 1 .85 0Z"/></svg><svg viewBox="0 0 4 4" x="1541" y="686" width="57" height="57" shape-rendering="auto"><rect width="4" height="4" rx=".85"/></svg><svg viewBox="0 0 4 4" x="1655" y="686" width="57" height="57" shape-rendering="auto"><path d="M4 .85V0h-.85A.85.85 0 0 1 4 .85Z"/></svg><svg viewBox="0 0 4 4" x="1712" y="686" width="57" height="57" shape-rendering="auto"><path d="M0 3.15A.85.85 0 0 0 .85 4H4V0H0v3.15Z"/></svg><svg viewBox="0 0 4 4" x="1769" y="686" width="57" height="57" shape-rendering="auto"><path d="M4 3.15a.85.85 0 0 1-.85.85H0V0h4v3.15Z"/></svg><svg viewBox="0 0 4 4" x="230" y="743" width="57" height="57" shape-rendering="auto"><rect width="4" height="4" rx=".85"/></svg><svg viewBox="0 0 4 4" x="287" y="743" width="57" height="57" shape-rendering="auto"><path d="M4 .85V0h-.85A.85.85 0 0 1 4 .85Z"/></svg><svg viewBox="0 0 4 4" x="344" y="743" width="57" height="57" shape-rendering="auto"><path d="M0 3.15A.85.85 0 0 0 .85 4H4V0H0v3.15Z"/></svg><svg viewBox="0 0 4 4" x="401" y="743" width="57" height="57" shape-rendering="auto"><path d="M0 0h4v4H0z"/></svg><svg viewBox="0 0 4 4" x="458" y="743" width="57" height="57" shape-rendering="auto"><path d="M0 0h4v4H0z"/></svg><svg viewBox="0 0 4 4" x="515" y="743" width="57" height="57" shape-rendering="auto"><path d="M0 0h4v4H0z"/></svg><svg viewBox="0 0 4 4" x="572" y="743" width="57" height="57" shape-rendering="auto"><path d="M0 0h4v4H0z"/></svg><svg viewBox="0 0 4 4" x="629" y="743" width="57" height="57" shape-rendering="auto"><path d="M4 3.15a.85.85 0 0 1-.85.85H0V0h4v3.15Z"/></svg><svg viewBox="0 0 4 4" x="1598" y="743" width="57" height="57" shape-rendering="auto"><path d="M3.15 4A.85.85 0 0 0 4 3.15V4Z"/></svg><svg viewBox="0 0 4 4" x="1655" y="743" width="57" height="57" shape-rendering="auto"><path d="M4 3.15V.85A.85.85 0 0 0 3.15 0H.85A.85.85 0 0 0 0 .85V4h4Z"/></svg><svg viewBox="0 0 4 4" x="287" y="800" width="57" height="57" shape-rendering="auto"><rect width="4" height="4" rx=".85"/></svg><svg viewBox="0 0 4 4" x="344" y="800" width="57" height="57" shape-rendering="auto"><path d="M4 .85V0h-.85A.85.85 0 0 1 4 .85Z"/></svg><svg viewBox="0 0 4 4" x="401" y="800" width="57" height="57" shape-rendering="auto"><path d="M0 3.15A.85.85 0 0 0 .85 4H4V0H0v3.15Z"/></svg><svg viewBox="0 0 4 4" x="458" y="800" width="57" height="57" shape-rendering="auto"><path d="M0 0h4v4H0z"/></svg><svg viewBox="0 0 4 4" x="515" y="800" width="57" height="57" shape-rendering="auto"><path d="M.85 0H0v.85A.85.85 0 0 1 .85 0Z"/></svg><svg viewBox="0 0 4 4" x="515" y="800" width="57" height="57" shape-rendering="auto"><path d="M.85 4A.85.85 0 0 1 0 3.15V4Z"/></svg><svg viewBox="0 0 4 4" x="686" y="800" width="57" height="57" shape-rendering="auto"><rect width="4" height="4" rx=".85"/></svg><svg viewBox="0 0 4 4" x="1256" y="800" width="57" height="57" shape-rendering="auto"><path d="M3.15 0H.85A.85.85 0 0 0 0 .85v2.3A.85.85 0 0 0 .85 4H4V0Z"/></svg><svg viewBox="0 0 4 4" x="1313" y="800" width="57" height="57" shape-rendering="auto"><path d="M3.15 0A.85.85 0 0 1 4 .85V4H0V0h3.15Z"/></svg><svg viewBox="0 0 4 4" x="1370" y="800" width="57" height="57" shape-rendering="auto"><path d="M.85 4A.85.85 0 0 1 0 3.15V4Z"/></svg><svg viewBox="0 0 4 4" x="1427" y="800" width="57" height="57" shape-rendering="auto"><path d="M3.15 0H.85A.85.85 0 0 0 0 .85v2.3A.85.85 0 0 0 .85 4H4V0Z"/></svg><svg viewBox="0 0 4 4" x="1484" y="800" width="57" height="57" shape-rendering="auto"><path d="M0 0h4v4H0z"/></svg><svg viewBox="0 0 4 4" x="1541" y="800" width="57" height="57" shape-rendering="auto"><path d="M0 0h4v4H0z"/></svg><svg viewBox="0 0 4 4" x="1598" y="800" width="57" height="57" shape-rendering="auto"><path d="M0 0h4v4H0z"/></svg><svg viewBox="0 0 4 4" x="1655" y="800" width="57" height="57" shape-rendering="auto"><path d="M0 0h4v4H0z"/></svg><svg viewBox="0 0 4 4" x="1712" y="800" width="57" height="57" shape-rendering="auto"><path d="M.85 4A.85.85 0 0 1 0 3.15V4Z"/></svg><svg viewBox="0 0 4 4" x="173" y="857" width="57" height="57" shape-rendering="auto"><path d="M3.15 0H.85A.85.85 0 0 0 0 .85v2.3A.85.85 0 0 0 .85 4H4V0Z"/></svg><svg viewBox="0 0 4 4" x="230" y="857" width="57" height="57" shape-rendering="auto"><path d="M.85 4h2.3A.85.85 0 0 0 4 3.15V.85A.85.85 0 0 0 3.15 0H0v4Z"/></svg><svg viewBox="0 0 4 4" x="401" y="857" width="57" height="57" shape-rendering="auto"><path d="M4 .85V0h-.85A.85.85 0 0 1 4 .85Z"/></svg><svg viewBox="0 0 4 4" x="458" y="857" width="57" height="57" shape-rendering="auto"><path d="M0 3.15A.85.85 0 0 0 .85 4H4V0H0v3.15Z"/></svg><svg viewBox="0 0 4 4" x="515" y="857" width="57" height="57" shape-rendering="auto"><path d="M0 0h4v4H0z"/></svg><svg viewBox="0 0 4 4" x="572" y="857" width="57" height="57" shape-rendering="auto"><path d="M3.15 0A.85.85 0 0 1 4 .85V4H0V0h3.15Z"/></svg><svg viewBox="0 0 4 4" x="629" y="857" width="57" height="57" shape-rendering="auto"><path d="M.85 4A.85.85 0 0 1 0 3.15V4Z"/></svg><svg viewBox="0 0 4 4" x="1256" y="857" width="57" height="57" shape-rendering="auto"><path d="M4 .85V0h-.85A.85.85 0 0 1 4 .85Z"/></svg><svg viewBox="0 0 4 4" x="1256" y="857" width="57" height="57" shape-rendering="auto"><path d="M3.15 4A.85.85 0 0 0 4 3.15V4Z"/></svg><svg viewBox="0 0 4 4" x="1313" y="857" width="57" height="57" shape-rendering="auto"><path d="M0 0h4v4H0z"/></svg><svg viewBox="0 0 4 4" x="1370" y="857" width="57" height="57" shape-rendering="auto"><path d="M.85 4h2.3A.85.85 0 0 0 4 3.15V.85A.85.85 0 0 0 3.15 0H0v4Z"/></svg><svg viewBox="0 0 4 4" x="1484" y="857" width="57" height="57" shape-rendering="auto"><path d="M4 .85V0h-.85A.85.85 0 0 1 4 .85Z"/></svg><svg viewBox="0 0 4 4" x="1541" y="857" width="57" height="57" shape-rendering="auto"><path d="M0 0h4v4H0z"/></svg><svg viewBox="0 0 4 4" x="1598" y="857" width="57" height="57" shape-rendering="auto"><path d="M.85 0H0v.85A.85.85 0 0 1 .85 0Z"/></svg><svg viewBox="0 0 4 4" x="1598" y="857" width="57" height="57" shape-rendering="auto"><path d="M4 .85V0h-.85A.85.85 0 0 1 4 .85Z"/></svg><svg viewBox="0 0 4 4" x="1598" y="857" width="57" height="57" shape-rendering="auto"><path d="M.85 4A.85.85 0 0 1 0 3.15V4Z"/></svg><svg viewBox="0 0 4 4" x="1655" y="857" width="57" height="57" shape-rendering="auto"><path d="M0 3.15A.85.85 0 0 0 .85 4H4V0H0v3.15Z"/></svg><svg viewBox="0 0 4 4" x="1712" y="857" width="57" height="57" shape-rendering="auto"><path d="M.85 4h2.3A.85.85 0 0 0 4 3.15V.85A.85.85 0 0 0 3.15 0H0v4Z"/></svg><svg viewBox="0 0 4 4" x="515" y="914" width="57" height="57" shape-rendering="auto"><path d="M4 .85V0h-.85A.85.85 0 0 1 4 .85Z"/></svg><svg viewBox="0 0 4 4" x="515" y="914" width="57" height="57" shape-rendering="auto"><path d="M3.15 4A.85.85 0 0 0 4 3.15V4Z"/></svg><svg viewBox="0 0 4 4" x="572" y="914" width="57" height="57" shape-rendering="auto"><path d="M0 0h4v4H0z"/></svg><svg viewBox="0 0 4 4" x="629" y="914" width="57" height="57" shape-rendering="auto"><path d="M3.15 0A.85.85 0 0 1 4 .85V4H0V0h3.15Z"/></svg><svg viewBox="0 0 4 4" x="1256" y="914" width="57" height="57" shape-rendering="auto"><path d="M.85 0A.85.85 0 0 0 0 .85V4h4V0H.85Z"/></svg><svg viewBox="0 0 4 4" x="1313" y="914" width="57" height="57" shape-rendering="auto"><path d="M4 3.15a.85.85 0 0 1-.85.85H0V0h4v3.15Z"/></svg><svg viewBox="0 0 4 4" x="1370" y="914" width="57" height="57" shape-rendering="auto"><path d="M.85 0H0v.85A.85.85 0 0 1 .85 0Z"/></svg><svg viewBox="0 0 4 4" x="1427" y="914" width="57" height="57" shape-rendering="auto"><rect width="4" height="4" rx=".85"/></svg><svg viewBox="0 0 4 4" x="1541" y="914" width="57" height="57" shape-rendering="auto"><path d="M0 3.15A.85.85 0 0 0 .85 4H4V0H0v3.15Z"/></svg><svg viewBox="0 0 4 4" x="1598" y="914" width="57" height="57" shape-rendering="auto"><path d="M.85 4h2.3A.85.85 0 0 0 4 3.15V.85A.85.85 0 0 0 3.15 0H0v4Z"/></svg><svg viewBox="0 0 4 4" x="1769" y="914" width="57" height="57" shape-rendering="auto"><path d="M4 3.15V.85A.85.85 0 0 0 3.15 0H.85A.85.85 0 0 0 0 .85V4h4Z"/></svg><svg viewBox="0 0 4 4" x="344" y="971" width="57" height="57" shape-rendering="auto"><rect width="4" height="4" rx=".85"/></svg><svg viewBox="0 0 4 4" x="515" y="971" width="57" height="57" shape-rendering="auto"><path d="M3.15 0H.85A.85.85 0 0 0 0 .85v2.3A.85.85 0 0 0 .85 4H4V0Z"/></svg><svg viewBox="0 0 4 4" x="572" y="971" width="57" height="57" shape-rendering="auto"><path d="M0 0h4v4H0z"/></svg><svg viewBox="0 0 4 4" x="629" y="971" width="57" height="57" shape-rendering="auto"><path d="M4 3.15a.85.85 0 0 1-.85.85H0V0h4v3.15Z"/></svg><svg viewBox="0 0 4 4" x="1256" y="971" width="57" height="57" shape-rendering="auto"><path d="M0 0h4v4H0z"/></svg><svg viewBox="0 0 4 4" x="1313" y="971" width="57" height="57" shape-rendering="auto"><path d="M.85 0H0v.85A.85.85 0 0 1 .85 0Z"/></svg><svg viewBox="0 0 4 4" x="1427" y="971" width="57" height="57" shape-rendering="auto"><path d="M3.15 4A.85.85 0 0 0 4 3.15V4Z"/></svg><svg viewBox="0 0 4 4" x="1484" y="971" width="57" height="57" shape-rendering="auto"><path d="M4 3.15V.85A.85.85 0 0 0 3.15 0H.85A.85.85 0 0 0 0 .85V4h4Z"/></svg><svg viewBox="0 0 4 4" x="1541" y="971" width="57" height="57" shape-rendering="auto"><path d="M.85 4A.85.85 0 0 1 0 3.15V4Z"/></svg><svg viewBox="0 0 4 4" x="1655" y="971" width="57" height="57" shape-rendering="auto"><path d="M4 3.15V.85A.85.85 0 0 0 3.15 0H.85A.85.85 0 0 0 0 .85V4h4Z"/></svg><svg viewBox="0 0 4 4" x="1712" y="971" width="57" height="57" shape-rendering="auto"><path d="M3.15 4A.85.85 0 0 0 4 3.15V4Z"/></svg><svg viewBox="0 0 4 4" x="1712" y="971" width="57" height="57" shape-rendering="auto"><path d="M.85 4A.85.85 0 0 1 0 3.15V4Z"/></svg><svg viewBox="0 0 4 4" x="1769" y="971" width="57" height="57" shape-rendering="auto"><path d="M0 0h4v4H0z"/></svg><svg viewBox="0 0 4 4" x="287" y="1028" width="57" height="57" shape-rendering="auto"><rect width="4" height="4" rx=".85"/></svg><svg viewBox="0 0 4 4" x="344" y="1028" width="57" height="57" shape-rendering="auto"><path d="M3.15 4A.85.85 0 0 0 4 3.15V4Z"/></svg><svg viewBox="0 0 4 4" x="401" y="1028" width="57" height="57" shape-rendering="auto"><path d="M.85 0A.85.85 0 0 0 0 .85V4h4V0H.85Z"/></svg><svg viewBox="0 0 4 4" x="458" y="1028" width="57" height="57" shape-rendering="auto"><path d="M.85 4h2.3A.85.85 0 0 0 4 3.15V.85A.85.85 0 0 0 3.15 0H0v4Z"/></svg><svg viewBox="0 0 4 4" x="515" y="1028" width="57" height="57" shape-rendering="auto"><path d="M4 .85V0h-.85A.85.85 0 0 1 4 .85Z"/></svg><svg viewBox="0 0 4 4" x="515" y="1028" width="57" height="57" shape-rendering="auto"><path d="M3.15 4A.85.85 0 0 0 4 3.15V4Z"/></svg><svg viewBox="0 0 4 4" x="572" y="1028" width="57" height="57" shape-rendering="auto"><path d="M0 0h4v4H0z"/></svg><svg viewBox="0 0 4 4" x="629" y="1028" width="57" height="57" shape-rendering="auto"><path d="M.85 0H0v.85A.85.85 0 0 1 .85 0Z"/></svg><svg viewBox="0 0 4 4" x="1256" y="1028" width="57" height="57" shape-rendering="auto"><path d="M0 3.15A.85.85 0 0 0 .85 4h2.3A.85.85 0 0 0 4 3.15V0H0v3.15Z"/></svg><svg viewBox="0 0 4 4" x="1370" y="1028" width="57" height="57" shape-rendering="auto"><path d="M3.15 0H.85A.85.85 0 0 0 0 .85v2.3A.85.85 0 0 0 .85 4H4V0Z"/></svg><svg viewBox="0 0 4 4" x="1427" y="1028" width="57" height="57" shape-rendering="auto"><path d="M0 0h4v4H0z"/></svg><svg viewBox="0 0 4 4" x="1484" y="1028" width="57" height="57" shape-rendering="auto"><path d="M0 0h4v4H0z"/></svg><svg viewBox="0 0 4 4" x="1541" y="1028" width="57" height="57" shape-rendering="auto"><path d="M.85 4h2.3A.85.85 0 0 0 4 3.15V.85A.85.85 0 0 0 3.15 0H0v4Z"/></svg><svg viewBox="0 0 4 4" x="1655" y="1028" width="57" height="57" shape-rendering="auto"><path d="M0 3.15A.85.85 0 0 0 .85 4H4V0H0v3.15Z"/></svg><svg viewBox="0 0 4 4" x="1712" y="1028" width="57" height="57" shape-rendering="auto"><path d="M0 0h4v4H0z"/></svg><svg viewBox="0 0 4 4" x="1769" y="1028" width="57" height="57" shape-rendering="auto"><path d="M4 3.15a.85.85 0 0 1-.85.85H0V0h4v3.15Z"/></svg><svg viewBox="0 0 4 4" x="173" y="1085" width="57" height="57" shape-rendering="auto"><path d="M4 3.15V.85A.85.85 0 0 0 3.15 0H.85A.85.85 0 0 0 0 .85V4h4Z"/></svg><svg viewBox="0 0 4 4" x="344" y="1085" width="57" height="57" shape-rendering="auto"><path d="M.85 0A.85.85 0 0 0 0 .85V4h4V0H.85Z"/></svg><svg viewBox="0 0 4 4" x="401" y="1085" width="57" height="57" shape-rendering="auto"><path d="M4 3.15a.85.85 0 0 1-.85.85H0V0h4v3.15Z"/></svg><svg viewBox="0 0 4 4" x="458" y="1085" width="57" height="57" shape-rendering="auto"><path d="M.85 0H0v.85A.85.85 0 0 1 .85 0Z"/></svg><svg viewBox="0 0 4 4" x="515" y="1085" width="57" height="57" shape-rendering="auto"><path d="M3.15 0H.85A.85.85 0 0 0 0 .85v2.3A.85.85 0 0 0 .85 4H4V0Z"/></svg><svg viewBox="0 0 4 4" x="572" y="1085" width="57" height="57" shape-rendering="auto"><path d="M4 3.15a.85.85 0 0 1-.85.85H0V0h4v3.15Z"/></svg><svg viewBox="0 0 4 4" x="629" y="1085" width="57" height="57" shape-rendering="auto"><path d="M3.15 4A.85.85 0 0 0 4 3.15V4Z"/></svg><svg viewBox="0 0 4 4" x="686" y="1085" width="57" height="57" shape-rendering="auto"><path d="M4 3.15V.85A.85.85 0 0 0 3.15 0H.85A.85.85 0 0 0 0 .85V4h4Z"/></svg><svg viewBox="0 0 4 4" x="1427" y="1085" width="57" height="57" shape-rendering="auto"><path d="M4 .85V0h-.85A.85.85 0 0 1 4 .85Z"/></svg><svg viewBox="0 0 4 4" x="1484" y="1085" width="57" height="57" shape-rendering="auto"><path d="M0 0h4v4H0z"/></svg><svg viewBox="0 0 4 4" x="1541" y="1085" width="57" height="57" shape-rendering="auto"><path d="M.85 0H0v.85A.85.85 0 0 1 .85 0Z"/></svg><svg viewBox="0 0 4 4" x="173" y="1142" width="57" height="57" shape-rendering="auto"><path d="M0 0h4v4H0z"/></svg><svg viewBox="0 0 4 4" x="344" y="1142" width="57" height="57" shape-rendering="auto"><path d="M0 0h4v4H0z"/></svg><svg viewBox="0 0 4 4" x="401" y="1142" width="57" height="57" shape-rendering="auto"><path d="M.85 0H0v.85A.85.85 0 0 1 .85 0Z"/></svg><svg viewBox="0 0 4 4" x="401" y="1142" width="57" height="57" shape-rendering="auto"><path d="M.85 4A.85.85 0 0 1 0 3.15V4Z"/></svg><svg viewBox="0 0 4 4" x="629" y="1142" width="57" height="57" shape-rendering="auto"><path d="M.85 0A.85.85 0 0 0 0 .85V4h4V0H.85Z"/></svg><svg viewBox="0 0 4 4" x="686" y="1142" width="57" height="57" shape-rendering="auto"><path d="M0 0h4v4H0z"/></svg><svg viewBox="0 0 4 4" x="1256" y="1142" width="57" height="57" shape-rendering="auto"><path d="M4 3.15V.85A.85.85 0 0 0 3.15 0H.85A.85.85 0 0 0 0 .85V4h4Z"/></svg><svg viewBox="0 0 4 4" x="1370" y="1142" width="57" height="57" shape-rendering="auto"><path d="M4 3.15V.85A.85.85 0 0 0 3.15 0H.85A.85.85 0 0 0 0 .85V4h4Z"/></svg><svg viewBox="0 0 4 4" x="1484" y="1142" width="57" height="57" shape-rendering="auto"><path d="M0 3.15A.85.85 0 0 0 .85 4h2.3A.85.85 0 0 0 4 3.15V0H0v3.15Z"/></svg><svg viewBox="0 0 4 4" x="1598" y="1142" width="57" height="57" shape-rendering="auto"><rect width="4" height="4" rx=".85"/></svg><svg viewBox="0 0 4 4" x="1712" y="1142" width="57" height="57" shape-rendering="auto"><rect width="4" height="4" rx=".85"/></svg><svg viewBox="0 0 4 4" x="173" y="1199" width="57" height="57" shape-rendering="auto"><path d="M0 0h4v4H0z"/></svg><svg viewBox="0 0 4 4" x="344" y="1199" width="57" height="57" shape-rendering="auto"><path d="M0 3.15A.85.85 0 0 0 .85 4H4V0H0v3.15Z"/></svg><svg viewBox="0 0 4 4" x="401" y="1199" width="57" height="57" shape-rendering="auto"><path d="M.85 4h2.3A.85.85 0 0 0 4 3.15V.85A.85.85 0 0 0 3.15 0H0v4Z"/></svg><svg viewBox="0 0 4 4" x="515" y="1199" width="57" height="57" shape-rendering="auto"><rect width="4" height="4" rx=".85"/></svg><svg viewBox="0 0 4 4" x="629" y="1199" width="57" height="57" shape-rendering="auto"><path d="M0 3.15A.85.85 0 0 0 .85 4H4V0H0v3.15Z"/></svg><svg viewBox="0 0 4 4" x="686" y="1199" width="57" height="57" shape-rendering="auto"><path d="M4 3.15a.85.85 0 0 1-.85.85H0V0h4v3.15Z"/></svg><svg viewBox="0 0 4 4" x="1256" y="1199" width="57" height="57" shape-rendering="auto"><path d="M0 3.15A.85.85 0 0 0 .85 4h2.3A.85.85 0 0 0 4 3.15V0H0v3.15Z"/></svg><svg viewBox="0 0 4 4" x="1370" y="1199" width="57" height="57" shape-rendering="auto"><path d="M0 3.15A.85.85 0 0 0 .85 4h2.3A.85.85 0 0 0 4 3.15V0H0v3.15Z"/></svg><svg viewBox="0 0 4 4" x="1655" y="1199" width="57" height="57" shape-rendering="auto"><rect width="4" height="4" rx=".85"/></svg><svg viewBox="0 0 4 4" x="173" y="1256" width="57" height="57" shape-rendering="auto"><path d="M0 0h4v4H0z"/></svg><svg viewBox="0 0 4 4" x="458" y="1256" width="57" height="57" shape-rendering="auto"><rect width="4" height="4" rx=".85"/></svg><svg viewBox="0 0 4 4" x="857" y="1256" width="57" height="57" shape-rendering="auto"><path d="M3.15 4A.85.85 0 0 0 4 3.15V4Z"/></svg><svg viewBox="0 0 4 4" x="914" y="1256" width="57" height="57" shape-rendering="auto"><path d="M4 3.15V.85A.85.85 0 0 0 3.15 0H.85A.85.85 0 0 0 0 .85V4h4Z"/></svg><svg viewBox="0 0 4 4" x="1028" y="1256" width="57" height="57" shape-rendering="auto"><path d="M.85 0A.85.85 0 0 0 0 .85V4h4V0H.85Z"/></svg><svg viewBox="0 0 4 4" x="1085" y="1256" width="57" height="57" shape-rendering="auto"><path d="M0 0h4v4H0z"/></svg><svg viewBox="0 0 4 4" x="1142" y="1256" width="57" height="57" shape-rendering="auto"><path d="M.85 4h2.3A.85.85 0 0 0 4 3.15V.85A.85.85 0 0 0 3.15 0H0v4Z"/></svg><svg viewBox="0 0 4 4" x="1313" y="1256" width="57" height="57" shape-rendering="auto"><path d="M4 3.15V.85A.85.85 0 0 0 3.15 0H.85A.85.85 0 0 0 0 .85V4h4Z"/></svg><svg viewBox="0 0 4 4" x="1370" y="1256" width="57" height="57" shape-rendering="auto"><path d="M3.15 4A.85.85 0 0 0 4 3.15V4Z"/></svg><svg viewBox="0 0 4 4" x="1370" y="1256" width="57" height="57" shape-rendering="auto"><path d="M.85 4A.85.85 0 0 1 0 3.15V4Z"/></svg><svg viewBox="0 0 4 4" x="1427" y="1256" width="57" height="57" shape-rendering="auto"><path d="M4 3.15V.85A.85.85 0 0 0 3.15 0H.85A.85.85 0 0 0 0 .85V4h4Z"/></svg><svg viewBox="0 0 4 4" x="1484" y="1256" width="57" height="57" shape-rendering="auto"><path d="M3.15 4A.85.85 0 0 0 4 3.15V4Z"/></svg><svg viewBox="0 0 4 4" x="1484" y="1256" width="57" height="57" shape-rendering="auto"><path d="M.85 4A.85.85 0 0 1 0 3.15V4Z"/></svg><svg viewBox="0 0 4 4" x="1541" y="1256" width="57" height="57" shape-rendering="auto"><path d="M.85 0A.85.85 0 0 0 0 .85V4h4V0H.85Z"/></svg><svg viewBox="0 0 4 4" x="1598" y="1256" width="57" height="57" shape-rendering="auto"><path d="M.85 4h2.3A.85.85 0 0 0 4 3.15V.85A.85.85 0 0 0 3.15 0H0v4Z"/></svg><svg viewBox="0 0 4 4" x="1712" y="1256" width="57" height="57" shape-rendering="auto"><path d="M.85 0A.85.85 0 0 0 0 .85V4h4V0H.85Z"/></svg><svg viewBox="0 0 4 4" x="1769" y="1256" width="57" height="57" shape-rendering="auto"><path d="M3.15 0A.85.85 0 0 1 4 .85V4H0V0h3.15Z"/></svg><svg viewBox="0 0 4 4" x="173" y="1313" width="57" height="57" shape-rendering="auto"><path d="M0 3.15A.85.85 0 0 0 .85 4h2.3A.85.85 0 0 0 4 3.15V0H0v3.15Z"/></svg><svg viewBox="0 0 4 4" x="287" y="1313" width="57" height="57" shape-rendering="auto"><path d="M3.15 0H.85A.85.85 0 0 0 0 .85v2.3A.85.85 0 0 0 .85 4H4V0Z"/></svg><svg viewBox="0 0 4 4" x="344" y="1313" width="57" height="57" shape-rendering="auto"><path d="M.85 4h2.3A.85.85 0 0 0 4 3.15V.85A.85.85 0 0 0 3.15 0H0v4Z"/></svg><svg viewBox="0 0 4 4" x="515" y="1313" width="57" height="57" shape-rendering="auto"><path d="M3.15 0H.85A.85.85 0 0 0 0 .85v2.3A.85.85 0 0 0 .85 4H4V0Z"/></svg><svg viewBox="0 0 4 4" x="572" y="1313" width="57" height="57" shape-rendering="auto"><path d="M.85 4h2.3A.85.85 0 0 0 4 3.15V.85A.85.85 0 0 0 3.15 0H0v4Z"/></svg><svg viewBox="0 0 4 4" x="800" y="1313" width="57" height="57" shape-rendering="auto"><path d="M3.15 0H.85A.85.85 0 0 0 0 .85v2.3A.85.85 0 0 0 .85 4H4V0Z"/></svg><svg viewBox="0 0 4 4" x="857" y="1313" width="57" height="57" shape-rendering="auto"><path d="M0 0h4v4H0z"/></svg><svg viewBox="0 0 4 4" x="914" y="1313" width="57" height="57" shape-rendering="auto"><path d="M4 3.15a.85.85 0 0 1-.85.85H0V0h4v3.15Z"/></svg><svg viewBox="0 0 4 4" x="971" y="1313" width="57" height="57" shape-rendering="auto"><path d="M3.15 4A.85.85 0 0 0 4 3.15V4Z"/></svg><svg viewBox="0 0 4 4" x="1028" y="1313" width="57" height="57" shape-rendering="auto"><path d="M0 0h4v4H0z"/></svg><svg viewBox="0 0 4 4" x="1085" y="1313" width="57" height="57" shape-rendering="auto"><path d="M.85 0H0v.85A.85.85 0 0 1 .85 0Z"/></svg><svg viewBox="0 0 4 4" x="1085" y="1313" width="57" height="57" shape-rendering="auto"><path d="M.85 4A.85.85 0 0 1 0 3.15V4Z"/></svg><svg viewBox="0 0 4 4" x="1199" y="1313" width="57" height="57" shape-rendering="auto"><path d="M4 3.15V.85A.85.85 0 0 0 3.15 0H.85A.85.85 0 0 0 0 .85V4h4Z"/></svg><svg viewBox="0 0 4 4" x="1256" y="1313" width="57" height="57" shape-rendering="auto"><path d="M3.15 4A.85.85 0 0 0 4 3.15V4Z"/></svg><svg viewBox="0 0 4 4" x="1256" y="1313" width="57" height="57" shape-rendering="auto"><path d="M.85 4A.85.85 0 0 1 0 3.15V4Z"/></svg><svg viewBox="0 0 4 4" x="1313" y="1313" width="57" height="57" shape-rendering="auto"><path d="M0 0h4v4H0z"/></svg><svg viewBox="0 0 4 4" x="1370" y="1313" width="57" height="57" shape-rendering="auto"><path d="M0 0h4v4H0z"/></svg><svg viewBox="0 0 4 4" x="1427" y="1313" width="57" height="57" shape-rendering="auto"><path d="M0 0h4v4H0z"/></svg><svg viewBox="0 0 4 4" x="1484" y="1313" width="57" height="57" shape-rendering="auto"><path d="M0 0h4v4H0z"/></svg><svg viewBox="0 0 4 4" x="1541" y="1313" width="57" height="57" shape-rendering="auto"><path d="M0 0h4v4H0z"/></svg><svg viewBox="0 0 4 4" x="1598" y="1313" width="57" height="57" shape-rendering="auto"><path d="M.85 0H0v.85A.85.85 0 0 1 .85 0Z"/></svg><svg viewBox="0 0 4 4" x="1598" y="1313" width="57" height="57" shape-rendering="auto"><path d="M.85 4A.85.85 0 0 1 0 3.15V4Z"/></svg><svg viewBox="0 0 4 4" x="1712" y="1313" width="57" height="57" shape-rendering="auto"><path d="M0 3.15A.85.85 0 0 0 .85 4H4V0H0v3.15Z"/></svg><svg viewBox="0 0 4 4" x="1769" y="1313" width="57" height="57" shape-rendering="auto"><path d="M0 0h4v4H0z"/></svg><svg viewBox="0 0 4 4" x="629" y="1370" width="57" height="57" shape-rendering="auto"><rect width="4" height="4" rx=".85"/></svg><svg viewBox="0 0 4 4" x="800" y="1370" width="57" height="57" shape-rendering="auto"><path d="M4 .85V0h-.85A.85.85 0 0 1 4 .85Z"/></svg><svg viewBox="0 0 4 4" x="857" y="1370" width="57" height="57" shape-rendering="auto"><path d="M0 3.15A.85.85 0 0 0 .85 4h2.3A.85.85 0 0 0 4 3.15V0H0v3.15Z"/></svg><svg viewBox="0 0 4 4" x="914" y="1370" width="57" height="57" shape-rendering="auto"><path d="M.85 0H0v.85A.85.85 0 0 1 .85 0Z"/></svg><svg viewBox="0 0 4 4" x="971" y="1370" width="57" height="57" shape-rendering="auto"><path d="M.85 0A.85.85 0 0 0 0 .85V4h4V0H.85Z"/></svg><svg viewBox="0 0 4 4" x="1028" y="1370" width="57" height="57" shape-rendering="auto"><path d="M0 0h4v4H0z"/></svg><svg viewBox="0 0 4 4" x="1085" y="1370" width="57" height="57" shape-rendering="auto"><path d="M.85 4h2.3A.85.85 0 0 0 4 3.15V.85A.85.85 0 0 0 3.15 0H0v4Z"/></svg><svg viewBox="0 0 4 4" x="1199" y="1370" width="57" height="57" shape-rendering="auto"><path d="M0 0h4v4H0z"/></svg><svg viewBox="0 0 4 4" x="1256" y="1370" width="57" height="57" shape-rendering="auto"><path d="M0 0h4v4H0z"/></svg><svg viewBox="0 0 4 4" x="1313" y="1370" width="57" height="57" shape-rendering="auto"><path d="M0 0h4v4H0z"/></svg><svg viewBox="0 0 4 4" x="1370" y="1370" width="57" height="57" shape-rendering="auto"><path d="M.85 0H0v.85A.85.85 0 0 1 .85 0Z"/></svg><svg viewBox="0 0 4 4" x="1484" y="1370" width="57" height="57" shape-rendering="auto"><path d="M4 .85V0h-.85A.85.85 0 0 1 4 .85Z"/></svg><svg viewBox="0 0 4 4" x="1541" y="1370" width="57" height="57" shape-rendering="auto"><path d="M0 0h4v4H0z"/></svg><svg viewBox="0 0 4 4" x="1598" y="1370" width="57" height="57" shape-rendering="auto"><path d="M3.15 0A.85.85 0 0 1 4 .85V4H0V0h3.15Z"/></svg><svg viewBox="0 0 4 4" x="1655" y="1370" width="57" height="57" shape-rendering="auto"><path d="M.85 4A.85.85 0 0 1 0 3.15V4Z"/></svg><svg viewBox="0 0 4 4" x="1712" y="1370" width="57" height="57" shape-rendering="auto"><path d="M4 .85V0h-.85A.85.85 0 0 1 4 .85Z"/></svg><svg viewBox="0 0 4 4" x="1769" y="1370" width="57" height="57" shape-rendering="auto"><path d="M0 3.15A.85.85 0 0 0 .85 4h2.3A.85.85 0 0 0 4 3.15V0H0v3.15Z"/></svg><svg viewBox="0 0 4 4" x="971" y="1427" width="57" height="57" shape-rendering="auto"><path d="M0 3.15A.85.85 0 0 0 .85 4h2.3A.85.85 0 0 0 4 3.15V0H0v3.15Z"/></svg><svg viewBox="0 0 4 4" x="1028" y="1427" width="57" height="57" shape-rendering="auto"><path d="M.85 0H0v.85A.85.85 0 0 1 .85 0Z"/></svg><svg viewBox="0 0 4 4" x="1199" y="1427" width="57" height="57" shape-rendering="auto"><path d="M0 3.15A.85.85 0 0 0 .85 4H4V0H0v3.15Z"/></svg><svg viewBox="0 0 4 4" x="1256" y="1427" width="57" height="57" shape-rendering="auto"><path d="M0 0h4v4H0z"/></svg><svg viewBox="0 0 4 4" x="1313" y="1427" width="57" height="57" shape-rendering="auto"><path d="M0 0h4v4H0z"/></svg><svg viewBox="0 0 4 4" x="1427" y="1427" width="57" height="57" shape-rendering="auto"><rect width="4" height="4" rx=".85"/></svg><svg viewBox="0 0 4 4" x="1541" y="1427" width="57" height="57" shape-rendering="auto"><path d="M0 0h4v4H0z"/></svg><svg viewBox="0 0 4 4" x="1598" y="1427" width="57" height="57" shape-rendering="auto"><path d="M0 0h4v4H0z"/></svg><svg viewBox="0 0 4 4" x="1655" y="1427" width="57" height="57" shape-rendering="auto"><path d="M0 0h4v4H0z"/></svg><svg viewBox="0 0 4 4" x="1712" y="1427" width="57" height="57" shape-rendering="auto"><path d="M3.15 0A.85.85 0 0 1 4 .85V4H0V0h3.15Z"/></svg><svg viewBox="0 0 4 4" x="1769" y="1427" width="57" height="57" shape-rendering="auto"><path d="M.85 4A.85.85 0 0 1 0 3.15V4Z"/></svg><svg viewBox="0 0 4 4" x="686" y="1484" width="57" height="57" shape-rendering="auto"><path d="M3.15 4A.85.85 0 0 0 4 3.15V4Z"/></svg><svg viewBox="0 0 4 4" x="743" y="1484" width="57" height="57" shape-rendering="auto"><path d="M4 3.15V.85A.85.85 0 0 0 3.15 0H.85A.85.85 0 0 0 0 .85V4h4Z"/></svg><svg viewBox="0 0 4 4" x="800" y="1484" width="57" height="57" shape-rendering="auto"><path d="M.85 4A.85.85 0 0 1 0 3.15V4Z"/></svg><svg viewBox="0 0 4 4" x="914" y="1484" width="57" height="57" shape-rendering="auto"><path d="M4 3.15V.85A.85.85 0 0 0 3.15 0H.85A.85.85 0 0 0 0 .85V4h4Z"/></svg><svg viewBox="0 0 4 4" x="971" y="1484" width="57" height="57" shape-rendering="auto"><path d="M.85 4A.85.85 0 0 1 0 3.15V4Z"/></svg><svg viewBox="0 0 4 4" x="1199" y="1484" width="57" height="57" shape-rendering="auto"><path d="M4 .85V0h-.85A.85.85 0 0 1 4 .85Z"/></svg><svg viewBox="0 0 4 4" x="1256" y="1484" width="57" height="57" shape-rendering="auto"><path d="M0 0h4v4H0z"/></svg><svg viewBox="0 0 4 4" x="1313" y="1484" width="57" height="57" shape-rendering="auto"><path d="M0 0h4v4H0z"/></svg><svg viewBox="0 0 4 4" x="1370" y="1484" width="57" height="57" shape-rendering="auto"><path d="M.85 4A.85.85 0 0 1 0 3.15V4Z"/></svg><svg viewBox="0 0 4 4" x="1484" y="1484" width="57" height="57" shape-rendering="auto"><path d="M3.15 4A.85.85 0 0 0 4 3.15V4Z"/></svg><svg viewBox="0 0 4 4" x="1541" y="1484" width="57" height="57" shape-rendering="auto"><path d="M0 0h4v4H0z"/></svg><svg viewBox="0 0 4 4" x="1598" y="1484" width="57" height="57" shape-rendering="auto"><path d="M4 3.15a.85.85 0 0 1-.85.85H0V0h4v3.15Z"/></svg><svg viewBox="0 0 4 4" x="1655" y="1484" width="57" height="57" shape-rendering="auto"><path d="M.85 0H0v.85A.85.85 0 0 1 .85 0Z"/></svg><svg viewBox="0 0 4 4" x="1655" y="1484" width="57" height="57" shape-rendering="auto"><path d="M4 .85V0h-.85A.85.85 0 0 1 4 .85Z"/></svg><svg viewBox="0 0 4 4" x="1712" y="1484" width="57" height="57" shape-rendering="auto"><path d="M0 3.15A.85.85 0 0 0 .85 4H4V0H0v3.15Z"/></svg><svg viewBox="0 0 4 4" x="1769" y="1484" width="57" height="57" shape-rendering="auto"><path d="M.85 4h2.3A.85.85 0 0 0 4 3.15V.85A.85.85 0 0 0 3.15 0H0v4Z"/></svg><svg viewBox="0 0 4 4" x="629" y="1541" width="57" height="57" shape-rendering="auto"><path d="M.85 0A.85.85 0 0 0 0 .85V4h4V0H.85Z"/></svg><svg viewBox="0 0 4 4" x="686" y="1541" width="57" height="57" shape-rendering="auto"><path d="M0 0h4v4H0z"/></svg><svg viewBox="0 0 4 4" x="743" y="1541" width="57" height="57" shape-rendering="auto"><path d="M0 0h4v4H0z"/></svg><svg viewBox="0 0 4 4" x="800" y="1541" width="57" height="57" shape-rendering="auto"><path d="M3.15 0A.85.85 0 0 1 4 .85V4H0V0h3.15Z"/></svg><svg viewBox="0 0 4 4" x="857" y="1541" width="57" height="57" shape-rendering="auto"><path d="M3.15 4A.85.85 0 0 0 4 3.15V4Z"/></svg><svg viewBox="0 0 4 4" x="857" y="1541" width="57" height="57" shape-rendering="auto"><path d="M.85 4A.85.85 0 0 1 0 3.15V4Z"/></svg><svg viewBox="0 0 4 4" x="914" y="1541" width="57" height="57" shape-rendering="auto"><path d="M0 0h4v4H0z"/></svg><svg viewBox="0 0 4 4" x="971" y="1541" width="57" height="57" shape-rendering="auto"><path d="M0 0h4v4H0z"/></svg><svg viewBox="0 0 4 4" x="1028" y="1541" width="57" height="57" shape-rendering="auto"><path d="M.85 4h2.3A.85.85 0 0 0 4 3.15V.85A.85.85 0 0 0 3.15 0H0v4Z"/></svg><svg viewBox="0 0 4 4" x="1142" y="1541" width="57" height="57" shape-rendering="auto"><path d="M4 3.15V.85A.85.85 0 0 0 3.15 0H.85A.85.85 0 0 0 0 .85V4h4Z"/></svg><svg viewBox="0 0 4 4" x="1256" y="1541" width="57" height="57" shape-rendering="auto"><path d="M0 3.15A.85.85 0 0 0 .85 4H4V0H0v3.15Z"/></svg><svg viewBox="0 0 4 4" x="1313" y="1541" width="57" height="57" shape-rendering="auto"><path d="M0 0h4v4H0z"/></svg><svg viewBox="0 0 4 4" x="1370" y="1541" width="57" height="57" shape-rendering="auto"><path d="M0 0h4v4H0z"/></svg><svg viewBox="0 0 4 4" x="1427" y="1541" width="57" height="57" shape-rendering="auto"><path d="M0 0h4v4H0z"/></svg><svg viewBox="0 0 4 4" x="1484" y="1541" width="57" height="57" shape-rendering="auto"><path d="M0 0h4v4H0z"/></svg><svg viewBox="0 0 4 4" x="1541" y="1541" width="57" height="57" shape-rendering="auto"><path d="M0 0h4v4H0z"/></svg><svg viewBox="0 0 4 4" x="1598" y="1541" width="57" height="57" shape-rendering="auto"><path d="M.85 0H0v.85A.85.85 0 0 1 .85 0Z"/></svg><svg viewBox="0 0 4 4" x="1598" y="1541" width="57" height="57" shape-rendering="auto"><path d="M.85 4A.85.85 0 0 1 0 3.15V4Z"/></svg><svg viewBox="0 0 4 4" x="629" y="1598" width="57" height="57" shape-rendering="auto"><path d="M0 0h4v4H0z"/></svg><svg viewBox="0 0 4 4" x="686" y="1598" width="57" height="57" shape-rendering="auto"><path d="M0 0h4v4H0z"/></svg><svg viewBox="0 0 4 4" x="743" y="1598" width="57" height="57" shape-rendering="auto"><path d="M0 0h4v4H0z"/></svg><svg viewBox="0 0 4 4" x="800" y="1598" width="57" height="57" shape-rendering="auto"><path d="M0 0h4v4H0z"/></svg><svg viewBox="0 0 4 4" x="857" y="1598" width="57" height="57" shape-rendering="auto"><path d="M0 0h4v4H0z"/></svg><svg viewBox="0 0 4 4" x="914" y="1598" width="57" height="57" shape-rendering="auto"><path d="M0 0h4v4H0z"/></svg><svg viewBox="0 0 4 4" x="971" y="1598" width="57" height="57" shape-rendering="auto"><path d="M.85 0H0v.85A.85.85 0 0 1 .85 0Z"/></svg><svg viewBox="0 0 4 4" x="971" y="1598" width="57" height="57" shape-rendering="auto"><path d="M.85 4A.85.85 0 0 1 0 3.15V4Z"/></svg><svg viewBox="0 0 4 4" x="1142" y="1598" width="57" height="57" shape-rendering="auto"><path d="M0 0h4v4H0z"/></svg><svg viewBox="0 0 4 4" x="1199" y="1598" width="57" height="57" shape-rendering="auto"><path d="M.85 4A.85.85 0 0 1 0 3.15V4Z"/></svg><svg viewBox="0 0 4 4" x="1256" y="1598" width="57" height="57" shape-rendering="auto"><path d="M4 .85V0h-.85A.85.85 0 0 1 4 .85Z"/></svg><svg viewBox="0 0 4 4" x="1313" y="1598" width="57" height="57" shape-rendering="auto"><path d="M0 3.15A.85.85 0 0 0 .85 4H4V0H0v3.15Z"/></svg><svg viewBox="0 0 4 4" x="1370" y="1598" width="57" height="57" shape-rendering="auto"><path d="M0 0h4v4H0z"/></svg><svg viewBox="0 0 4 4" x="1427" y="1598" width="57" height="57" shape-rendering="auto"><path d="M0 0h4v4H0z"/></svg><svg viewBox="0 0 4 4" x="1484" y="1598" width="57" height="57" shape-rendering="auto"><path d="M.85 0H0v.85A.85.85 0 0 1 .85 0Z"/></svg><svg viewBox="0 0 4 4" x="1484" y="1598" width="57" height="57" shape-rendering="auto"><path d="M4 .85V0h-.85A.85.85 0 0 1 4 .85Z"/></svg><svg viewBox="0 0 4 4" x="1484" y="1598" width="57" height="57" shape-rendering="auto"><path d="M3.15 4A.85.85 0 0 0 4 3.15V4Z"/></svg><svg viewBox="0 0 4 4" x="1484" y="1598" width="57" height="57" shape-rendering="auto"><path d="M.85 4A.85.85 0 0 1 0 3.15V4Z"/></svg><svg viewBox="0 0 4 4" x="1541" y="1598" width="57" height="57" shape-rendering="auto"><path d="M0 0h4v4H0z"/></svg><svg viewBox="0 0 4 4" x="1598" y="1598" width="57" height="57" shape-rendering="auto"><path d="M.85 4h2.3A.85.85 0 0 0 4 3.15V.85A.85.85 0 0 0 3.15 0H0v4Z"/></svg><svg viewBox="0 0 4 4" x="629" y="1655" width="57" height="57" shape-rendering="auto"><path d="M0 3.15A.85.85 0 0 0 .85 4H4V0H0v3.15Z"/></svg><svg viewBox="0 0 4 4" x="686" y="1655" width="57" height="57" shape-rendering="auto"><path d="M0 0h4v4H0z"/></svg><svg viewBox="0 0 4 4" x="743" y="1655" width="57" height="57" shape-rendering="auto"><path d="M.85 0H0v.85A.85.85 0 0 1 .85 0Z"/></svg><svg viewBox="0 0 4 4" x="857" y="1655" width="57" height="57" shape-rendering="auto"><path d="M4 .85V0h-.85A.85.85 0 0 1 4 .85Z"/></svg><svg viewBox="0 0 4 4" x="914" y="1655" width="57" height="57" shape-rendering="auto"><path d="M0 3.15A.85.85 0 0 0 .85 4H4V0H0v3.15Z"/></svg><svg viewBox="0 0 4 4" x="971" y="1655" width="57" height="57" shape-rendering="auto"><path d="M0 0h4v4H0z"/></svg><svg viewBox="0 0 4 4" x="1028" y="1655" width="57" height="57" shape-rendering="auto"><path d="M3.15 0A.85.85 0 0 1 4 .85V4H0V0h3.15Z"/></svg><svg viewBox="0 0 4 4" x="1142" y="1655" width="57" height="57" shape-rendering="auto"><path d="M0 0h4v4H0z"/></svg><svg viewBox="0 0 4 4" x="1199" y="1655" width="57" height="57" shape-rendering="auto"><path d="M3.15 0A.85.85 0 0 1 4 .85V4H0V0h3.15Z"/></svg><svg viewBox="0 0 4 4" x="1313" y="1655" width="57" height="57" shape-rendering="auto"><path d="M4 .85V0h-.85A.85.85 0 0 1 4 .85Z"/></svg><svg viewBox="0 0 4 4" x="1370" y="1655" width="57" height="57" shape-rendering="auto"><path d="M0 0h4v4H0z"/></svg><svg viewBox="0 0 4 4" x="1427" y="1655" width="57" height="57" shape-rendering="auto"><path d="M0 0h4v4H0z"/></svg><svg viewBox="0 0 4 4" x="1484" y="1655" width="57" height="57" shape-rendering="auto"><path d="M0 0h4v4H0z"/></svg><svg viewBox="0 0 4 4" x="1541" y="1655" width="57" height="57" shape-rendering="auto"><path d="M4 3.15a.85.85 0 0 1-.85.85H0V0h4v3.15Z"/></svg><svg viewBox="0 0 4 4" x="1598" y="1655" width="57" height="57" shape-rendering="auto"><path d="M.85 0H0v.85A.85.85 0 0 1 .85 0Z"/></svg><svg viewBox="0 0 4 4" x="1655" y="1655" width="57" height="57" shape-rendering="auto"><path d="M3.15 0H.85A.85.85 0 0 0 0 .85v2.3A.85.85 0 0 0 .85 4H4V0Z"/></svg><svg viewBox="0 0 4 4" x="1712" y="1655" width="57" height="57" shape-rendering="auto"><path d="M.85 4h2.3A.85.85 0 0 0 4 3.15V.85A.85.85 0 0 0 3.15 0H0v4Z"/></svg><svg viewBox="0 0 4 4" x="629" y="1712" width="57" height="57" shape-rendering="auto"><path d="M4 .85V0h-.85A.85.85 0 0 1 4 .85Z"/></svg><svg viewBox="0 0 4 4" x="686" y="1712" width="57" height="57" shape-rendering="auto"><path d="M0 3.15A.85.85 0 0 0 .85 4h2.3A.85.85 0 0 0 4 3.15V0H0v3.15Z"/></svg><svg viewBox="0 0 4 4" x="743" y="1712" width="57" height="57" shape-rendering="auto"><path d="M3.15 4A.85.85 0 0 0 4 3.15V4Z"/></svg><svg viewBox="0 0 4 4" x="800" y="1712" width="57" height="57" shape-rendering="auto"><path d="M.85 0A.85.85 0 0 0 0 .85V4h4V0H.85Z"/></svg><svg viewBox="0 0 4 4" x="857" y="1712" width="57" height="57" shape-rendering="auto"><path d="M.85 4h2.3A.85.85 0 0 0 4 3.15V.85A.85.85 0 0 0 3.15 0H0v4Z"/></svg><svg viewBox="0 0 4 4" x="914" y="1712" width="57" height="57" shape-rendering="auto"><path d="M4 .85V0h-.85A.85.85 0 0 1 4 .85Z"/></svg><svg viewBox="0 0 4 4" x="971" y="1712" width="57" height="57" shape-rendering="auto"><path d="M0 0h4v4H0z"/></svg><svg viewBox="0 0 4 4" x="1028" y="1712" width="57" height="57" shape-rendering="auto"><path d="M0 0h4v4H0z"/></svg><svg viewBox="0 0 4 4" x="1142" y="1712" width="57" height="57" shape-rendering="auto"><path d="M0 0h4v4H0z"/></svg><svg viewBox="0 0 4 4" x="1199" y="1712" width="57" height="57" shape-rendering="auto"><path d="M0 0h4v4H0z"/></svg><svg viewBox="0 0 4 4" x="1370" y="1712" width="57" height="57" shape-rendering="auto"><path d="M0 3.15A.85.85 0 0 0 .85 4h2.3A.85.85 0 0 0 4 3.15V0H0v3.15Z"/></svg><svg viewBox="0 0 4 4" x="1427" y="1712" width="57" height="57" shape-rendering="auto"><path d="M.85 0H0v.85A.85.85 0 0 1 .85 0Z"/></svg><svg viewBox="0 0 4 4" x="1427" y="1712" width="57" height="57" shape-rendering="auto"><path d="M4 .85V0h-.85A.85.85 0 0 1 4 .85Z"/></svg><svg viewBox="0 0 4 4" x="1427" y="1712" width="57" height="57" shape-rendering="auto"><path d="M3.15 4A.85.85 0 0 0 4 3.15V4Z"/></svg><svg viewBox="0 0 4 4" x="1484" y="1712" width="57" height="57" shape-rendering="auto"><path d="M0 0h4v4H0z"/></svg><svg viewBox="0 0 4 4" x="1541" y="1712" width="57" height="57" shape-rendering="auto"><path d="M.85 0H0v.85A.85.85 0 0 1 .85 0Z"/></svg><svg viewBox="0 0 4 4" x="1541" y="1712" width="57" height="57" shape-rendering="auto"><path d="M3.15 4A.85.85 0 0 0 4 3.15V4Z"/></svg><svg viewBox="0 0 4 4" x="1541" y="1712" width="57" height="57" shape-rendering="auto"><path d="M.85 4A.85.85 0 0 1 0 3.15V4Z"/></svg><svg viewBox="0 0 4 4" x="1598" y="1712" width="57" height="57" shape-rendering="auto"><path d="M4 3.15V.85A.85.85 0 0 0 3.15 0H.85A.85.85 0 0 0 0 .85V4h4Z"/></svg><svg viewBox="0 0 4 4" x="1769" y="1712" width="57" height="57" shape-rendering="auto"><rect width="4" height="4" rx=".85"/></svg><svg viewBox="0 0 4 4" x="743" y="1769" width="57" height="57" shape-rendering="auto"><path d="M3.15 0H.85A.85.85 0 0 0 0 .85v2.3A.85.85 0 0 0 .85 4H4V0Z"/></svg><svg viewBox="0 0 4 4" x="800" y="1769" width="57" height="57" shape-rendering="auto"><path d="M4 3.15a.85.85 0 0 1-.85.85H0V0h4v3.15Z"/></svg><svg viewBox="0 0 4 4" x="857" y="1769" width="57" height="57" shape-rendering="auto"><path d="M.85 0H0v.85A.85.85 0 0 1 .85 0Z"/></svg><svg viewBox="0 0 4 4" x="971" y="1769" width="57" height="57" shape-rendering="auto"><path d="M0 3.15A.85.85 0 0 0 .85 4H4V0H0v3.15Z"/></svg><svg viewBox="0 0 4 4" x="1028" y="1769" width="57" height="57" shape-rendering="auto"><path d="M4 3.15a.85.85 0 0 1-.85.85H0V0h4v3.15Z"/></svg><svg viewBox="0 0 4 4" x="1142" y="1769" width="57" height="57" shape-rendering="auto"><path d="M0 3.15A.85.85 0 0 0 .85 4H4V0H0v3.15Z"/></svg><svg viewBox="0 0 4 4" x="1199" y="1769" width="57" height="57" shape-rendering="auto"><path d="M4 3.15a.85.85 0 0 1-.85.85H0V0h4v3.15Z"/></svg><svg viewBox="0 0 4 4" x="1313" y="1769" width="57" height="57" shape-rendering="auto"><rect width="4" height="4" rx=".85"/></svg><svg viewBox="0 0 4 4" x="1427" y="1769" width="57" height="57" shape-rendering="auto"><path d="M3.15 0H.85A.85.85 0 0 0 0 .85v2.3A.85.85 0 0 0 .85 4H4V0Z"/></svg><svg viewBox="0 0 4 4" x="1484" y="1769" width="57" height="57" shape-rendering="auto"><path d="M0 0h4v4H0z"/></svg><svg viewBox="0 0 4 4" x="1541" y="1769" width="57" height="57" shape-rendering="auto"><path d="M0 0h4v4H0z"/></svg><svg viewBox="0 0 4 4" x="1598" y="1769" width="57" height="57" shape-rendering="auto"><path d="M4 3.15a.85.85 0 0 1-.85.85H0V0h4v3.15Z"/></svg><svg version="1.1" id="Ebene_1" x="173" y="173" viewBox="0 0 700 700" style="enable-background:new 0 0 700 700" xml:space="preserve" width="399" height="399" shape-rendering="auto"><path d="M21.2-.1C9.5-.1-.1 9.5-.1 21.2V678.8c0 11.7 9.5 21.3 21.3 21.3h657.6c11.7 0 21.3-9.5 21.3-21.3V21.2c0-11.7-9.5-21.3-21.3-21.3H21.2zM600 200v387.8c0 6.8-5.5 12.2-12.2 12.2H112.2c-6.8 0-12.2-5.5-12.2-12.2V112.2c0-6.8 5.5-12.2 12.2-12.2h475.6c6.8 0 12.2 5.5 12.2 12.2V200z"/></svg><svg version="1.1" id="Ebene_1" x="173" y="173" viewBox="0 0 700 700" style="enable-background:new 0 0 700 700" xml:space="preserve" width="399" height="399" shape-rendering="auto"><path d="M500 400V221.2c0-11.7-9.5-21.3-21.3-21.3H221.2c-11.7 0-21.3 9.5-21.3 21.3v257.6c0 11.7 9.5 21.3 21.3 21.3h257.5c11.7 0 21.3-9.5 21.3-21.3V400z"/></svg><svg version="1.1" id="Ebene_1" x="1427" y="173" viewBox="0 0 700 700" style="enable-background:new 0 0 700 700" xml:space="preserve" width="399" height="399" shape-rendering="auto"><path d="M21.2-.1C9.5-.1-.1 9.5-.1 21.2V678.8c0 11.7 9.5 21.3 21.3 21.3h657.6c11.7 0 21.3-9.5 21.3-21.3V21.2c0-11.7-9.5-21.3-21.3-21.3H21.2zM600 200v387.8c0 6.8-5.5 12.2-12.2 12.2H112.2c-6.8 0-12.2-5.5-12.2-12.2V112.2c0-6.8 5.5-12.2 12.2-12.2h475.6c6.8 0 12.2 5.5 12.2 12.2V200z"/></svg><svg version="1.1" id="Ebene_1" x="1427" y="173" viewBox="0 0 700 700" style="enable-background:new 0 0 700 700" xml:space="preserve" width="399" height="399" shape-rendering="auto"><path d="M500 400V221.2c0-11.7-9.5-21.3-21.3-21.3H221.2c-11.7 0-21.3 9.5-21.3 21.3v257.6c0 11.7 9.5 21.3 21.3 21.3h257.5c11.7 0 21.3-9.5 21.3-21.3V400z"/></svg><svg version="1.1" id="Ebene_1" x="173" y="1427" viewBox="0 0 700 700" style="enable-background:new 0 0 700 700" xml:space="preserve" width="399" height="399" shape-rendering="auto"><path d="M21.2-.1C9.5-.1-.1 9.5-.1 21.2V678.8c0 11.7 9.5 21.3 21.3 21.3h657.6c11.7 0 21.3-9.5 21.3-21.3V21.2c0-11.7-9.5-21.3-21.3-21.3H21.2zM600 200v387.8c0 6.8-5.5 12.2-12.2 12.2H112.2c-6.8 0-12.2-5.5-12.2-12.2V112.2c0-6.8 5.5-12.2 12.2-12.2h475.6c6.8 0 12.2 5.5 12.2 12.2V200z"/></svg><svg version="1.1" id="Ebene_1" x="173" y="1427" viewBox="0 0 700 700" style="enable-background:new 0 0 700 700" xml:space="preserve" width="399" height="399" shape-rendering="auto"><path d="M500 400V221.2c0-11.7-9.5-21.3-21.3-21.3H221.2c-11.7 0-21.3 9.5-21.3 21.3v257.6c0 11.7 9.5 21.3 21.3 21.3h257.5c11.7 0 21.3-9.5 21.3-21.3V400z"/></svg><svg version="1.0" id="Layer_1" x="771" y="771" viewBox="0 0 700 700" xml:space="preserve" width="456" height="456" shape-rendering="auto"><path d="M261.1 296.3c0 30.2 10 57.6 26.1 77.3-16.2-19.8-26.1-47.1-26.1-77.3zM406.6 211.9c-15.4-15.6-35.1-25-56.6-25s-41.2 9.4-56.6 25c15.4-15.6 35.1-25 56.6-25s41.2 9.4 56.6 25zM406.6 211.9c6.6 6.7 12.4 14.5 17.2 23.2-4.8-8.7-10.6-16.6-17.2-23.2zM276.3 235.1c4.8-8.7 10.6-16.6 17.2-23.2-6.7 6.6-12.4 14.5-17.2 23.2zM439 296.3c0 30.2-10 57.6-26.1 77.3 16.1-19.8 26.1-47.1 26.1-77.3z"/><path d="M350 87.5C205 87.5 87.5 205 87.5 350S205 612.5 350 612.5 612.5 495 612.5 350 495 87.5 350 87.5zm0 26.7c130.2 0 235.8 105.6 235.8 235.8 0 56.4-19.8 108.2-52.9 148.8-2-9.7-4.4-21.3-5.5-27.9-1.7-10.2-15.8-23.6-75.8-45.7-24.9-9.2-38.6-12.6-46.2-16.5-16.3 11.3-35.2 17.9-55.4 17.9-20.1 0-39-6.6-55.2-17.8-7.6 3.9-21.3 7.3-46.3 16.4-60 22-74.2 35.5-75.8 45.7-1.1 6.6-3.5 18.1-5.5 27.8-33.1-40.6-52.9-92.4-52.9-148.8-.1-130.1 105.5-235.7 235.7-235.7z"/><path d="M435 263.7c-2.6-10.3-6.4-19.9-11.2-28.6-4.8-8.7-10.6-16.6-17.2-23.2-15.4-15.6-35.1-25-56.6-25s-41.2 9.4-56.6 25c-6.6 6.7-12.4 14.5-17.2 23.2-4.8 8.7-8.6 18.4-11.2 28.6-2.6 10.3-4 21.2-4 32.5 0 30.2 10 57.6 26.1 77.3 6 7.4 12.9 13.8 20.5 18.8 12.6 8.4 27.1 13.2 42.4 13.2s29.8-4.8 42.4-13.2c7.6-5.1 14.5-11.4 20.5-18.8 16.1-19.8 26.1-47.1 26.1-77.3 0-11.3-1.4-22.2-4-32.5z"/></svg></svg></svg>