<?xml version="1.0" encoding="utf-8"?>
<!-- Generator: Adobe Illustrator 23.0.4, SVG Export Plug-In . SVG Version: 6.00 Build 0)  -->
<svg version="1.1" id="hands-frame" xmlns="http://www.w3.org/2000/svg" xmlns:xlink="http://www.w3.org/1999/xlink" x="0px"
	 y="0px" viewBox="0 0 485 468.9" style="enable-background:new 0 0 485 468.9;" xml:space="preserve">
<style type="text/css">
	.frame-color{fill:#F4BB8A;}
	.background-color{fill:#ffffff;}
	.outline{fill:#E6E6E6;}
	.hands-background{fill:#FFFFFF;}
	.shadow-35{opacity:0.35;fill:#000000;}
	.show_on_white{opacity:0;}
	.hide_on_white{opacity:1;}
</style>
	<path id="HandsBackground" class="hands-background" d="M101.1,464.8H82.4c0,0-2.8,0.1-6.3-2.7c0,0-6.7,3.9-18.1,3.9c-17,0-29.7-10.3-29.7-10.3
	c-0.1-0.1-0.3-0.1-0.4-0.1h-15c-2.7,0-9.1-1-9.1-10.6v-27.1c0-5.9,4.8-10.7,10.7-10.7h14.4l-0.4,2.7c-0.3,1.9-0.4,4-0.4,6.2
	c0,0.3,0.2,0.5,0.2,0.5c0.1,0.1,0.3,0.2,0.5,0.2c0.3,0,0.5-0.2,0.5-0.2c0.1-0.1,0.2-0.3,0.2-0.5c-0.4-15.7,8.6-19.8,25-27.1l0.9-0.4
	c12.7-5.7,12.4-17.4,12.2-24.4c-0.1-1.6-0.1-3,0-3.9l0.2-1.3l1.2-0.5c0.4-0.2,1.3-0.5,2.7-0.5c0.4,0,0.9,0,1.4,0.1
	c1.7,0.3,4.9,1.3,7.2,5c3.8,6.2,2.9,17.9-0.3,24.4c-2,4.1-2.1,8.1-0.4,10.8c1.6,2.5,4.5,3.8,8.5,3.8h61.7c2.8,0,5.1,0.8,6.6,2.3
	c1.3,1.3,2,3,2,4.9c0,3.2-2.2,6.4-6.3,6.4h-53c-0.4,0-0.8,0.3-0.8,0.8s0.3,0.8,0.8,0.8h19.1c4,0,7.3,3.3,7.3,7.3s-3.3,7.3-7.3,7.3
	h-20c-0.4,0-0.8,0.3-0.8,0.8s0.3,0.8,0.8,0.8h11.1c5.6,0,7.3,4.3,7.3,8.3s-3.3,7.3-7.3,7.3H98.2l-0.2,0.1c-0.2,0.1-0.5,0.3-0.5,0.7
	s0.2,0.6,0.5,0.7l4.5,0.2c3.3,0.6,5.9,3.6,5.9,7.1C108.4,461.5,105.1,464.8,101.1,464.8c0,0-0.1,0-0.2,0.1 M472.1,16.7h-16
	c-0.2,0-0.3,0-0.4-0.1c-11.1-7.7-37.2-18.1-65.4-9.9l0,0l-2.1,0.7c-0.1,0-0.2,0.1-0.2,0.1c-4,0-7.3,3.3-7.3,7.3
	c0,3.5,2.5,6.5,5.9,7.1l0.5,0.2c0.2,0.1,0.5,0.3,0.5,0.7s-0.2,0.6-0.5,0.7l-0.2,0.1h-7.2c-4,0-7.3,3.3-7.3,7.3s3.3,7.3,7.3,7.3h7.1
	c0.4,0,0.8,0.3,0.8,0.8s-0.3,0.8-0.8,0.8h-16c-4,0-7.3,3.3-7.3,7.3s3.3,7.3,7.3,7.3h15.1c0.4,0,0.8,0.3,0.8,0.8s-0.3,0.8-0.8,0.8
	h-53c-4.2,0-6.3,3.2-6.3,6.4c0,1.9,0.7,3.6,2,4.9c1.5,1.5,3.8,2.3,6.6,2.3h61.7c4,0,6.9,1.3,8.5,3.8c1.7,2.8,1.6,6.7-0.4,10.8
	c-3.2,6.5-4,18.2-0.3,24.4c2.3,3.7,5.5,4.8,7.2,5c0.5,0.1,1,0.1,1.4,0.1c1.3,0,2.3-0.3,2.7-0.5l1.2-0.5l0.2-1.3
	c0.1-0.9,0.1-2.3,0-3.9c-0.2-7-0.6-18.7,12.2-24.4l0.9-0.4c16.4-7.3,25.4-11.3,25-27.1c0-0.3,0.1-0.5,0.2-0.5s0.3-0.2,0.5-0.2
	c0.3,0,0.4,0.1,0.5,0.2c0.1,0.1,0.2,0.3,0.2,0.5c0.1,2.2-0.1,4.3-0.4,6.2l-0.4,2.7h14.4c5.9,0,10.7-4.8,10.7-10.7V27.3
	C481.2,17.8,474.8,16.7,472.1,16.7z"/>
	<path id="FrameBody" class="frame-color" d="M301.7,64.7c0,1.7-1.3,3-3,3H75.4v260.5c0,1.7-1.3,3-3,3s-3-1.3-3-3V67.7h-27c-1.7,0-3-1.3-3-3
	c0-1.7,1.3-3,3-3h27v-27c0-1.7,1.3-3,3-3s3,1.3,3,3v27h223.3C300.4,61.7,301.7,63.1,301.7,64.7z M189.2,412.3h223.3v27
	c0,1.7,1.3,3,3,3s3-1.3,3-3v-27h27c1.7,0,3-1.3,3-3s-1.3-3-3-3h-27V145.9c0-1.7-1.3-3-3-3s-3,1.3-3,3v260.5H189.2c-1.7,0-3,1.3-3,3
	S187.5,412.3,189.2,412.3z M162.3,409.7c0,4.9-3.5,10.2-10.1,10.2h-25c0.8,1.5,1.2,3.2,1.2,5c0,5.8-4.5,10.5-10.2,11
	c0.8,1.5,1.2,3.2,1.2,5.1c0,5.6-4.2,10.2-9.6,10.9c0.8,1.5,1.3,3.3,1.3,5.1c0,6.1-4.9,11-11,11H82.3c-2.5,0-4.7-0.8-6.6-2.2
	c-5.2,2-10.7,3-16.3,3c-10.5,0-21.4-3.4-31.5-10.1h-15C5,458.7,0,453.2,0,444.3v-26.1c0-8,6.5-14.5,14.5-14.5h13.6
	c4-8.6,13-12.6,25-17.9l0.9-0.4c10.4-4.6,10.1-14,9.9-20.8c-0.1-3.7-0.2-6.3,1.6-8c1.8-1.7,4.8-2.4,8-2c2.4,0.3,7,1.6,10.2,6.8
	c4.6,7.6,3.6,20.5-0.1,28c-1.4,2.9-1.6,5.6-0.6,7.2c1.1,1.7,3.5,2,5.3,2H150c4.8,0,7.7,1.8,9.3,3.3
	C161.2,404.1,162.3,406.8,162.3,409.7z M105.2,457c0-2.8-2.3-5-5-5H82.3c-2.8,0-5,2.3-5,5s2.3,5,5,5h17.9
	C103,462.1,105.2,459.8,105.2,457z M113.5,441c0-2.8-2.3-5-5-5H83.2h-0.9c-2.8,0-5,2.3-5,5s2.3,5,5,5h17.9h8.3
	C111.2,446,113.5,443.8,113.5,441z M117.4,419.9h-13H83.2c-2.2,0-4.1,1.4-4.7,3.4c-0.1,0.4-0.2,0.8-0.2,1.1c0,0.2,0,0.3,0,0.5
	c0,2.8,2.3,5,5,5h25.3h8.9c2.8,0,5-2.3,5-5S120.2,419.9,117.4,419.9z M156.3,409.7c0-1.3-0.5-2.4-1.4-3.3c-1.1-1.1-2.9-1.7-5.1-1.7
	H88.2c-6.1,0-9-2.6-10.4-4.8c-2.1-3.4-2-8.1,0.3-13c2.9-6,3.7-16.8,0.4-22.3c-1.8-3-4.3-3.8-5.7-4c-1.4-0.2-2.4,0-2.9,0.2
	c-0.1,0.8,0,2.4,0,3.6c0.2,7.1,0.6,20.2-13.5,26.5l-0.9,0.4c-16.5,7.4-24.1,10.7-23.7,25c0,1.7-1.3,3-2.9,3.1c-1.7,0-3-1.3-3.1-2.9
	c-0.1-2.5,0.1-4.7,0.4-6.7H14.5c-4.7,0-8.5,3.8-8.5,8.5v26.1c0,3.8,1.2,8.4,6.9,8.4h16.9l0.8,0.5c18.1,12.5,33.5,10.3,41.4,7.6
	c-0.4-1.2-0.7-2.5-0.7-3.8c0-3.2,1.3-6,3.5-8c-2.1-2-3.5-4.9-3.5-8c0-0.8,0.1-1.6,0.3-2.4c-3.5,4.5-8,8.3-13.3,10.8
	c-0.4,0.2-0.9,0.3-1.3,0.3c-1.1,0-2.2-0.6-2.7-1.7c-0.7-1.5-0.1-3.3,1.4-4c8.4-4,14.4-11.7,16.6-20.5c0.1-0.6,0.2-1.3,0.4-1.9
	c0.3-1.8,0.5-3.6,0.5-5.4c0-2.1-0.2-4.2-0.6-6.2c-0.3-1.6,0.7-3.2,2.3-3.5c1.6-0.3,3.2,0.7,3.5,2.3c0.4,1.9,0.6,3.9,0.7,5.9
	c1.3-0.5,2.6-0.8,4.1-0.8h21.2h13h34.8C155.5,413.9,156.3,411.3,156.3,409.7z M485,27.3v26.1c0,8-6.5,14.5-14.5,14.5h-13.6
	c-4,8.6-13,12.6-25,17.9l-0.9,0.4c-10.4,4.6-10.1,14-9.9,20.8c0.1,3.7,0.2,6.3-1.6,8c-1.4,1.4-3.8,2.1-6.3,2.1c-0.6,0-1.1,0-1.7-0.1
	c-2.4-0.3-7-1.6-10.2-6.8c-4.6-7.6-3.6-20.5,0.1-28c1.4-2.9,1.6-5.6,0.6-7.2c-1.1-1.7-3.5-2-5.3-2H335c-4.8,0-7.7-1.8-9.3-3.3
	c-2.1-2-3.2-4.7-3.2-7.6c0-4.9,3.5-10.2,10.1-10.2h28.1c-0.8-1.5-1.2-3.2-1.2-5c0-5.8,4.5-10.5,10.2-11c-0.8-1.5-1.2-3.2-1.2-5.1
	c0-5.6,4.2-10.2,9.6-10.9c-0.8-1.5-1.3-3.3-1.3-5.1c0-5.9,4.7-10.7,10.5-11c26.2-8.4,53.6-1.5,69.7,9.3h15.1
	C480,13,485,18.5,485,27.3z M479,27.3c0-6.9-3.7-8.4-6.9-8.4h-16.9l-0.8-0.5c-11.1-7.6-37.4-18.1-65.6-8.9c-0.1,0-0.1,0-0.2,0
	s-0.2,0-0.3,0.1c-0.1,0-0.2,0-0.3,0c-0.1,0-0.1,0-0.1,0c-2.8,0-5,2.3-5,5s2.3,5,5,5V20c1,0.5,1.8,1.5,1.8,2.7s-0.7,2.3-1.8,2.7v0.3
	h-1.2h-7.1c-2.8,0-5,2.3-5,5s2.3,5,5,5h6.1h0.9c1.7,0,3,1.3,3,3s-1.3,3-3,3h-0.9h-6.1h-8.9c-2.8,0-5,2.3-5,5s2.3,5,5,5h10h5.1
	c1.7,0,3,1.3,3,3s-1.3,3-3,3h-5.1h-10h-37.9c-3.2,0-4.1,2.6-4.1,4.2c0,1.3,0.5,2.4,1.4,3.3c1.1,1.1,2.9,1.7,5.1,1.7h61.7
	c6.1,0,9,2.6,10.4,4.8c2.1,3.4,2,8.1-0.3,13c-2.9,6-3.7,16.8-0.4,22.3c1.8,3,4.3,3.8,5.7,4c1.4,0.2,2.4,0,2.9-0.2
	c0.1-0.8,0-2.4,0-3.6c-0.2-7.1-0.6-20.2,13.5-26.5l0.9-0.4c16.5-7.4,24.1-10.7,23.7-25c0-1.7,1.3-3,2.9-3.1c1.7,0,3,1.3,3.1,2.9
	c0.1,2.5-0.1,4.7-0.4,6.7h11.8c4.7,0,8.5-3.8,8.5-8.5v-26C479.2,27.3,479,27.3,479,27.3z"/>
	<path id="WhiteBackground" class="background-color" d="M367.8,94.9H116.1c-7.6,0-13.7,6.2-13.7,13.7v251.7c0,7.6,6.2,13.7,13.7,13.7h251.6
	c7.6,0,13.7-6.2,13.8-13.7V108.6C381.5,101,375.3,94.9,367.8,94.9z"/>
	<svg id="TextArea" x="165" y="410" width="240" height="65" viewBox="0 0 5.71484375 17.588541666667" preserveAspectRatio="xMidYMid meet">
<svg version="1.1" xmlns="http://www.w3.org/2000/svg"><path class="frame-color" fill="#FFFFFF" d=" "/></svg>
</svg>
	
	<path id="Outline" class="outline" d="M367.7,375H116.1c-8.1,0-14.7-6.6-14.7-14.7V108.6c0-8.1,6.6-14.7,14.7-14.7h251.7
	c8.1,0,14.7,6.6,14.7,14.7v251.7C382.4,368.4,375.8,375,367.7,375z M116.1,95.9c-7,0-12.7,5.7-12.7,12.7v251.7
	c0,7,5.7,12.7,12.7,12.7h251.6c7,0,12.7-5.7,12.8-12.7V108.6c0-7-5.7-12.7-12.7-12.7H116.1z"/>
	
<svg xmlns="http://www.w3.org/2000/svg" xmlns:xlink="http://www.w3.org/1999/xlink" version="1.1" width="267.7" height="267.7" viewBox="0 0 2000 2000" x="108.1" y="100.6" shape-rendering="crispEdges"><defs/><rect x="0" y="0" width="2000" height="2000" fill="#ffffff"/><svg viewBox="0 0 4 4" x="629" y="173" width="57" height="57" shape-rendering="auto"><path fill="#000000" d="M4,3.15V0.85A0.85,0.85,0,0,0,3.15,0H0.85A0.85,0.85,0,0,0,0,0.85V4H4Z"/></svg><svg viewBox="0 0 4 4" x="800" y="173" width="57" height="57" shape-rendering="auto"><path fill="#000000" d="M3.15,4A0.85,0.85,0,0,0,4,3.15V4Z"/></svg><svg viewBox="0 0 4 4" x="857" y="173" width="57" height="57" shape-rendering="auto"><path fill="#000000" d="M0.85,0A0.85,0.85,0,0,0,0,0.85V4H4V0H0.85Z"/></svg><svg viewBox="0 0 4 4" x="914" y="173" width="57" height="57" shape-rendering="auto"><rect fill="#000000" width="4" height="4"/></svg><svg viewBox="0 0 4 4" x="971" y="173" width="57" height="57" shape-rendering="auto"><path fill="#000000" d="M3.15,0A0.85,0.85,0,0,1,4,0.85V4H0V0H3.15Z"/></svg><svg viewBox="0 0 4 4" x="1256" y="173" width="57" height="57" shape-rendering="auto"><path fill="#000000" d="M4,3.15V0.85A0.85,0.85,0,0,0,3.15,0H0.85A0.85,0.85,0,0,0,0,0.85V4H4Z"/></svg><svg viewBox="0 0 4 4" x="629" y="230" width="57" height="57" shape-rendering="auto"><rect fill="#000000" width="4" height="4"/></svg><svg viewBox="0 0 4 4" x="686" y="230" width="57" height="57" shape-rendering="auto"><path fill="#000000" d="M0.85,4A0.85,0.85,0,0,1,0,3.15V4Z"/></svg><svg viewBox="0 0 4 4" x="800" y="230" width="57" height="57" shape-rendering="auto"><path fill="#000000" d="M0.85,0A0.85,0.85,0,0,0,0,0.85V4H4V0H0.85Z"/></svg><svg viewBox="0 0 4 4" x="857" y="230" width="57" height="57" shape-rendering="auto"><path fill="#000000" d="M4,3.15A0.85,0.85,0,0,1,3.15,4H0V0H4V3.15Z"/></svg><svg viewBox="0 0 4 4" x="914" y="230" width="57" height="57" shape-rendering="auto"><path fill="#000000" d="M0.85,0H0V0.85A0.85,0.85,0,0,1,0.85,0Z"/></svg><svg viewBox="0 0 4 4" x="914" y="230" width="57" height="57" shape-rendering="auto"><path fill="#000000" d="M4,0.85V0H3.15A0.85,0.85,0,0,1,4,0.85Z"/></svg><svg viewBox="0 0 4 4" x="971" y="230" width="57" height="57" shape-rendering="auto"><path fill="#000000" d="M0,3.15A0.85,0.85,0,0,0,0.85,4h2.3A0.85,0.85,0,0,0,4,3.15V0H0V3.15Z"/></svg><svg viewBox="0 0 4 4" x="1142" y="230" width="57" height="57" shape-rendering="auto"><rect fill="#000000" width="4" height="4" rx="0.85"/></svg><svg viewBox="0 0 4 4" x="1256" y="230" width="57" height="57" shape-rendering="auto"><path fill="#000000" d="M0,3.15A0.85,0.85,0,0,0,0.85,4h2.3A0.85,0.85,0,0,0,4,3.15V0H0V3.15Z"/></svg><svg viewBox="0 0 4 4" x="629" y="287" width="57" height="57" shape-rendering="auto"><path fill="#000000" d="M0,3.15A0.85,0.85,0,0,0,0.85,4H4V0H0V3.15Z"/></svg><svg viewBox="0 0 4 4" x="686" y="287" width="57" height="57" shape-rendering="auto"><path fill="#000000" d="M0.85,4h2.3A0.85,0.85,0,0,0,4,3.15V0.85A0.85,0.85,0,0,0,3.15,0H0V4Z"/></svg><svg viewBox="0 0 4 4" x="743" y="287" width="57" height="57" shape-rendering="auto"><path fill="#000000" d="M3.15,4A0.85,0.85,0,0,0,4,3.15V4Z"/></svg><svg viewBox="0 0 4 4" x="800" y="287" width="57" height="57" shape-rendering="auto"><rect fill="#000000" width="4" height="4"/></svg><svg viewBox="0 0 4 4" x="857" y="287" width="57" height="57" shape-rendering="auto"><path fill="#000000" d="M0.85,0H0V0.85A0.85,0.85,0,0,1,0.85,0Z"/></svg><svg viewBox="0 0 4 4" x="914" y="287" width="57" height="57" shape-rendering="auto"><path fill="#000000" d="M4,3.15V0.85A0.85,0.85,0,0,0,3.15,0H0.85A0.85,0.85,0,0,0,0,0.85V4H4Z"/></svg><svg viewBox="0 0 4 4" x="971" y="287" width="57" height="57" shape-rendering="auto"><path fill="#000000" d="M0.85,4A0.85,0.85,0,0,1,0,3.15V4Z"/></svg><svg viewBox="0 0 4 4" x="1085" y="287" width="57" height="57" shape-rendering="auto"><rect fill="#000000" width="4" height="4" rx="0.85"/></svg><svg viewBox="0 0 4 4" x="1313" y="287" width="57" height="57" shape-rendering="auto"><path fill="#000000" d="M4,3.15V0.85A0.85,0.85,0,0,0,3.15,0H0.85A0.85,0.85,0,0,0,0,0.85V4H4Z"/></svg><svg viewBox="0 0 4 4" x="686" y="344" width="57" height="57" shape-rendering="auto"><path fill="#000000" d="M3.15,4A0.85,0.85,0,0,0,4,3.15V4Z"/></svg><svg viewBox="0 0 4 4" x="743" y="344" width="57" height="57" shape-rendering="auto"><path fill="#000000" d="M0.85,0A0.85,0.85,0,0,0,0,0.85V4H4V0H0.85Z"/></svg><svg viewBox="0 0 4 4" x="800" y="344" width="57" height="57" shape-rendering="auto"><path fill="#000000" d="M4,3.15A0.85,0.85,0,0,1,3.15,4H0V0H4V3.15Z"/></svg><svg viewBox="0 0 4 4" x="857" y="344" width="57" height="57" shape-rendering="auto"><path fill="#000000" d="M3.15,4A0.85,0.85,0,0,0,4,3.15V4Z"/></svg><svg viewBox="0 0 4 4" x="914" y="344" width="57" height="57" shape-rendering="auto"><rect fill="#000000" width="4" height="4"/></svg><svg viewBox="0 0 4 4" x="971" y="344" width="57" height="57" shape-rendering="auto"><rect fill="#000000" width="4" height="4"/></svg><svg viewBox="0 0 4 4" x="1028" y="344" width="57" height="57" shape-rendering="auto"><path fill="#000000" d="M0.85,4h2.3A0.85,0.85,0,0,0,4,3.15V0.85A0.85,0.85,0,0,0,3.15,0H0V4Z"/></svg><svg viewBox="0 0 4 4" x="1142" y="344" width="57" height="57" shape-rendering="auto"><path fill="#000000" d="M3.15,0H0.85A0.85,0.85,0,0,0,0,0.85v2.3A0.85,0.85,0,0,0,0.85,4H4V0Z"/></svg><svg viewBox="0 0 4 4" x="1199" y="344" width="57" height="57" shape-rendering="auto"><path fill="#000000" d="M3.15,0A0.85,0.85,0,0,1,4,0.85V4H0V0H3.15Z"/></svg><svg viewBox="0 0 4 4" x="1313" y="344" width="57" height="57" shape-rendering="auto"><path fill="#000000" d="M0,3.15A0.85,0.85,0,0,0,0.85,4h2.3A0.85,0.85,0,0,0,4,3.15V0H0V3.15Z"/></svg><svg viewBox="0 0 4 4" x="686" y="401" width="57" height="57" shape-rendering="auto"><path fill="#000000" d="M3.15,0H0.85A0.85,0.85,0,0,0,0,0.85v2.3A0.85,0.85,0,0,0,0.85,4H4V0Z"/></svg><svg viewBox="0 0 4 4" x="743" y="401" width="57" height="57" shape-rendering="auto"><rect fill="#000000" width="4" height="4"/></svg><svg viewBox="0 0 4 4" x="800" y="401" width="57" height="57" shape-rendering="auto"><path fill="#000000" d="M0.85,0H0V0.85A0.85,0.85,0,0,1,0.85,0Z"/></svg><svg viewBox="0 0 4 4" x="857" y="401" width="57" height="57" shape-rendering="auto"><path fill="#000000" d="M0.85,0A0.85,0.85,0,0,0,0,0.85V4H4V0H0.85Z"/></svg><svg viewBox="0 0 4 4" x="914" y="401" width="57" height="57" shape-rendering="auto"><rect fill="#000000" width="4" height="4"/></svg><svg viewBox="0 0 4 4" x="971" y="401" width="57" height="57" shape-rendering="auto"><path fill="#000000" d="M0.85,0H0V0.85A0.85,0.85,0,0,1,0.85,0Z"/></svg><svg viewBox="0 0 4 4" x="1142" y="401" width="57" height="57" shape-rendering="auto"><path fill="#000000" d="M4,0.85V0H3.15A0.85,0.85,0,0,1,4,0.85Z"/></svg><svg viewBox="0 0 4 4" x="1199" y="401" width="57" height="57" shape-rendering="auto"><rect fill="#000000" width="4" height="4"/></svg><svg viewBox="0 0 4 4" x="629" y="458" width="57" height="57" shape-rendering="auto"><path fill="#000000" d="M4,3.15V0.85A0.85,0.85,0,0,0,3.15,0H0.85A0.85,0.85,0,0,0,0,0.85V4H4Z"/></svg><svg viewBox="0 0 4 4" x="686" y="458" width="57" height="57" shape-rendering="auto"><path fill="#000000" d="M4,0.85V0H3.15A0.85,0.85,0,0,1,4,0.85Z"/></svg><svg viewBox="0 0 4 4" x="743" y="458" width="57" height="57" shape-rendering="auto"><rect fill="#000000" width="4" height="4"/></svg><svg viewBox="0 0 4 4" x="857" y="458" width="57" height="57" shape-rendering="auto"><rect fill="#000000" width="4" height="4"/></svg><svg viewBox="0 0 4 4" x="914" y="458" width="57" height="57" shape-rendering="auto"><path fill="#000000" d="M4,3.15A0.85,0.85,0,0,1,3.15,4H0V0H4V3.15Z"/></svg><svg viewBox="0 0 4 4" x="1028" y="458" width="57" height="57" shape-rendering="auto"><rect fill="#000000" width="4" height="4" rx="0.85"/></svg><svg viewBox="0 0 4 4" x="1199" y="458" width="57" height="57" shape-rendering="auto"><rect fill="#000000" width="4" height="4"/></svg><svg viewBox="0 0 4 4" x="1313" y="458" width="57" height="57" shape-rendering="auto"><path fill="#000000" d="M4,3.15V0.85A0.85,0.85,0,0,0,3.15,0H0.85A0.85,0.85,0,0,0,0,0.85V4H4Z"/></svg><svg viewBox="0 0 4 4" x="629" y="515" width="57" height="57" shape-rendering="auto"><rect fill="#000000" width="4" height="4"/></svg><svg viewBox="0 0 4 4" x="686" y="515" width="57" height="57" shape-rendering="auto"><path fill="#000000" d="M3.15,4A0.85,0.85,0,0,0,4,3.15V4Z"/></svg><svg viewBox="0 0 4 4" x="686" y="515" width="57" height="57" shape-rendering="auto"><path fill="#000000" d="M0.85,4A0.85,0.85,0,0,1,0,3.15V4Z"/></svg><svg viewBox="0 0 4 4" x="743" y="515" width="57" height="57" shape-rendering="auto"><rect fill="#000000" width="4" height="4"/></svg><svg viewBox="0 0 4 4" x="857" y="515" width="57" height="57" shape-rendering="auto"><path fill="#000000" d="M0,3.15A0.85,0.85,0,0,0,0.85,4h2.3A0.85,0.85,0,0,0,4,3.15V0H0V3.15Z"/></svg><svg viewBox="0 0 4 4" x="914" y="515" width="57" height="57" shape-rendering="auto"><path fill="#000000" d="M0.85,0H0V0.85A0.85,0.85,0,0,1,0.85,0Z"/></svg><svg viewBox="0 0 4 4" x="971" y="515" width="57" height="57" shape-rendering="auto"><rect fill="#000000" width="4" height="4" rx="0.85"/></svg><svg viewBox="0 0 4 4" x="1028" y="515" width="57" height="57" shape-rendering="auto"><path fill="#000000" d="M3.15,4A0.85,0.85,0,0,0,4,3.15V4Z"/></svg><svg viewBox="0 0 4 4" x="1085" y="515" width="57" height="57" shape-rendering="auto"><path fill="#000000" d="M4,3.15V0.85A0.85,0.85,0,0,0,3.15,0H0.85A0.85,0.85,0,0,0,0,0.85V4H4Z"/></svg><svg viewBox="0 0 4 4" x="1199" y="515" width="57" height="57" shape-rendering="auto"><rect fill="#000000" width="4" height="4"/></svg><svg viewBox="0 0 4 4" x="1256" y="515" width="57" height="57" shape-rendering="auto"><path fill="#000000" d="M3.15,4A0.85,0.85,0,0,0,4,3.15V4Z"/></svg><svg viewBox="0 0 4 4" x="1256" y="515" width="57" height="57" shape-rendering="auto"><path fill="#000000" d="M0.85,4A0.85,0.85,0,0,1,0,3.15V4Z"/></svg><svg viewBox="0 0 4 4" x="1313" y="515" width="57" height="57" shape-rendering="auto"><rect fill="#000000" width="4" height="4"/></svg><svg viewBox="0 0 4 4" x="629" y="572" width="57" height="57" shape-rendering="auto"><rect fill="#000000" width="4" height="4"/></svg><svg viewBox="0 0 4 4" x="686" y="572" width="57" height="57" shape-rendering="auto"><rect fill="#000000" width="4" height="4"/></svg><svg viewBox="0 0 4 4" x="743" y="572" width="57" height="57" shape-rendering="auto"><rect fill="#000000" width="4" height="4"/></svg><svg viewBox="0 0 4 4" x="800" y="572" width="57" height="57" shape-rendering="auto"><path fill="#000000" d="M0.85,4A0.85,0.85,0,0,1,0,3.15V4Z"/></svg><svg viewBox="0 0 4 4" x="914" y="572" width="57" height="57" shape-rendering="auto"><path fill="#000000" d="M4,3.15V0.85A0.85,0.85,0,0,0,3.15,0H0.85A0.85,0.85,0,0,0,0,0.85V4H4Z"/></svg><svg viewBox="0 0 4 4" x="1028" y="572" width="57" height="57" shape-rendering="auto"><path fill="#000000" d="M3.15,0H0.85A0.85,0.85,0,0,0,0,0.85v2.3A0.85,0.85,0,0,0,0.85,4H4V0Z"/></svg><svg viewBox="0 0 4 4" x="1085" y="572" width="57" height="57" shape-rendering="auto"><rect fill="#000000" width="4" height="4"/></svg><svg viewBox="0 0 4 4" x="1199" y="572" width="57" height="57" shape-rendering="auto"><rect fill="#000000" width="4" height="4"/></svg><svg viewBox="0 0 4 4" x="1256" y="572" width="57" height="57" shape-rendering="auto"><rect fill="#000000" width="4" height="4"/></svg><svg viewBox="0 0 4 4" x="1313" y="572" width="57" height="57" shape-rendering="auto"><rect fill="#000000" width="4" height="4"/></svg><svg viewBox="0 0 4 4" x="1370" y="572" width="57" height="57" shape-rendering="auto"><path fill="#000000" d="M0.85,4A0.85,0.85,0,0,1,0,3.15V4Z"/></svg><svg viewBox="0 0 4 4" x="287" y="629" width="57" height="57" shape-rendering="auto"><path fill="#000000" d="M0.85,0A0.85,0.85,0,0,0,0,0.85V4H4V0H0.85Z"/></svg><svg viewBox="0 0 4 4" x="344" y="629" width="57" height="57" shape-rendering="auto"><rect fill="#000000" width="4" height="4"/></svg><svg viewBox="0 0 4 4" x="401" y="629" width="57" height="57" shape-rendering="auto"><path fill="#000000" d="M3.15,0A0.85,0.85,0,0,1,4,0.85V4H0V0H3.15Z"/></svg><svg viewBox="0 0 4 4" x="458" y="629" width="57" height="57" shape-rendering="auto"><path fill="#000000" d="M0.85,4A0.85,0.85,0,0,1,0,3.15V4Z"/></svg><svg viewBox="0 0 4 4" x="515" y="629" width="57" height="57" shape-rendering="auto"><rect fill="#000000" width="4" height="4" rx="0.85"/></svg><svg viewBox="0 0 4 4" x="572" y="629" width="57" height="57" shape-rendering="auto"><path fill="#000000" d="M3.15,4A0.85,0.85,0,0,0,4,3.15V4Z"/></svg><svg viewBox="0 0 4 4" x="629" y="629" width="57" height="57" shape-rendering="auto"><rect fill="#000000" width="4" height="4"/></svg><svg viewBox="0 0 4 4" x="686" y="629" width="57" height="57" shape-rendering="auto"><path fill="#000000" d="M0.85,0H0V0.85A0.85,0.85,0,0,1,0.85,0Z"/></svg><svg viewBox="0 0 4 4" x="686" y="629" width="57" height="57" shape-rendering="auto"><path fill="#000000" d="M4,0.85V0H3.15A0.85,0.85,0,0,1,4,0.85Z"/></svg><svg viewBox="0 0 4 4" x="743" y="629" width="57" height="57" shape-rendering="auto"><rect fill="#000000" width="4" height="4"/></svg><svg viewBox="0 0 4 4" x="800" y="629" width="57" height="57" shape-rendering="auto"><path fill="#000000" d="M3.15,0A0.85,0.85,0,0,1,4,0.85V4H0V0H3.15Z"/></svg><svg viewBox="0 0 4 4" x="914" y="629" width="57" height="57" shape-rendering="auto"><rect fill="#000000" width="4" height="4"/></svg><svg viewBox="0 0 4 4" x="971" y="629" width="57" height="57" shape-rendering="auto"><path fill="#000000" d="M0.85,4A0.85,0.85,0,0,1,0,3.15V4Z"/></svg><svg viewBox="0 0 4 4" x="1028" y="629" width="57" height="57" shape-rendering="auto"><path fill="#000000" d="M4,0.85V0H3.15A0.85,0.85,0,0,1,4,0.85Z"/></svg><svg viewBox="0 0 4 4" x="1085" y="629" width="57" height="57" shape-rendering="auto"><path fill="#000000" d="M0,3.15A0.85,0.85,0,0,0,0.85,4h2.3A0.85,0.85,0,0,0,4,3.15V0H0V3.15Z"/></svg><svg viewBox="0 0 4 4" x="1142" y="629" width="57" height="57" shape-rendering="auto"><path fill="#000000" d="M3.15,4A0.85,0.85,0,0,0,4,3.15V4Z"/></svg><svg viewBox="0 0 4 4" x="1199" y="629" width="57" height="57" shape-rendering="auto"><rect fill="#000000" width="4" height="4"/></svg><svg viewBox="0 0 4 4" x="1256" y="629" width="57" height="57" shape-rendering="auto"><path fill="#000000" d="M0.85,0H0V0.85A0.85,0.85,0,0,1,0.85,0Z"/></svg><svg viewBox="0 0 4 4" x="1256" y="629" width="57" height="57" shape-rendering="auto"><path fill="#000000" d="M4,0.85V0H3.15A0.85,0.85,0,0,1,4,0.85Z"/></svg><svg viewBox="0 0 4 4" x="1313" y="629" width="57" height="57" shape-rendering="auto"><rect fill="#000000" width="4" height="4"/></svg><svg viewBox="0 0 4 4" x="1370" y="629" width="57" height="57" shape-rendering="auto"><rect fill="#000000" width="4" height="4"/></svg><svg viewBox="0 0 4 4" x="1427" y="629" width="57" height="57" shape-rendering="auto"><rect fill="#000000" width="4" height="4"/></svg><svg viewBox="0 0 4 4" x="1484" y="629" width="57" height="57" shape-rendering="auto"><path fill="#000000" d="M0.85,4h2.3A0.85,0.85,0,0,0,4,3.15V0.85A0.85,0.85,0,0,0,3.15,0H0V4Z"/></svg><svg viewBox="0 0 4 4" x="1655" y="629" width="57" height="57" shape-rendering="auto"><path fill="#000000" d="M3.15,0H0.85A0.85,0.85,0,0,0,0,0.85v2.3A0.85,0.85,0,0,0,0.85,4H4V0Z"/></svg><svg viewBox="0 0 4 4" x="1712" y="629" width="57" height="57" shape-rendering="auto"><rect fill="#000000" width="4" height="4"/></svg><svg viewBox="0 0 4 4" x="1769" y="629" width="57" height="57" shape-rendering="auto"><path fill="#000000" d="M3.15,0A0.85,0.85,0,0,1,4,0.85V4H0V0H3.15Z"/></svg><svg viewBox="0 0 4 4" x="173" y="686" width="57" height="57" shape-rendering="auto"><rect fill="#000000" width="4" height="4" rx="0.85"/></svg><svg viewBox="0 0 4 4" x="287" y="686" width="57" height="57" shape-rendering="auto"><path fill="#000000" d="M0,3.15A0.85,0.85,0,0,0,0.85,4H4V0H0V3.15Z"/></svg><svg viewBox="0 0 4 4" x="344" y="686" width="57" height="57" shape-rendering="auto"><rect fill="#000000" width="4" height="4"/></svg><svg viewBox="0 0 4 4" x="401" y="686" width="57" height="57" shape-rendering="auto"><rect fill="#000000" width="4" height="4"/></svg><svg viewBox="0 0 4 4" x="458" y="686" width="57" height="57" shape-rendering="auto"><path fill="#000000" d="M3.15,0A0.85,0.85,0,0,1,4,0.85V4H0V0H3.15Z"/></svg><svg viewBox="0 0 4 4" x="515" y="686" width="57" height="57" shape-rendering="auto"><path fill="#000000" d="M3.15,4A0.85,0.85,0,0,0,4,3.15V4Z"/></svg><svg viewBox="0 0 4 4" x="515" y="686" width="57" height="57" shape-rendering="auto"><path fill="#000000" d="M0.85,4A0.85,0.85,0,0,1,0,3.15V4Z"/></svg><svg viewBox="0 0 4 4" x="572" y="686" width="57" height="57" shape-rendering="auto"><path fill="#000000" d="M0.85,0A0.85,0.85,0,0,0,0,0.85V4H4V0H0.85Z"/></svg><svg viewBox="0 0 4 4" x="629" y="686" width="57" height="57" shape-rendering="auto"><rect fill="#000000" width="4" height="4"/></svg><svg viewBox="0 0 4 4" x="743" y="686" width="57" height="57" shape-rendering="auto"><path fill="#000000" d="M0,3.15A0.85,0.85,0,0,0,0.85,4H4V0H0V3.15Z"/></svg><svg viewBox="0 0 4 4" x="800" y="686" width="57" height="57" shape-rendering="auto"><path fill="#000000" d="M4,3.15A0.85,0.85,0,0,1,3.15,4H0V0H4V3.15Z"/></svg><svg viewBox="0 0 4 4" x="914" y="686" width="57" height="57" shape-rendering="auto"><path fill="#000000" d="M0,3.15A0.85,0.85,0,0,0,0.85,4H4V0H0V3.15Z"/></svg><svg viewBox="0 0 4 4" x="971" y="686" width="57" height="57" shape-rendering="auto"><rect fill="#000000" width="4" height="4"/></svg><svg viewBox="0 0 4 4" x="1028" y="686" width="57" height="57" shape-rendering="auto"><path fill="#000000" d="M0.85,4h2.3A0.85,0.85,0,0,0,4,3.15V0.85A0.85,0.85,0,0,0,3.15,0H0V4Z"/></svg><svg viewBox="0 0 4 4" x="1142" y="686" width="57" height="57" shape-rendering="auto"><path fill="#000000" d="M3.15,0H0.85A0.85,0.85,0,0,0,0,0.85v2.3A0.85,0.85,0,0,0,0.85,4H4V0Z"/></svg><svg viewBox="0 0 4 4" x="1199" y="686" width="57" height="57" shape-rendering="auto"><path fill="#000000" d="M4,3.15A0.85,0.85,0,0,1,3.15,4H0V0H4V3.15Z"/></svg><svg viewBox="0 0 4 4" x="1313" y="686" width="57" height="57" shape-rendering="auto"><path fill="#000000" d="M0,3.15A0.85,0.85,0,0,0,0.85,4H4V0H0V3.15Z"/></svg><svg viewBox="0 0 4 4" x="1370" y="686" width="57" height="57" shape-rendering="auto"><rect fill="#000000" width="4" height="4"/></svg><svg viewBox="0 0 4 4" x="1427" y="686" width="57" height="57" shape-rendering="auto"><path fill="#000000" d="M4,3.15A0.85,0.85,0,0,1,3.15,4H0V0H4V3.15Z"/></svg><svg viewBox="0 0 4 4" x="1484" y="686" width="57" height="57" shape-rendering="auto"><path fill="#000000" d="M0.85,0H0V0.85A0.85,0.85,0,0,1,0.85,0Z"/></svg><svg viewBox="0 0 4 4" x="1541" y="686" width="57" height="57" shape-rendering="auto"><rect fill="#000000" width="4" height="4" rx="0.85"/></svg><svg viewBox="0 0 4 4" x="1655" y="686" width="57" height="57" shape-rendering="auto"><path fill="#000000" d="M4,0.85V0H3.15A0.85,0.85,0,0,1,4,0.85Z"/></svg><svg viewBox="0 0 4 4" x="1712" y="686" width="57" height="57" shape-rendering="auto"><path fill="#000000" d="M0,3.15A0.85,0.85,0,0,0,0.85,4H4V0H0V3.15Z"/></svg><svg viewBox="0 0 4 4" x="1769" y="686" width="57" height="57" shape-rendering="auto"><path fill="#000000" d="M4,3.15A0.85,0.85,0,0,1,3.15,4H0V0H4V3.15Z"/></svg><svg viewBox="0 0 4 4" x="230" y="743" width="57" height="57" shape-rendering="auto"><rect fill="#000000" width="4" height="4" rx="0.85"/></svg><svg viewBox="0 0 4 4" x="287" y="743" width="57" height="57" shape-rendering="auto"><path fill="#000000" d="M4,0.85V0H3.15A0.85,0.85,0,0,1,4,0.85Z"/></svg><svg viewBox="0 0 4 4" x="344" y="743" width="57" height="57" shape-rendering="auto"><path fill="#000000" d="M0,3.15A0.85,0.85,0,0,0,0.85,4H4V0H0V3.15Z"/></svg><svg viewBox="0 0 4 4" x="401" y="743" width="57" height="57" shape-rendering="auto"><rect fill="#000000" width="4" height="4"/></svg><svg viewBox="0 0 4 4" x="458" y="743" width="57" height="57" shape-rendering="auto"><rect fill="#000000" width="4" height="4"/></svg><svg viewBox="0 0 4 4" x="515" y="743" width="57" height="57" shape-rendering="auto"><rect fill="#000000" width="4" height="4"/></svg><svg viewBox="0 0 4 4" x="572" y="743" width="57" height="57" shape-rendering="auto"><rect fill="#000000" width="4" height="4"/></svg><svg viewBox="0 0 4 4" x="629" y="743" width="57" height="57" shape-rendering="auto"><path fill="#000000" d="M4,3.15A0.85,0.85,0,0,1,3.15,4H0V0H4V3.15Z"/></svg><svg viewBox="0 0 4 4" x="1598" y="743" width="57" height="57" shape-rendering="auto"><path fill="#000000" d="M3.15,4A0.85,0.85,0,0,0,4,3.15V4Z"/></svg><svg viewBox="0 0 4 4" x="1655" y="743" width="57" height="57" shape-rendering="auto"><path fill="#000000" d="M4,3.15V0.85A0.85,0.85,0,0,0,3.15,0H0.85A0.85,0.85,0,0,0,0,0.85V4H4Z"/></svg><svg viewBox="0 0 4 4" x="287" y="800" width="57" height="57" shape-rendering="auto"><rect fill="#000000" width="4" height="4" rx="0.85"/></svg><svg viewBox="0 0 4 4" x="344" y="800" width="57" height="57" shape-rendering="auto"><path fill="#000000" d="M4,0.85V0H3.15A0.85,0.85,0,0,1,4,0.85Z"/></svg><svg viewBox="0 0 4 4" x="401" y="800" width="57" height="57" shape-rendering="auto"><path fill="#000000" d="M0,3.15A0.85,0.85,0,0,0,0.85,4H4V0H0V3.15Z"/></svg><svg viewBox="0 0 4 4" x="458" y="800" width="57" height="57" shape-rendering="auto"><rect fill="#000000" width="4" height="4"/></svg><svg viewBox="0 0 4 4" x="515" y="800" width="57" height="57" shape-rendering="auto"><path fill="#000000" d="M0.85,0H0V0.85A0.85,0.85,0,0,1,0.85,0Z"/></svg><svg viewBox="0 0 4 4" x="515" y="800" width="57" height="57" shape-rendering="auto"><path fill="#000000" d="M0.85,4A0.85,0.85,0,0,1,0,3.15V4Z"/></svg><svg viewBox="0 0 4 4" x="686" y="800" width="57" height="57" shape-rendering="auto"><rect fill="#000000" width="4" height="4" rx="0.85"/></svg><svg viewBox="0 0 4 4" x="1256" y="800" width="57" height="57" shape-rendering="auto"><path fill="#000000" d="M3.15,0H0.85A0.85,0.85,0,0,0,0,0.85v2.3A0.85,0.85,0,0,0,0.85,4H4V0Z"/></svg><svg viewBox="0 0 4 4" x="1313" y="800" width="57" height="57" shape-rendering="auto"><path fill="#000000" d="M3.15,0A0.85,0.85,0,0,1,4,0.85V4H0V0H3.15Z"/></svg><svg viewBox="0 0 4 4" x="1370" y="800" width="57" height="57" shape-rendering="auto"><path fill="#000000" d="M0.85,4A0.85,0.85,0,0,1,0,3.15V4Z"/></svg><svg viewBox="0 0 4 4" x="1427" y="800" width="57" height="57" shape-rendering="auto"><path fill="#000000" d="M3.15,0H0.85A0.85,0.85,0,0,0,0,0.85v2.3A0.85,0.85,0,0,0,0.85,4H4V0Z"/></svg><svg viewBox="0 0 4 4" x="1484" y="800" width="57" height="57" shape-rendering="auto"><rect fill="#000000" width="4" height="4"/></svg><svg viewBox="0 0 4 4" x="1541" y="800" width="57" height="57" shape-rendering="auto"><rect fill="#000000" width="4" height="4"/></svg><svg viewBox="0 0 4 4" x="1598" y="800" width="57" height="57" shape-rendering="auto"><rect fill="#000000" width="4" height="4"/></svg><svg viewBox="0 0 4 4" x="1655" y="800" width="57" height="57" shape-rendering="auto"><rect fill="#000000" width="4" height="4"/></svg><svg viewBox="0 0 4 4" x="1712" y="800" width="57" height="57" shape-rendering="auto"><path fill="#000000" d="M0.85,4A0.85,0.85,0,0,1,0,3.15V4Z"/></svg><svg viewBox="0 0 4 4" x="173" y="857" width="57" height="57" shape-rendering="auto"><path fill="#000000" d="M3.15,0H0.85A0.85,0.85,0,0,0,0,0.85v2.3A0.85,0.85,0,0,0,0.85,4H4V0Z"/></svg><svg viewBox="0 0 4 4" x="230" y="857" width="57" height="57" shape-rendering="auto"><path fill="#000000" d="M0.85,4h2.3A0.85,0.85,0,0,0,4,3.15V0.85A0.85,0.85,0,0,0,3.15,0H0V4Z"/></svg><svg viewBox="0 0 4 4" x="401" y="857" width="57" height="57" shape-rendering="auto"><path fill="#000000" d="M4,0.85V0H3.15A0.85,0.85,0,0,1,4,0.85Z"/></svg><svg viewBox="0 0 4 4" x="458" y="857" width="57" height="57" shape-rendering="auto"><path fill="#000000" d="M0,3.15A0.85,0.85,0,0,0,0.85,4H4V0H0V3.15Z"/></svg><svg viewBox="0 0 4 4" x="515" y="857" width="57" height="57" shape-rendering="auto"><rect fill="#000000" width="4" height="4"/></svg><svg viewBox="0 0 4 4" x="572" y="857" width="57" height="57" shape-rendering="auto"><path fill="#000000" d="M3.15,0A0.85,0.85,0,0,1,4,0.85V4H0V0H3.15Z"/></svg><svg viewBox="0 0 4 4" x="629" y="857" width="57" height="57" shape-rendering="auto"><path fill="#000000" d="M0.85,4A0.85,0.85,0,0,1,0,3.15V4Z"/></svg><svg viewBox="0 0 4 4" x="1256" y="857" width="57" height="57" shape-rendering="auto"><path fill="#000000" d="M4,0.85V0H3.15A0.85,0.85,0,0,1,4,0.85Z"/></svg><svg viewBox="0 0 4 4" x="1256" y="857" width="57" height="57" shape-rendering="auto"><path fill="#000000" d="M3.15,4A0.85,0.85,0,0,0,4,3.15V4Z"/></svg><svg viewBox="0 0 4 4" x="1313" y="857" width="57" height="57" shape-rendering="auto"><rect fill="#000000" width="4" height="4"/></svg><svg viewBox="0 0 4 4" x="1370" y="857" width="57" height="57" shape-rendering="auto"><path fill="#000000" d="M0.85,4h2.3A0.85,0.85,0,0,0,4,3.15V0.85A0.85,0.85,0,0,0,3.15,0H0V4Z"/></svg><svg viewBox="0 0 4 4" x="1484" y="857" width="57" height="57" shape-rendering="auto"><path fill="#000000" d="M4,0.85V0H3.15A0.85,0.85,0,0,1,4,0.85Z"/></svg><svg viewBox="0 0 4 4" x="1541" y="857" width="57" height="57" shape-rendering="auto"><rect fill="#000000" width="4" height="4"/></svg><svg viewBox="0 0 4 4" x="1598" y="857" width="57" height="57" shape-rendering="auto"><path fill="#000000" d="M0.85,0H0V0.85A0.85,0.85,0,0,1,0.85,0Z"/></svg><svg viewBox="0 0 4 4" x="1598" y="857" width="57" height="57" shape-rendering="auto"><path fill="#000000" d="M4,0.85V0H3.15A0.85,0.85,0,0,1,4,0.85Z"/></svg><svg viewBox="0 0 4 4" x="1598" y="857" width="57" height="57" shape-rendering="auto"><path fill="#000000" d="M0.85,4A0.85,0.85,0,0,1,0,3.15V4Z"/></svg><svg viewBox="0 0 4 4" x="1655" y="857" width="57" height="57" shape-rendering="auto"><path fill="#000000" d="M0,3.15A0.85,0.85,0,0,0,0.85,4H4V0H0V3.15Z"/></svg><svg viewBox="0 0 4 4" x="1712" y="857" width="57" height="57" shape-rendering="auto"><path fill="#000000" d="M0.85,4h2.3A0.85,0.85,0,0,0,4,3.15V0.85A0.85,0.85,0,0,0,3.15,0H0V4Z"/></svg><svg viewBox="0 0 4 4" x="515" y="914" width="57" height="57" shape-rendering="auto"><path fill="#000000" d="M4,0.85V0H3.15A0.85,0.85,0,0,1,4,0.85Z"/></svg><svg viewBox="0 0 4 4" x="515" y="914" width="57" height="57" shape-rendering="auto"><path fill="#000000" d="M3.15,4A0.85,0.85,0,0,0,4,3.15V4Z"/></svg><svg viewBox="0 0 4 4" x="572" y="914" width="57" height="57" shape-rendering="auto"><rect fill="#000000" width="4" height="4"/></svg><svg viewBox="0 0 4 4" x="629" y="914" width="57" height="57" shape-rendering="auto"><path fill="#000000" d="M3.15,0A0.85,0.85,0,0,1,4,0.85V4H0V0H3.15Z"/></svg><svg viewBox="0 0 4 4" x="1256" y="914" width="57" height="57" shape-rendering="auto"><path fill="#000000" d="M0.85,0A0.85,0.85,0,0,0,0,0.85V4H4V0H0.85Z"/></svg><svg viewBox="0 0 4 4" x="1313" y="914" width="57" height="57" shape-rendering="auto"><path fill="#000000" d="M4,3.15A0.85,0.85,0,0,1,3.15,4H0V0H4V3.15Z"/></svg><svg viewBox="0 0 4 4" x="1370" y="914" width="57" height="57" shape-rendering="auto"><path fill="#000000" d="M0.85,0H0V0.85A0.85,0.85,0,0,1,0.85,0Z"/></svg><svg viewBox="0 0 4 4" x="1427" y="914" width="57" height="57" shape-rendering="auto"><rect fill="#000000" width="4" height="4" rx="0.85"/></svg><svg viewBox="0 0 4 4" x="1541" y="914" width="57" height="57" shape-rendering="auto"><path fill="#000000" d="M0,3.15A0.85,0.85,0,0,0,0.85,4H4V0H0V3.15Z"/></svg><svg viewBox="0 0 4 4" x="1598" y="914" width="57" height="57" shape-rendering="auto"><path fill="#000000" d="M0.85,4h2.3A0.85,0.85,0,0,0,4,3.15V0.85A0.85,0.85,0,0,0,3.15,0H0V4Z"/></svg><svg viewBox="0 0 4 4" x="1769" y="914" width="57" height="57" shape-rendering="auto"><path fill="#000000" d="M4,3.15V0.85A0.85,0.85,0,0,0,3.15,0H0.85A0.85,0.85,0,0,0,0,0.85V4H4Z"/></svg><svg viewBox="0 0 4 4" x="344" y="971" width="57" height="57" shape-rendering="auto"><rect fill="#000000" width="4" height="4" rx="0.85"/></svg><svg viewBox="0 0 4 4" x="515" y="971" width="57" height="57" shape-rendering="auto"><path fill="#000000" d="M3.15,0H0.85A0.85,0.85,0,0,0,0,0.85v2.3A0.85,0.85,0,0,0,0.85,4H4V0Z"/></svg><svg viewBox="0 0 4 4" x="572" y="971" width="57" height="57" shape-rendering="auto"><rect fill="#000000" width="4" height="4"/></svg><svg viewBox="0 0 4 4" x="629" y="971" width="57" height="57" shape-rendering="auto"><path fill="#000000" d="M4,3.15A0.85,0.85,0,0,1,3.15,4H0V0H4V3.15Z"/></svg><svg viewBox="0 0 4 4" x="1256" y="971" width="57" height="57" shape-rendering="auto"><rect fill="#000000" width="4" height="4"/></svg><svg viewBox="0 0 4 4" x="1313" y="971" width="57" height="57" shape-rendering="auto"><path fill="#000000" d="M0.85,0H0V0.85A0.85,0.85,0,0,1,0.85,0Z"/></svg><svg viewBox="0 0 4 4" x="1427" y="971" width="57" height="57" shape-rendering="auto"><path fill="#000000" d="M3.15,4A0.85,0.85,0,0,0,4,3.15V4Z"/></svg><svg viewBox="0 0 4 4" x="1484" y="971" width="57" height="57" shape-rendering="auto"><path fill="#000000" d="M4,3.15V0.85A0.85,0.85,0,0,0,3.15,0H0.85A0.85,0.85,0,0,0,0,0.85V4H4Z"/></svg><svg viewBox="0 0 4 4" x="1541" y="971" width="57" height="57" shape-rendering="auto"><path fill="#000000" d="M0.85,4A0.85,0.85,0,0,1,0,3.15V4Z"/></svg><svg viewBox="0 0 4 4" x="1655" y="971" width="57" height="57" shape-rendering="auto"><path fill="#000000" d="M4,3.15V0.85A0.85,0.85,0,0,0,3.15,0H0.85A0.85,0.85,0,0,0,0,0.85V4H4Z"/></svg><svg viewBox="0 0 4 4" x="1712" y="971" width="57" height="57" shape-rendering="auto"><path fill="#000000" d="M3.15,4A0.85,0.85,0,0,0,4,3.15V4Z"/></svg><svg viewBox="0 0 4 4" x="1712" y="971" width="57" height="57" shape-rendering="auto"><path fill="#000000" d="M0.85,4A0.85,0.85,0,0,1,0,3.15V4Z"/></svg><svg viewBox="0 0 4 4" x="1769" y="971" width="57" height="57" shape-rendering="auto"><rect fill="#000000" width="4" height="4"/></svg><svg viewBox="0 0 4 4" x="287" y="1028" width="57" height="57" shape-rendering="auto"><rect fill="#000000" width="4" height="4" rx="0.85"/></svg><svg viewBox="0 0 4 4" x="344" y="1028" width="57" height="57" shape-rendering="auto"><path fill="#000000" d="M3.15,4A0.85,0.85,0,0,0,4,3.15V4Z"/></svg><svg viewBox="0 0 4 4" x="401" y="1028" width="57" height="57" shape-rendering="auto"><path fill="#000000" d="M0.85,0A0.85,0.85,0,0,0,0,0.85V4H4V0H0.85Z"/></svg><svg viewBox="0 0 4 4" x="458" y="1028" width="57" height="57" shape-rendering="auto"><path fill="#000000" d="M0.85,4h2.3A0.85,0.85,0,0,0,4,3.15V0.85A0.85,0.85,0,0,0,3.15,0H0V4Z"/></svg><svg viewBox="0 0 4 4" x="515" y="1028" width="57" height="57" shape-rendering="auto"><path fill="#000000" d="M4,0.85V0H3.15A0.85,0.85,0,0,1,4,0.85Z"/></svg><svg viewBox="0 0 4 4" x="515" y="1028" width="57" height="57" shape-rendering="auto"><path fill="#000000" d="M3.15,4A0.85,0.85,0,0,0,4,3.15V4Z"/></svg><svg viewBox="0 0 4 4" x="572" y="1028" width="57" height="57" shape-rendering="auto"><rect fill="#000000" width="4" height="4"/></svg><svg viewBox="0 0 4 4" x="629" y="1028" width="57" height="57" shape-rendering="auto"><path fill="#000000" d="M0.85,0H0V0.85A0.85,0.85,0,0,1,0.85,0Z"/></svg><svg viewBox="0 0 4 4" x="1256" y="1028" width="57" height="57" shape-rendering="auto"><path fill="#000000" d="M0,3.15A0.85,0.85,0,0,0,0.85,4h2.3A0.85,0.85,0,0,0,4,3.15V0H0V3.15Z"/></svg><svg viewBox="0 0 4 4" x="1370" y="1028" width="57" height="57" shape-rendering="auto"><path fill="#000000" d="M3.15,0H0.85A0.85,0.85,0,0,0,0,0.85v2.3A0.85,0.85,0,0,0,0.85,4H4V0Z"/></svg><svg viewBox="0 0 4 4" x="1427" y="1028" width="57" height="57" shape-rendering="auto"><rect fill="#000000" width="4" height="4"/></svg><svg viewBox="0 0 4 4" x="1484" y="1028" width="57" height="57" shape-rendering="auto"><rect fill="#000000" width="4" height="4"/></svg><svg viewBox="0 0 4 4" x="1541" y="1028" width="57" height="57" shape-rendering="auto"><path fill="#000000" d="M0.85,4h2.3A0.85,0.85,0,0,0,4,3.15V0.85A0.85,0.85,0,0,0,3.15,0H0V4Z"/></svg><svg viewBox="0 0 4 4" x="1655" y="1028" width="57" height="57" shape-rendering="auto"><path fill="#000000" d="M0,3.15A0.85,0.85,0,0,0,0.85,4H4V0H0V3.15Z"/></svg><svg viewBox="0 0 4 4" x="1712" y="1028" width="57" height="57" shape-rendering="auto"><rect fill="#000000" width="4" height="4"/></svg><svg viewBox="0 0 4 4" x="1769" y="1028" width="57" height="57" shape-rendering="auto"><path fill="#000000" d="M4,3.15A0.85,0.85,0,0,1,3.15,4H0V0H4V3.15Z"/></svg><svg viewBox="0 0 4 4" x="173" y="1085" width="57" height="57" shape-rendering="auto"><path fill="#000000" d="M4,3.15V0.85A0.85,0.85,0,0,0,3.15,0H0.85A0.85,0.85,0,0,0,0,0.85V4H4Z"/></svg><svg viewBox="0 0 4 4" x="344" y="1085" width="57" height="57" shape-rendering="auto"><path fill="#000000" d="M0.85,0A0.85,0.85,0,0,0,0,0.85V4H4V0H0.85Z"/></svg><svg viewBox="0 0 4 4" x="401" y="1085" width="57" height="57" shape-rendering="auto"><path fill="#000000" d="M4,3.15A0.85,0.85,0,0,1,3.15,4H0V0H4V3.15Z"/></svg><svg viewBox="0 0 4 4" x="458" y="1085" width="57" height="57" shape-rendering="auto"><path fill="#000000" d="M0.85,0H0V0.85A0.85,0.85,0,0,1,0.85,0Z"/></svg><svg viewBox="0 0 4 4" x="515" y="1085" width="57" height="57" shape-rendering="auto"><path fill="#000000" d="M3.15,0H0.85A0.85,0.85,0,0,0,0,0.85v2.3A0.85,0.85,0,0,0,0.85,4H4V0Z"/></svg><svg viewBox="0 0 4 4" x="572" y="1085" width="57" height="57" shape-rendering="auto"><path fill="#000000" d="M4,3.15A0.85,0.85,0,0,1,3.15,4H0V0H4V3.15Z"/></svg><svg viewBox="0 0 4 4" x="629" y="1085" width="57" height="57" shape-rendering="auto"><path fill="#000000" d="M3.15,4A0.85,0.85,0,0,0,4,3.15V4Z"/></svg><svg viewBox="0 0 4 4" x="686" y="1085" width="57" height="57" shape-rendering="auto"><path fill="#000000" d="M4,3.15V0.85A0.85,0.85,0,0,0,3.15,0H0.85A0.85,0.85,0,0,0,0,0.85V4H4Z"/></svg><svg viewBox="0 0 4 4" x="1427" y="1085" width="57" height="57" shape-rendering="auto"><path fill="#000000" d="M4,0.85V0H3.15A0.85,0.85,0,0,1,4,0.85Z"/></svg><svg viewBox="0 0 4 4" x="1484" y="1085" width="57" height="57" shape-rendering="auto"><rect fill="#000000" width="4" height="4"/></svg><svg viewBox="0 0 4 4" x="1541" y="1085" width="57" height="57" shape-rendering="auto"><path fill="#000000" d="M0.85,0H0V0.85A0.85,0.85,0,0,1,0.85,0Z"/></svg><svg viewBox="0 0 4 4" x="173" y="1142" width="57" height="57" shape-rendering="auto"><rect fill="#000000" width="4" height="4"/></svg><svg viewBox="0 0 4 4" x="344" y="1142" width="57" height="57" shape-rendering="auto"><rect fill="#000000" width="4" height="4"/></svg><svg viewBox="0 0 4 4" x="401" y="1142" width="57" height="57" shape-rendering="auto"><path fill="#000000" d="M0.85,0H0V0.85A0.85,0.85,0,0,1,0.85,0Z"/></svg><svg viewBox="0 0 4 4" x="401" y="1142" width="57" height="57" shape-rendering="auto"><path fill="#000000" d="M0.85,4A0.85,0.85,0,0,1,0,3.15V4Z"/></svg><svg viewBox="0 0 4 4" x="629" y="1142" width="57" height="57" shape-rendering="auto"><path fill="#000000" d="M0.85,0A0.85,0.85,0,0,0,0,0.85V4H4V0H0.85Z"/></svg><svg viewBox="0 0 4 4" x="686" y="1142" width="57" height="57" shape-rendering="auto"><rect fill="#000000" width="4" height="4"/></svg><svg viewBox="0 0 4 4" x="1256" y="1142" width="57" height="57" shape-rendering="auto"><path fill="#000000" d="M4,3.15V0.85A0.85,0.85,0,0,0,3.15,0H0.85A0.85,0.85,0,0,0,0,0.85V4H4Z"/></svg><svg viewBox="0 0 4 4" x="1370" y="1142" width="57" height="57" shape-rendering="auto"><path fill="#000000" d="M4,3.15V0.85A0.85,0.85,0,0,0,3.15,0H0.85A0.85,0.85,0,0,0,0,0.85V4H4Z"/></svg><svg viewBox="0 0 4 4" x="1484" y="1142" width="57" height="57" shape-rendering="auto"><path fill="#000000" d="M0,3.15A0.85,0.85,0,0,0,0.85,4h2.3A0.85,0.85,0,0,0,4,3.15V0H0V3.15Z"/></svg><svg viewBox="0 0 4 4" x="1598" y="1142" width="57" height="57" shape-rendering="auto"><rect fill="#000000" width="4" height="4" rx="0.85"/></svg><svg viewBox="0 0 4 4" x="1712" y="1142" width="57" height="57" shape-rendering="auto"><rect fill="#000000" width="4" height="4" rx="0.85"/></svg><svg viewBox="0 0 4 4" x="173" y="1199" width="57" height="57" shape-rendering="auto"><rect fill="#000000" width="4" height="4"/></svg><svg viewBox="0 0 4 4" x="344" y="1199" width="57" height="57" shape-rendering="auto"><path fill="#000000" d="M0,3.15A0.85,0.85,0,0,0,0.85,4H4V0H0V3.15Z"/></svg><svg viewBox="0 0 4 4" x="401" y="1199" width="57" height="57" shape-rendering="auto"><path fill="#000000" d="M0.85,4h2.3A0.85,0.85,0,0,0,4,3.15V0.85A0.85,0.85,0,0,0,3.15,0H0V4Z"/></svg><svg viewBox="0 0 4 4" x="515" y="1199" width="57" height="57" shape-rendering="auto"><rect fill="#000000" width="4" height="4" rx="0.85"/></svg><svg viewBox="0 0 4 4" x="629" y="1199" width="57" height="57" shape-rendering="auto"><path fill="#000000" d="M0,3.15A0.85,0.85,0,0,0,0.85,4H4V0H0V3.15Z"/></svg><svg viewBox="0 0 4 4" x="686" y="1199" width="57" height="57" shape-rendering="auto"><path fill="#000000" d="M4,3.15A0.85,0.85,0,0,1,3.15,4H0V0H4V3.15Z"/></svg><svg viewBox="0 0 4 4" x="1256" y="1199" width="57" height="57" shape-rendering="auto"><path fill="#000000" d="M0,3.15A0.85,0.85,0,0,0,0.85,4h2.3A0.85,0.85,0,0,0,4,3.15V0H0V3.15Z"/></svg><svg viewBox="0 0 4 4" x="1370" y="1199" width="57" height="57" shape-rendering="auto"><path fill="#000000" d="M0,3.15A0.85,0.85,0,0,0,0.85,4h2.3A0.85,0.85,0,0,0,4,3.15V0H0V3.15Z"/></svg><svg viewBox="0 0 4 4" x="1655" y="1199" width="57" height="57" shape-rendering="auto"><rect fill="#000000" width="4" height="4" rx="0.85"/></svg><svg viewBox="0 0 4 4" x="173" y="1256" width="57" height="57" shape-rendering="auto"><rect fill="#000000" width="4" height="4"/></svg><svg viewBox="0 0 4 4" x="458" y="1256" width="57" height="57" shape-rendering="auto"><rect fill="#000000" width="4" height="4" rx="0.85"/></svg><svg viewBox="0 0 4 4" x="857" y="1256" width="57" height="57" shape-rendering="auto"><path fill="#000000" d="M3.15,4A0.85,0.85,0,0,0,4,3.15V4Z"/></svg><svg viewBox="0 0 4 4" x="914" y="1256" width="57" height="57" shape-rendering="auto"><path fill="#000000" d="M4,3.15V0.85A0.85,0.85,0,0,0,3.15,0H0.85A0.85,0.85,0,0,0,0,0.85V4H4Z"/></svg><svg viewBox="0 0 4 4" x="1028" y="1256" width="57" height="57" shape-rendering="auto"><path fill="#000000" d="M0.85,0A0.85,0.85,0,0,0,0,0.85V4H4V0H0.85Z"/></svg><svg viewBox="0 0 4 4" x="1085" y="1256" width="57" height="57" shape-rendering="auto"><rect fill="#000000" width="4" height="4"/></svg><svg viewBox="0 0 4 4" x="1142" y="1256" width="57" height="57" shape-rendering="auto"><path fill="#000000" d="M0.85,4h2.3A0.85,0.85,0,0,0,4,3.15V0.85A0.85,0.85,0,0,0,3.15,0H0V4Z"/></svg><svg viewBox="0 0 4 4" x="1313" y="1256" width="57" height="57" shape-rendering="auto"><path fill="#000000" d="M4,3.15V0.85A0.85,0.85,0,0,0,3.15,0H0.85A0.85,0.85,0,0,0,0,0.85V4H4Z"/></svg><svg viewBox="0 0 4 4" x="1370" y="1256" width="57" height="57" shape-rendering="auto"><path fill="#000000" d="M3.15,4A0.85,0.85,0,0,0,4,3.15V4Z"/></svg><svg viewBox="0 0 4 4" x="1370" y="1256" width="57" height="57" shape-rendering="auto"><path fill="#000000" d="M0.85,4A0.85,0.85,0,0,1,0,3.15V4Z"/></svg><svg viewBox="0 0 4 4" x="1427" y="1256" width="57" height="57" shape-rendering="auto"><path fill="#000000" d="M4,3.15V0.85A0.85,0.85,0,0,0,3.15,0H0.85A0.85,0.85,0,0,0,0,0.85V4H4Z"/></svg><svg viewBox="0 0 4 4" x="1484" y="1256" width="57" height="57" shape-rendering="auto"><path fill="#000000" d="M3.15,4A0.85,0.85,0,0,0,4,3.15V4Z"/></svg><svg viewBox="0 0 4 4" x="1484" y="1256" width="57" height="57" shape-rendering="auto"><path fill="#000000" d="M0.85,4A0.85,0.85,0,0,1,0,3.15V4Z"/></svg><svg viewBox="0 0 4 4" x="1541" y="1256" width="57" height="57" shape-rendering="auto"><path fill="#000000" d="M0.85,0A0.85,0.85,0,0,0,0,0.85V4H4V0H0.85Z"/></svg><svg viewBox="0 0 4 4" x="1598" y="1256" width="57" height="57" shape-rendering="auto"><path fill="#000000" d="M0.85,4h2.3A0.85,0.85,0,0,0,4,3.15V0.85A0.85,0.85,0,0,0,3.15,0H0V4Z"/></svg><svg viewBox="0 0 4 4" x="1712" y="1256" width="57" height="57" shape-rendering="auto"><path fill="#000000" d="M0.85,0A0.85,0.85,0,0,0,0,0.85V4H4V0H0.85Z"/></svg><svg viewBox="0 0 4 4" x="1769" y="1256" width="57" height="57" shape-rendering="auto"><path fill="#000000" d="M3.15,0A0.85,0.85,0,0,1,4,0.85V4H0V0H3.15Z"/></svg><svg viewBox="0 0 4 4" x="173" y="1313" width="57" height="57" shape-rendering="auto"><path fill="#000000" d="M0,3.15A0.85,0.85,0,0,0,0.85,4h2.3A0.85,0.85,0,0,0,4,3.15V0H0V3.15Z"/></svg><svg viewBox="0 0 4 4" x="287" y="1313" width="57" height="57" shape-rendering="auto"><path fill="#000000" d="M3.15,0H0.85A0.85,0.85,0,0,0,0,0.85v2.3A0.85,0.85,0,0,0,0.85,4H4V0Z"/></svg><svg viewBox="0 0 4 4" x="344" y="1313" width="57" height="57" shape-rendering="auto"><path fill="#000000" d="M0.85,4h2.3A0.85,0.85,0,0,0,4,3.15V0.85A0.85,0.85,0,0,0,3.15,0H0V4Z"/></svg><svg viewBox="0 0 4 4" x="515" y="1313" width="57" height="57" shape-rendering="auto"><path fill="#000000" d="M3.15,0H0.85A0.85,0.85,0,0,0,0,0.85v2.3A0.85,0.85,0,0,0,0.85,4H4V0Z"/></svg><svg viewBox="0 0 4 4" x="572" y="1313" width="57" height="57" shape-rendering="auto"><path fill="#000000" d="M0.85,4h2.3A0.85,0.85,0,0,0,4,3.15V0.85A0.85,0.85,0,0,0,3.15,0H0V4Z"/></svg><svg viewBox="0 0 4 4" x="800" y="1313" width="57" height="57" shape-rendering="auto"><path fill="#000000" d="M3.15,0H0.85A0.85,0.85,0,0,0,0,0.85v2.3A0.85,0.85,0,0,0,0.85,4H4V0Z"/></svg><svg viewBox="0 0 4 4" x="857" y="1313" width="57" height="57" shape-rendering="auto"><rect fill="#000000" width="4" height="4"/></svg><svg viewBox="0 0 4 4" x="914" y="1313" width="57" height="57" shape-rendering="auto"><path fill="#000000" d="M4,3.15A0.85,0.85,0,0,1,3.15,4H0V0H4V3.15Z"/></svg><svg viewBox="0 0 4 4" x="971" y="1313" width="57" height="57" shape-rendering="auto"><path fill="#000000" d="M3.15,4A0.85,0.85,0,0,0,4,3.15V4Z"/></svg><svg viewBox="0 0 4 4" x="1028" y="1313" width="57" height="57" shape-rendering="auto"><rect fill="#000000" width="4" height="4"/></svg><svg viewBox="0 0 4 4" x="1085" y="1313" width="57" height="57" shape-rendering="auto"><path fill="#000000" d="M0.85,0H0V0.85A0.85,0.85,0,0,1,0.85,0Z"/></svg><svg viewBox="0 0 4 4" x="1085" y="1313" width="57" height="57" shape-rendering="auto"><path fill="#000000" d="M0.85,4A0.85,0.85,0,0,1,0,3.15V4Z"/></svg><svg viewBox="0 0 4 4" x="1199" y="1313" width="57" height="57" shape-rendering="auto"><path fill="#000000" d="M4,3.15V0.85A0.85,0.85,0,0,0,3.15,0H0.85A0.85,0.85,0,0,0,0,0.85V4H4Z"/></svg><svg viewBox="0 0 4 4" x="1256" y="1313" width="57" height="57" shape-rendering="auto"><path fill="#000000" d="M3.15,4A0.85,0.85,0,0,0,4,3.15V4Z"/></svg><svg viewBox="0 0 4 4" x="1256" y="1313" width="57" height="57" shape-rendering="auto"><path fill="#000000" d="M0.85,4A0.85,0.85,0,0,1,0,3.15V4Z"/></svg><svg viewBox="0 0 4 4" x="1313" y="1313" width="57" height="57" shape-rendering="auto"><rect fill="#000000" width="4" height="4"/></svg><svg viewBox="0 0 4 4" x="1370" y="1313" width="57" height="57" shape-rendering="auto"><rect fill="#000000" width="4" height="4"/></svg><svg viewBox="0 0 4 4" x="1427" y="1313" width="57" height="57" shape-rendering="auto"><rect fill="#000000" width="4" height="4"/></svg><svg viewBox="0 0 4 4" x="1484" y="1313" width="57" height="57" shape-rendering="auto"><rect fill="#000000" width="4" height="4"/></svg><svg viewBox="0 0 4 4" x="1541" y="1313" width="57" height="57" shape-rendering="auto"><rect fill="#000000" width="4" height="4"/></svg><svg viewBox="0 0 4 4" x="1598" y="1313" width="57" height="57" shape-rendering="auto"><path fill="#000000" d="M0.85,0H0V0.85A0.85,0.85,0,0,1,0.85,0Z"/></svg><svg viewBox="0 0 4 4" x="1598" y="1313" width="57" height="57" shape-rendering="auto"><path fill="#000000" d="M0.85,4A0.85,0.85,0,0,1,0,3.15V4Z"/></svg><svg viewBox="0 0 4 4" x="1712" y="1313" width="57" height="57" shape-rendering="auto"><path fill="#000000" d="M0,3.15A0.85,0.85,0,0,0,0.85,4H4V0H0V3.15Z"/></svg><svg viewBox="0 0 4 4" x="1769" y="1313" width="57" height="57" shape-rendering="auto"><rect fill="#000000" width="4" height="4"/></svg><svg viewBox="0 0 4 4" x="629" y="1370" width="57" height="57" shape-rendering="auto"><rect fill="#000000" width="4" height="4" rx="0.85"/></svg><svg viewBox="0 0 4 4" x="800" y="1370" width="57" height="57" shape-rendering="auto"><path fill="#000000" d="M4,0.85V0H3.15A0.85,0.85,0,0,1,4,0.85Z"/></svg><svg viewBox="0 0 4 4" x="857" y="1370" width="57" height="57" shape-rendering="auto"><path fill="#000000" d="M0,3.15A0.85,0.85,0,0,0,0.85,4h2.3A0.85,0.85,0,0,0,4,3.15V0H0V3.15Z"/></svg><svg viewBox="0 0 4 4" x="914" y="1370" width="57" height="57" shape-rendering="auto"><path fill="#000000" d="M0.85,0H0V0.85A0.85,0.85,0,0,1,0.85,0Z"/></svg><svg viewBox="0 0 4 4" x="971" y="1370" width="57" height="57" shape-rendering="auto"><path fill="#000000" d="M0.85,0A0.85,0.85,0,0,0,0,0.85V4H4V0H0.85Z"/></svg><svg viewBox="0 0 4 4" x="1028" y="1370" width="57" height="57" shape-rendering="auto"><rect fill="#000000" width="4" height="4"/></svg><svg viewBox="0 0 4 4" x="1085" y="1370" width="57" height="57" shape-rendering="auto"><path fill="#000000" d="M0.85,4h2.3A0.85,0.85,0,0,0,4,3.15V0.85A0.85,0.85,0,0,0,3.15,0H0V4Z"/></svg><svg viewBox="0 0 4 4" x="1199" y="1370" width="57" height="57" shape-rendering="auto"><rect fill="#000000" width="4" height="4"/></svg><svg viewBox="0 0 4 4" x="1256" y="1370" width="57" height="57" shape-rendering="auto"><rect fill="#000000" width="4" height="4"/></svg><svg viewBox="0 0 4 4" x="1313" y="1370" width="57" height="57" shape-rendering="auto"><rect fill="#000000" width="4" height="4"/></svg><svg viewBox="0 0 4 4" x="1370" y="1370" width="57" height="57" shape-rendering="auto"><path fill="#000000" d="M0.85,0H0V0.85A0.85,0.85,0,0,1,0.85,0Z"/></svg><svg viewBox="0 0 4 4" x="1484" y="1370" width="57" height="57" shape-rendering="auto"><path fill="#000000" d="M4,0.85V0H3.15A0.85,0.85,0,0,1,4,0.85Z"/></svg><svg viewBox="0 0 4 4" x="1541" y="1370" width="57" height="57" shape-rendering="auto"><rect fill="#000000" width="4" height="4"/></svg><svg viewBox="0 0 4 4" x="1598" y="1370" width="57" height="57" shape-rendering="auto"><path fill="#000000" d="M3.15,0A0.85,0.85,0,0,1,4,0.85V4H0V0H3.15Z"/></svg><svg viewBox="0 0 4 4" x="1655" y="1370" width="57" height="57" shape-rendering="auto"><path fill="#000000" d="M0.85,4A0.85,0.85,0,0,1,0,3.15V4Z"/></svg><svg viewBox="0 0 4 4" x="1712" y="1370" width="57" height="57" shape-rendering="auto"><path fill="#000000" d="M4,0.85V0H3.15A0.85,0.85,0,0,1,4,0.85Z"/></svg><svg viewBox="0 0 4 4" x="1769" y="1370" width="57" height="57" shape-rendering="auto"><path fill="#000000" d="M0,3.15A0.85,0.85,0,0,0,0.85,4h2.3A0.85,0.85,0,0,0,4,3.15V0H0V3.15Z"/></svg><svg viewBox="0 0 4 4" x="971" y="1427" width="57" height="57" shape-rendering="auto"><path fill="#000000" d="M0,3.15A0.85,0.85,0,0,0,0.85,4h2.3A0.85,0.85,0,0,0,4,3.15V0H0V3.15Z"/></svg><svg viewBox="0 0 4 4" x="1028" y="1427" width="57" height="57" shape-rendering="auto"><path fill="#000000" d="M0.85,0H0V0.85A0.85,0.85,0,0,1,0.85,0Z"/></svg><svg viewBox="0 0 4 4" x="1199" y="1427" width="57" height="57" shape-rendering="auto"><path fill="#000000" d="M0,3.15A0.85,0.85,0,0,0,0.85,4H4V0H0V3.15Z"/></svg><svg viewBox="0 0 4 4" x="1256" y="1427" width="57" height="57" shape-rendering="auto"><rect fill="#000000" width="4" height="4"/></svg><svg viewBox="0 0 4 4" x="1313" y="1427" width="57" height="57" shape-rendering="auto"><rect fill="#000000" width="4" height="4"/></svg><svg viewBox="0 0 4 4" x="1427" y="1427" width="57" height="57" shape-rendering="auto"><rect fill="#000000" width="4" height="4" rx="0.85"/></svg><svg viewBox="0 0 4 4" x="1541" y="1427" width="57" height="57" shape-rendering="auto"><rect fill="#000000" width="4" height="4"/></svg><svg viewBox="0 0 4 4" x="1598" y="1427" width="57" height="57" shape-rendering="auto"><rect fill="#000000" width="4" height="4"/></svg><svg viewBox="0 0 4 4" x="1655" y="1427" width="57" height="57" shape-rendering="auto"><rect fill="#000000" width="4" height="4"/></svg><svg viewBox="0 0 4 4" x="1712" y="1427" width="57" height="57" shape-rendering="auto"><path fill="#000000" d="M3.15,0A0.85,0.85,0,0,1,4,0.85V4H0V0H3.15Z"/></svg><svg viewBox="0 0 4 4" x="1769" y="1427" width="57" height="57" shape-rendering="auto"><path fill="#000000" d="M0.85,4A0.85,0.85,0,0,1,0,3.15V4Z"/></svg><svg viewBox="0 0 4 4" x="686" y="1484" width="57" height="57" shape-rendering="auto"><path fill="#000000" d="M3.15,4A0.85,0.85,0,0,0,4,3.15V4Z"/></svg><svg viewBox="0 0 4 4" x="743" y="1484" width="57" height="57" shape-rendering="auto"><path fill="#000000" d="M4,3.15V0.85A0.85,0.85,0,0,0,3.15,0H0.85A0.85,0.85,0,0,0,0,0.85V4H4Z"/></svg><svg viewBox="0 0 4 4" x="800" y="1484" width="57" height="57" shape-rendering="auto"><path fill="#000000" d="M0.85,4A0.85,0.85,0,0,1,0,3.15V4Z"/></svg><svg viewBox="0 0 4 4" x="914" y="1484" width="57" height="57" shape-rendering="auto"><path fill="#000000" d="M4,3.15V0.85A0.85,0.85,0,0,0,3.15,0H0.85A0.85,0.85,0,0,0,0,0.85V4H4Z"/></svg><svg viewBox="0 0 4 4" x="971" y="1484" width="57" height="57" shape-rendering="auto"><path fill="#000000" d="M0.85,4A0.85,0.85,0,0,1,0,3.15V4Z"/></svg><svg viewBox="0 0 4 4" x="1199" y="1484" width="57" height="57" shape-rendering="auto"><path fill="#000000" d="M4,0.85V0H3.15A0.85,0.85,0,0,1,4,0.85Z"/></svg><svg viewBox="0 0 4 4" x="1256" y="1484" width="57" height="57" shape-rendering="auto"><rect fill="#000000" width="4" height="4"/></svg><svg viewBox="0 0 4 4" x="1313" y="1484" width="57" height="57" shape-rendering="auto"><rect fill="#000000" width="4" height="4"/></svg><svg viewBox="0 0 4 4" x="1370" y="1484" width="57" height="57" shape-rendering="auto"><path fill="#000000" d="M0.85,4A0.85,0.85,0,0,1,0,3.15V4Z"/></svg><svg viewBox="0 0 4 4" x="1484" y="1484" width="57" height="57" shape-rendering="auto"><path fill="#000000" d="M3.15,4A0.85,0.85,0,0,0,4,3.15V4Z"/></svg><svg viewBox="0 0 4 4" x="1541" y="1484" width="57" height="57" shape-rendering="auto"><rect fill="#000000" width="4" height="4"/></svg><svg viewBox="0 0 4 4" x="1598" y="1484" width="57" height="57" shape-rendering="auto"><path fill="#000000" d="M4,3.15A0.85,0.85,0,0,1,3.15,4H0V0H4V3.15Z"/></svg><svg viewBox="0 0 4 4" x="1655" y="1484" width="57" height="57" shape-rendering="auto"><path fill="#000000" d="M0.85,0H0V0.85A0.85,0.85,0,0,1,0.85,0Z"/></svg><svg viewBox="0 0 4 4" x="1655" y="1484" width="57" height="57" shape-rendering="auto"><path fill="#000000" d="M4,0.85V0H3.15A0.85,0.85,0,0,1,4,0.85Z"/></svg><svg viewBox="0 0 4 4" x="1712" y="1484" width="57" height="57" shape-rendering="auto"><path fill="#000000" d="M0,3.15A0.85,0.85,0,0,0,0.85,4H4V0H0V3.15Z"/></svg><svg viewBox="0 0 4 4" x="1769" y="1484" width="57" height="57" shape-rendering="auto"><path fill="#000000" d="M0.85,4h2.3A0.85,0.85,0,0,0,4,3.15V0.85A0.85,0.85,0,0,0,3.15,0H0V4Z"/></svg><svg viewBox="0 0 4 4" x="629" y="1541" width="57" height="57" shape-rendering="auto"><path fill="#000000" d="M0.85,0A0.85,0.85,0,0,0,0,0.85V4H4V0H0.85Z"/></svg><svg viewBox="0 0 4 4" x="686" y="1541" width="57" height="57" shape-rendering="auto"><rect fill="#000000" width="4" height="4"/></svg><svg viewBox="0 0 4 4" x="743" y="1541" width="57" height="57" shape-rendering="auto"><rect fill="#000000" width="4" height="4"/></svg><svg viewBox="0 0 4 4" x="800" y="1541" width="57" height="57" shape-rendering="auto"><path fill="#000000" d="M3.15,0A0.85,0.85,0,0,1,4,0.85V4H0V0H3.15Z"/></svg><svg viewBox="0 0 4 4" x="857" y="1541" width="57" height="57" shape-rendering="auto"><path fill="#000000" d="M3.15,4A0.85,0.85,0,0,0,4,3.15V4Z"/></svg><svg viewBox="0 0 4 4" x="857" y="1541" width="57" height="57" shape-rendering="auto"><path fill="#000000" d="M0.85,4A0.85,0.85,0,0,1,0,3.15V4Z"/></svg><svg viewBox="0 0 4 4" x="914" y="1541" width="57" height="57" shape-rendering="auto"><rect fill="#000000" width="4" height="4"/></svg><svg viewBox="0 0 4 4" x="971" y="1541" width="57" height="57" shape-rendering="auto"><rect fill="#000000" width="4" height="4"/></svg><svg viewBox="0 0 4 4" x="1028" y="1541" width="57" height="57" shape-rendering="auto"><path fill="#000000" d="M0.85,4h2.3A0.85,0.85,0,0,0,4,3.15V0.85A0.85,0.85,0,0,0,3.15,0H0V4Z"/></svg><svg viewBox="0 0 4 4" x="1142" y="1541" width="57" height="57" shape-rendering="auto"><path fill="#000000" d="M4,3.15V0.85A0.85,0.85,0,0,0,3.15,0H0.85A0.85,0.85,0,0,0,0,0.85V4H4Z"/></svg><svg viewBox="0 0 4 4" x="1256" y="1541" width="57" height="57" shape-rendering="auto"><path fill="#000000" d="M0,3.15A0.85,0.85,0,0,0,0.85,4H4V0H0V3.15Z"/></svg><svg viewBox="0 0 4 4" x="1313" y="1541" width="57" height="57" shape-rendering="auto"><rect fill="#000000" width="4" height="4"/></svg><svg viewBox="0 0 4 4" x="1370" y="1541" width="57" height="57" shape-rendering="auto"><rect fill="#000000" width="4" height="4"/></svg><svg viewBox="0 0 4 4" x="1427" y="1541" width="57" height="57" shape-rendering="auto"><rect fill="#000000" width="4" height="4"/></svg><svg viewBox="0 0 4 4" x="1484" y="1541" width="57" height="57" shape-rendering="auto"><rect fill="#000000" width="4" height="4"/></svg><svg viewBox="0 0 4 4" x="1541" y="1541" width="57" height="57" shape-rendering="auto"><rect fill="#000000" width="4" height="4"/></svg><svg viewBox="0 0 4 4" x="1598" y="1541" width="57" height="57" shape-rendering="auto"><path fill="#000000" d="M0.85,0H0V0.85A0.85,0.85,0,0,1,0.85,0Z"/></svg><svg viewBox="0 0 4 4" x="1598" y="1541" width="57" height="57" shape-rendering="auto"><path fill="#000000" d="M0.85,4A0.85,0.85,0,0,1,0,3.15V4Z"/></svg><svg viewBox="0 0 4 4" x="629" y="1598" width="57" height="57" shape-rendering="auto"><rect fill="#000000" width="4" height="4"/></svg><svg viewBox="0 0 4 4" x="686" y="1598" width="57" height="57" shape-rendering="auto"><rect fill="#000000" width="4" height="4"/></svg><svg viewBox="0 0 4 4" x="743" y="1598" width="57" height="57" shape-rendering="auto"><rect fill="#000000" width="4" height="4"/></svg><svg viewBox="0 0 4 4" x="800" y="1598" width="57" height="57" shape-rendering="auto"><rect fill="#000000" width="4" height="4"/></svg><svg viewBox="0 0 4 4" x="857" y="1598" width="57" height="57" shape-rendering="auto"><rect fill="#000000" width="4" height="4"/></svg><svg viewBox="0 0 4 4" x="914" y="1598" width="57" height="57" shape-rendering="auto"><rect fill="#000000" width="4" height="4"/></svg><svg viewBox="0 0 4 4" x="971" y="1598" width="57" height="57" shape-rendering="auto"><path fill="#000000" d="M0.85,0H0V0.85A0.85,0.85,0,0,1,0.85,0Z"/></svg><svg viewBox="0 0 4 4" x="971" y="1598" width="57" height="57" shape-rendering="auto"><path fill="#000000" d="M0.85,4A0.85,0.85,0,0,1,0,3.15V4Z"/></svg><svg viewBox="0 0 4 4" x="1142" y="1598" width="57" height="57" shape-rendering="auto"><rect fill="#000000" width="4" height="4"/></svg><svg viewBox="0 0 4 4" x="1199" y="1598" width="57" height="57" shape-rendering="auto"><path fill="#000000" d="M0.85,4A0.85,0.85,0,0,1,0,3.15V4Z"/></svg><svg viewBox="0 0 4 4" x="1256" y="1598" width="57" height="57" shape-rendering="auto"><path fill="#000000" d="M4,0.85V0H3.15A0.85,0.85,0,0,1,4,0.85Z"/></svg><svg viewBox="0 0 4 4" x="1313" y="1598" width="57" height="57" shape-rendering="auto"><path fill="#000000" d="M0,3.15A0.85,0.85,0,0,0,0.85,4H4V0H0V3.15Z"/></svg><svg viewBox="0 0 4 4" x="1370" y="1598" width="57" height="57" shape-rendering="auto"><rect fill="#000000" width="4" height="4"/></svg><svg viewBox="0 0 4 4" x="1427" y="1598" width="57" height="57" shape-rendering="auto"><rect fill="#000000" width="4" height="4"/></svg><svg viewBox="0 0 4 4" x="1484" y="1598" width="57" height="57" shape-rendering="auto"><path fill="#000000" d="M0.85,0H0V0.85A0.85,0.85,0,0,1,0.85,0Z"/></svg><svg viewBox="0 0 4 4" x="1484" y="1598" width="57" height="57" shape-rendering="auto"><path fill="#000000" d="M4,0.85V0H3.15A0.85,0.85,0,0,1,4,0.85Z"/></svg><svg viewBox="0 0 4 4" x="1484" y="1598" width="57" height="57" shape-rendering="auto"><path fill="#000000" d="M3.15,4A0.85,0.85,0,0,0,4,3.15V4Z"/></svg><svg viewBox="0 0 4 4" x="1484" y="1598" width="57" height="57" shape-rendering="auto"><path fill="#000000" d="M0.85,4A0.85,0.85,0,0,1,0,3.15V4Z"/></svg><svg viewBox="0 0 4 4" x="1541" y="1598" width="57" height="57" shape-rendering="auto"><rect fill="#000000" width="4" height="4"/></svg><svg viewBox="0 0 4 4" x="1598" y="1598" width="57" height="57" shape-rendering="auto"><path fill="#000000" d="M0.85,4h2.3A0.85,0.85,0,0,0,4,3.15V0.85A0.85,0.85,0,0,0,3.15,0H0V4Z"/></svg><svg viewBox="0 0 4 4" x="629" y="1655" width="57" height="57" shape-rendering="auto"><path fill="#000000" d="M0,3.15A0.85,0.85,0,0,0,0.85,4H4V0H0V3.15Z"/></svg><svg viewBox="0 0 4 4" x="686" y="1655" width="57" height="57" shape-rendering="auto"><rect fill="#000000" width="4" height="4"/></svg><svg viewBox="0 0 4 4" x="743" y="1655" width="57" height="57" shape-rendering="auto"><path fill="#000000" d="M0.85,0H0V0.85A0.85,0.85,0,0,1,0.85,0Z"/></svg><svg viewBox="0 0 4 4" x="857" y="1655" width="57" height="57" shape-rendering="auto"><path fill="#000000" d="M4,0.85V0H3.15A0.85,0.85,0,0,1,4,0.85Z"/></svg><svg viewBox="0 0 4 4" x="914" y="1655" width="57" height="57" shape-rendering="auto"><path fill="#000000" d="M0,3.15A0.85,0.85,0,0,0,0.85,4H4V0H0V3.15Z"/></svg><svg viewBox="0 0 4 4" x="971" y="1655" width="57" height="57" shape-rendering="auto"><rect fill="#000000" width="4" height="4"/></svg><svg viewBox="0 0 4 4" x="1028" y="1655" width="57" height="57" shape-rendering="auto"><path fill="#000000" d="M3.15,0A0.85,0.85,0,0,1,4,0.85V4H0V0H3.15Z"/></svg><svg viewBox="0 0 4 4" x="1142" y="1655" width="57" height="57" shape-rendering="auto"><rect fill="#000000" width="4" height="4"/></svg><svg viewBox="0 0 4 4" x="1199" y="1655" width="57" height="57" shape-rendering="auto"><path fill="#000000" d="M3.15,0A0.85,0.85,0,0,1,4,0.85V4H0V0H3.15Z"/></svg><svg viewBox="0 0 4 4" x="1313" y="1655" width="57" height="57" shape-rendering="auto"><path fill="#000000" d="M4,0.85V0H3.15A0.85,0.85,0,0,1,4,0.85Z"/></svg><svg viewBox="0 0 4 4" x="1370" y="1655" width="57" height="57" shape-rendering="auto"><rect fill="#000000" width="4" height="4"/></svg><svg viewBox="0 0 4 4" x="1427" y="1655" width="57" height="57" shape-rendering="auto"><rect fill="#000000" width="4" height="4"/></svg><svg viewBox="0 0 4 4" x="1484" y="1655" width="57" height="57" shape-rendering="auto"><rect fill="#000000" width="4" height="4"/></svg><svg viewBox="0 0 4 4" x="1541" y="1655" width="57" height="57" shape-rendering="auto"><path fill="#000000" d="M4,3.15A0.85,0.85,0,0,1,3.15,4H0V0H4V3.15Z"/></svg><svg viewBox="0 0 4 4" x="1598" y="1655" width="57" height="57" shape-rendering="auto"><path fill="#000000" d="M0.85,0H0V0.85A0.85,0.85,0,0,1,0.85,0Z"/></svg><svg viewBox="0 0 4 4" x="1655" y="1655" width="57" height="57" shape-rendering="auto"><path fill="#000000" d="M3.15,0H0.85A0.85,0.85,0,0,0,0,0.85v2.3A0.85,0.85,0,0,0,0.85,4H4V0Z"/></svg><svg viewBox="0 0 4 4" x="1712" y="1655" width="57" height="57" shape-rendering="auto"><path fill="#000000" d="M0.85,4h2.3A0.85,0.85,0,0,0,4,3.15V0.85A0.85,0.85,0,0,0,3.15,0H0V4Z"/></svg><svg viewBox="0 0 4 4" x="629" y="1712" width="57" height="57" shape-rendering="auto"><path fill="#000000" d="M4,0.85V0H3.15A0.85,0.85,0,0,1,4,0.85Z"/></svg><svg viewBox="0 0 4 4" x="686" y="1712" width="57" height="57" shape-rendering="auto"><path fill="#000000" d="M0,3.15A0.85,0.85,0,0,0,0.85,4h2.3A0.85,0.85,0,0,0,4,3.15V0H0V3.15Z"/></svg><svg viewBox="0 0 4 4" x="743" y="1712" width="57" height="57" shape-rendering="auto"><path fill="#000000" d="M3.15,4A0.85,0.85,0,0,0,4,3.15V4Z"/></svg><svg viewBox="0 0 4 4" x="800" y="1712" width="57" height="57" shape-rendering="auto"><path fill="#000000" d="M0.85,0A0.85,0.85,0,0,0,0,0.85V4H4V0H0.85Z"/></svg><svg viewBox="0 0 4 4" x="857" y="1712" width="57" height="57" shape-rendering="auto"><path fill="#000000" d="M0.85,4h2.3A0.85,0.85,0,0,0,4,3.15V0.85A0.85,0.85,0,0,0,3.15,0H0V4Z"/></svg><svg viewBox="0 0 4 4" x="914" y="1712" width="57" height="57" shape-rendering="auto"><path fill="#000000" d="M4,0.85V0H3.15A0.85,0.85,0,0,1,4,0.85Z"/></svg><svg viewBox="0 0 4 4" x="971" y="1712" width="57" height="57" shape-rendering="auto"><rect fill="#000000" width="4" height="4"/></svg><svg viewBox="0 0 4 4" x="1028" y="1712" width="57" height="57" shape-rendering="auto"><rect fill="#000000" width="4" height="4"/></svg><svg viewBox="0 0 4 4" x="1142" y="1712" width="57" height="57" shape-rendering="auto"><rect fill="#000000" width="4" height="4"/></svg><svg viewBox="0 0 4 4" x="1199" y="1712" width="57" height="57" shape-rendering="auto"><rect fill="#000000" width="4" height="4"/></svg><svg viewBox="0 0 4 4" x="1370" y="1712" width="57" height="57" shape-rendering="auto"><path fill="#000000" d="M0,3.15A0.85,0.85,0,0,0,0.85,4h2.3A0.85,0.85,0,0,0,4,3.15V0H0V3.15Z"/></svg><svg viewBox="0 0 4 4" x="1427" y="1712" width="57" height="57" shape-rendering="auto"><path fill="#000000" d="M0.85,0H0V0.85A0.85,0.85,0,0,1,0.85,0Z"/></svg><svg viewBox="0 0 4 4" x="1427" y="1712" width="57" height="57" shape-rendering="auto"><path fill="#000000" d="M4,0.85V0H3.15A0.85,0.85,0,0,1,4,0.85Z"/></svg><svg viewBox="0 0 4 4" x="1427" y="1712" width="57" height="57" shape-rendering="auto"><path fill="#000000" d="M3.15,4A0.85,0.85,0,0,0,4,3.15V4Z"/></svg><svg viewBox="0 0 4 4" x="1484" y="1712" width="57" height="57" shape-rendering="auto"><rect fill="#000000" width="4" height="4"/></svg><svg viewBox="0 0 4 4" x="1541" y="1712" width="57" height="57" shape-rendering="auto"><path fill="#000000" d="M0.85,0H0V0.85A0.85,0.85,0,0,1,0.85,0Z"/></svg><svg viewBox="0 0 4 4" x="1541" y="1712" width="57" height="57" shape-rendering="auto"><path fill="#000000" d="M3.15,4A0.85,0.85,0,0,0,4,3.15V4Z"/></svg><svg viewBox="0 0 4 4" x="1541" y="1712" width="57" height="57" shape-rendering="auto"><path fill="#000000" d="M0.85,4A0.85,0.85,0,0,1,0,3.15V4Z"/></svg><svg viewBox="0 0 4 4" x="1598" y="1712" width="57" height="57" shape-rendering="auto"><path fill="#000000" d="M4,3.15V0.85A0.85,0.85,0,0,0,3.15,0H0.85A0.85,0.85,0,0,0,0,0.85V4H4Z"/></svg><svg viewBox="0 0 4 4" x="1769" y="1712" width="57" height="57" shape-rendering="auto"><rect fill="#000000" width="4" height="4" rx="0.85"/></svg><svg viewBox="0 0 4 4" x="743" y="1769" width="57" height="57" shape-rendering="auto"><path fill="#000000" d="M3.15,0H0.85A0.85,0.85,0,0,0,0,0.85v2.3A0.85,0.85,0,0,0,0.85,4H4V0Z"/></svg><svg viewBox="0 0 4 4" x="800" y="1769" width="57" height="57" shape-rendering="auto"><path fill="#000000" d="M4,3.15A0.85,0.85,0,0,1,3.15,4H0V0H4V3.15Z"/></svg><svg viewBox="0 0 4 4" x="857" y="1769" width="57" height="57" shape-rendering="auto"><path fill="#000000" d="M0.85,0H0V0.85A0.85,0.85,0,0,1,0.85,0Z"/></svg><svg viewBox="0 0 4 4" x="971" y="1769" width="57" height="57" shape-rendering="auto"><path fill="#000000" d="M0,3.15A0.85,0.85,0,0,0,0.85,4H4V0H0V3.15Z"/></svg><svg viewBox="0 0 4 4" x="1028" y="1769" width="57" height="57" shape-rendering="auto"><path fill="#000000" d="M4,3.15A0.85,0.85,0,0,1,3.15,4H0V0H4V3.15Z"/></svg><svg viewBox="0 0 4 4" x="1142" y="1769" width="57" height="57" shape-rendering="auto"><path fill="#000000" d="M0,3.15A0.85,0.85,0,0,0,0.85,4H4V0H0V3.15Z"/></svg><svg viewBox="0 0 4 4" x="1199" y="1769" width="57" height="57" shape-rendering="auto"><path fill="#000000" d="M4,3.15A0.85,0.85,0,0,1,3.15,4H0V0H4V3.15Z"/></svg><svg viewBox="0 0 4 4" x="1313" y="1769" width="57" height="57" shape-rendering="auto"><rect fill="#000000" width="4" height="4" rx="0.85"/></svg><svg viewBox="0 0 4 4" x="1427" y="1769" width="57" height="57" shape-rendering="auto"><path fill="#000000" d="M3.15,0H0.85A0.85,0.85,0,0,0,0,0.85v2.3A0.85,0.85,0,0,0,0.85,4H4V0Z"/></svg><svg viewBox="0 0 4 4" x="1484" y="1769" width="57" height="57" shape-rendering="auto"><rect fill="#000000" width="4" height="4"/></svg><svg viewBox="0 0 4 4" x="1541" y="1769" width="57" height="57" shape-rendering="auto"><rect fill="#000000" width="4" height="4"/></svg><svg viewBox="0 0 4 4" x="1598" y="1769" width="57" height="57" shape-rendering="auto"><path fill="#000000" d="M4,3.15A0.85,0.85,0,0,1,3.15,4H0V0H4V3.15Z"/></svg><svg version="1.1" id="Ebene_1" x="173" y="173" viewBox="0 0 700 700" style="enable-background:new 0 0 700 700;" xml:space="preserve" width="399" height="399" shape-rendering="auto">

<path fill="#000000" d="M21.2-0.1C9.5-0.1-0.1,9.5-0.1,21.2v78.8v100v100v100v100v100v78.8c0,11.7,9.5,21.3,21.3,21.3h657.6  c11.7,0,21.3-9.5,21.3-21.3V600V500V400V300V200v-100V21.2c0-11.7-9.5-21.3-21.3-21.3H21.2z M600,200v100v100v100v87.8  c0,6.8-5.5,12.2-12.2,12.2H112.2c-6.8,0-12.2-5.5-12.2-12.2V500V400V300V200v-87.8c0-6.8,5.5-12.2,12.2-12.2h475.6  c6.8,0,12.2,5.5,12.2,12.2V200z"/>
</svg>
<svg version="1.1" id="Ebene_1" x="173" y="173" viewBox="0 0 700 700" style="enable-background:new 0 0 700 700;" xml:space="preserve" width="399" height="399" shape-rendering="auto">

<path fill="#000000" d="M500,400V300v-78.8c0-11.7-9.5-21.3-21.3-21.3H221.2c-11.7,0-21.3,9.5-21.3,21.3V300v100v78.8    c0,11.7,9.5,21.3,21.3,21.3h257.5c11.7,0,21.3-9.5,21.3-21.3V400z"/>
</svg>
<svg version="1.1" id="Ebene_1" x="1427" y="173" viewBox="0 0 700 700" style="enable-background:new 0 0 700 700;" xml:space="preserve" width="399" height="399" shape-rendering="auto">

<path fill="#000000" d="M21.2-0.1C9.5-0.1-0.1,9.5-0.1,21.2v78.8v100v100v100v100v100v78.8c0,11.7,9.5,21.3,21.3,21.3h657.6  c11.7,0,21.3-9.5,21.3-21.3V600V500V400V300V200v-100V21.2c0-11.7-9.5-21.3-21.3-21.3H21.2z M600,200v100v100v100v87.8  c0,6.8-5.5,12.2-12.2,12.2H112.2c-6.8,0-12.2-5.5-12.2-12.2V500V400V300V200v-87.8c0-6.8,5.5-12.2,12.2-12.2h475.6  c6.8,0,12.2,5.5,12.2,12.2V200z"/>
</svg>
<svg version="1.1" id="Ebene_1" x="1427" y="173" viewBox="0 0 700 700" style="enable-background:new 0 0 700 700;" xml:space="preserve" width="399" height="399" shape-rendering="auto">

<path fill="#000000" d="M500,400V300v-78.8c0-11.7-9.5-21.3-21.3-21.3H221.2c-11.7,0-21.3,9.5-21.3,21.3V300v100v78.8    c0,11.7,9.5,21.3,21.3,21.3h257.5c11.7,0,21.3-9.5,21.3-21.3V400z"/>
</svg>
<svg version="1.1" id="Ebene_1" x="173" y="1427" viewBox="0 0 700 700" style="enable-background:new 0 0 700 700;" xml:space="preserve" width="399" height="399" shape-rendering="auto">

<path fill="#000000" d="M21.2-0.1C9.5-0.1-0.1,9.5-0.1,21.2v78.8v100v100v100v100v100v78.8c0,11.7,9.5,21.3,21.3,21.3h657.6  c11.7,0,21.3-9.5,21.3-21.3V600V500V400V300V200v-100V21.2c0-11.7-9.5-21.3-21.3-21.3H21.2z M600,200v100v100v100v87.8  c0,6.8-5.5,12.2-12.2,12.2H112.2c-6.8,0-12.2-5.5-12.2-12.2V500V400V300V200v-87.8c0-6.8,5.5-12.2,12.2-12.2h475.6  c6.8,0,12.2,5.5,12.2,12.2V200z"/>
</svg>
<svg version="1.1" id="Ebene_1" x="173" y="1427" viewBox="0 0 700 700" style="enable-background:new 0 0 700 700;" xml:space="preserve" width="399" height="399" shape-rendering="auto">

<path fill="#000000" d="M500,400V300v-78.8c0-11.7-9.5-21.3-21.3-21.3H221.2c-11.7,0-21.3,9.5-21.3,21.3V300v100v78.8    c0,11.7,9.5,21.3,21.3,21.3h257.5c11.7,0,21.3-9.5,21.3-21.3V400z"/>
</svg>
<svg version="1.0" id="Layer_1" x="771" y="771" viewBox="0 0 700 700" enable-background="new 0 0 700 700" xml:space="preserve" width="456" height="456" shape-rendering="auto">
<g>
	<g>
		<path fill="#000000" d="M261.1,296.3c0,30.2,10,57.6,26.1,77.3C271,353.8,261.1,326.5,261.1,296.3L261.1,296.3z"/>
		<path fill="#000000" d="M406.6,211.9c-15.4-15.6-35.1-25-56.6-25s-41.2,9.4-56.6,25c15.4-15.6,35.1-25,56.6-25    S391.2,196.3,406.6,211.9z"/>
		<path fill="#000000" d="M406.6,211.9c6.6,6.7,12.4,14.5,17.2,23.2C419,226.4,413.2,218.5,406.6,211.9z"/>
		<path fill="#000000" d="M276.3,235.1c4.8-8.7,10.6-16.6,17.2-23.2C286.8,218.5,281.1,226.4,276.3,235.1z"/>
		<path fill="#000000" d="M439,296.3c0,30.2-10,57.6-26.1,77.3C429,353.8,439,326.5,439,296.3L439,296.3z"/>
		<path fill="#000000" d="M350,87.5C205,87.5,87.5,205,87.5,350S205,612.5,350,612.5c145,0,262.5-117.5,262.5-262.5    S495,87.5,350,87.5z M350,114.2c130.2,0,235.8,105.6,235.8,235.8c0,56.4-19.8,108.2-52.9,148.8c-2-9.7-4.4-21.3-5.5-27.9    c-1.7-10.2-15.8-23.6-75.8-45.7c-24.9-9.2-38.6-12.6-46.2-16.5c-16.3,11.3-35.2,17.9-55.4,17.9c-20.1,0-39-6.6-55.2-17.8    c-7.6,3.9-21.3,7.3-46.3,16.4c-60,22-74.2,35.5-75.8,45.7c-1.1,6.6-3.5,18.1-5.5,27.8c-33.1-40.6-52.9-92.4-52.9-148.8    C114.2,219.8,219.8,114.2,350,114.2z"/>
		<path fill="#000000" d="M435,263.7c-2.6-10.3-6.4-19.9-11.2-28.6c-4.8-8.7-10.6-16.6-17.2-23.2c-15.4-15.6-35.1-25-56.6-25    s-41.2,9.4-56.6,25c-6.6,6.7-12.4,14.5-17.2,23.2c-4.8,8.7-8.6,18.4-11.2,28.6c-2.6,10.3-4,21.2-4,32.5c0,30.2,10,57.6,26.1,77.3    c6,7.4,12.9,13.8,20.5,18.8c12.6,8.4,27.1,13.2,42.4,13.2s29.8-4.8,42.4-13.2c7.6-5.1,14.5-11.4,20.5-18.8    c16.1-19.8,26.1-47.1,26.1-77.3C439,284.9,437.6,274,435,263.7z"/>
	</g>
</g>
</svg>
</svg>


	<path id="HandsShadow" class="shadow-35 show_on_white" d="M162.3,409.7c0,4.9-3.5,10.2-10.1,10.2h-25c0.8,1.5,1.2,3.2,1.2,5c0,5.8-4.5,10.5-10.2,11
	c0.8,1.5,1.2,3.2,1.2,5.1c0,5.6-4.2,10.2-9.6,10.9c0.8,1.5,1.3,3.3,1.3,5.1c0,6.1-4.9,11-11,11H82.3c-2.5,0-4.7-0.8-6.6-2.2
	c-5.2,2-10.7,3-16.3,3c-10.5,0-21.4-3.4-31.5-10.1h-15C5,458.7,0,453.2,0,444.3v-26.1c0-8,6.5-14.5,14.5-14.5h13.6
	c4-8.6,13-12.6,25-17.9l0.9-0.4c10.4-4.6,10.1-14,9.9-20.8c-0.1-3.7-0.2-6.3,1.6-8c1.8-1.7,4.8-2.4,8-2c2.4,0.3,7,1.6,10.2,6.8
	c4.6,7.6,3.6,20.5-0.1,28c-1.4,2.9-1.6,5.6-0.6,7.2c1.1,1.7,3.5,2,5.3,2H150c4.8,0,7.7,1.8,9.3,3.3
	C161.2,404.1,162.3,406.8,162.3,409.7z M105.2,457c0-2.8-2.3-5-5-5H82.3c-2.8,0-5,2.3-5,5s2.3,5,5,5h17.9
	C103,462.1,105.2,459.8,105.2,457z M113.5,441c0-2.8-2.3-5-5-5H83.2h-0.9c-2.8,0-5,2.3-5,5s2.3,5,5,5h17.9h8.3
	C111.2,446,113.5,443.8,113.5,441z M117.4,419.9h-13H83.2c-2.2,0-4.1,1.4-4.7,3.4c-0.1,0.4-0.2,0.8-0.2,1.1c0,0.2,0,0.3,0,0.5
	c0,2.8,2.3,5,5,5h25.3h8.9c2.8,0,5-2.3,5-5S120.2,419.9,117.4,419.9z M156.3,409.7c0-1.3-0.5-2.4-1.4-3.3c-1.1-1.1-2.9-1.7-5.1-1.7
	H88.2c-6.1,0-9-2.6-10.4-4.8c-2.1-3.4-2-8.1,0.3-13c2.9-6,3.7-16.8,0.4-22.3c-1.8-3-4.3-3.8-5.7-4c-1.4-0.2-2.4,0-2.9,0.2
	c-0.1,0.8,0,2.4,0,3.6c0.2,7.1,0.6,20.2-13.5,26.5l-0.9,0.4c-16.5,7.4-24.1,10.7-23.7,25c0,1.7-1.3,3-2.9,3.1c-1.7,0-3-1.3-3.1-2.9
	c-0.1-2.5,0.1-4.7,0.4-6.7H14.5c-4.7,0-8.5,3.8-8.5,8.5v26.1c0,3.8,1.2,8.4,6.9,8.4h16.9l0.8,0.5c18.1,12.5,33.5,10.3,41.4,7.6
	c-0.4-1.2-0.7-2.5-0.7-3.8c0-3.2,1.3-6,3.5-8c-2.1-2-3.5-4.9-3.5-8c0-0.8,0.1-1.6,0.3-2.4c-3.5,4.5-8,8.3-13.3,10.8
	c-0.4,0.2-0.9,0.3-1.3,0.3c-1.1,0-2.2-0.6-2.7-1.7c-0.7-1.5-0.1-3.3,1.4-4c8.4-4,14.4-11.7,16.6-20.5c0.1-0.6,0.2-1.3,0.4-1.9
	c0.3-1.8,0.5-3.6,0.5-5.4c0-2.1-0.2-4.2-0.6-6.2c-0.3-1.6,0.7-3.2,2.3-3.5c1.6-0.3,3.2,0.7,3.5,2.3c0.4,1.9,0.6,3.9,0.7,5.9
	c1.3-0.5,2.6-0.8,4.1-0.8h21.2h13h34.8C155.5,413.9,156.3,411.3,156.3,409.7z M485,27.3v26.1c0,8-6.5,14.5-14.5,14.5h-13.6
	c-4,8.6-13,12.6-25,17.9l-0.9,0.4c-10.4,4.6-10.1,14-9.9,20.8c0.1,3.7,0.2,6.3-1.6,8c-1.4,1.4-3.8,2.1-6.3,2.1c-0.6,0-1.1,0-1.7-0.1
	c-2.4-0.3-7-1.6-10.2-6.8c-4.6-7.6-3.6-20.5,0.1-28c1.4-2.9,1.6-5.6,0.6-7.2c-1.1-1.7-3.5-2-5.3-2H335c-4.8,0-7.7-1.8-9.3-3.3
	c-2.1-2-3.2-4.7-3.2-7.6c0-4.9,3.5-10.2,10.1-10.2h28.1c-0.8-1.5-1.2-3.2-1.2-5c0-5.8,4.5-10.5,10.2-11c-0.8-1.5-1.2-3.2-1.2-5.1
	c0-5.6,4.2-10.2,9.6-10.9c-0.8-1.5-1.3-3.3-1.3-5.1c0-5.9,4.7-10.7,10.5-11c26.2-8.4,53.6-1.5,69.7,9.3h15.1
	C480,13,485,18.5,485,27.3z M479,27.3c0-6.9-3.7-8.4-6.9-8.4h-16.9l-0.8-0.5c-11.1-7.6-37.4-18.1-65.6-8.9c-0.1,0-0.1,0-0.2,0
	s-0.2,0-0.3,0.1c-0.1,0-0.2,0-0.3,0c-0.1,0-0.1,0-0.1,0c-2.8,0-5,2.3-5,5s2.3,5,5,5V20c1,0.5,1.8,1.5,1.8,2.7s-0.7,2.3-1.8,2.7v0.3
	h-1.2h-7.1c-2.8,0-5,2.3-5,5s2.3,5,5,5h6.1h0.9c1.7,0,3,1.3,3,3s-1.3,3-3,3h-0.9h-6.1h-8.9c-2.8,0-5,2.3-5,5s2.3,5,5,5h10h5.1
	c1.7,0,3,1.3,3,3s-1.3,3-3,3h-5.1h-10h-37.9c-3.2,0-4.1,2.6-4.1,4.2c0,1.3,0.5,2.4,1.4,3.3c1.1,1.1,2.9,1.7,5.1,1.7h61.7
	c6.1,0,9,2.6,10.4,4.8c2.1,3.4,2,8.1-0.3,13c-2.9,6-3.7,16.8-0.4,22.3c1.8,3,4.3,3.8,5.7,4c1.4,0.2,2.4,0,2.9-0.2
	c0.1-0.8,0-2.4,0-3.6c-0.2-7.1-0.6-20.2,13.5-26.5l0.9-0.4c16.5-7.4,24.1-10.7,23.7-25c0-1.7,1.3-3,2.9-3.1c1.7,0,3,1.3,3.1,2.9
	c0.1,2.5-0.1,4.7-0.4,6.7h11.8c4.7,0,8.5-3.8,8.5-8.5v-26C479.2,27.3,479,27.3,479,27.3z"/>
</svg>
